<svg width="16" height="16" viewBox="0 0 16 16" fill="none" xmlns="http://www.w3.org/2000/svg">
<g clip-path="url(#clip0_3853_2054)">
<path d="M7.9987 1.33398C11.6787 1.33398 14.6654 4.32065 14.6654 8.00065C14.6654 11.6807 11.6787 14.6673 7.9987 14.6673C4.3187 14.6673 1.33203 11.6807 1.33203 8.00065C1.33203 4.32065 4.3187 1.33398 7.9987 1.33398ZM7.9987 13.334C10.9454 13.334 13.332 10.9473 13.332 8.00065C13.332 5.05398 10.9454 2.66732 7.9987 2.66732C5.05203 2.66732 2.66536 5.05398 2.66536 8.00065C2.66536 10.9473 5.05203 13.334 7.9987 13.334ZM8.66536 8.00065H10.6654L7.9987 10.6673L5.33203 8.00065H7.33203V5.33398H8.66536V8.00065Z" fill="#A4A8AB"/>
</g>
<defs>
<clipPath id="clip0_3853_2054">
<rect width="16" height="16" fill="white"/>
</clipPath>
</defs>
</svg>
