<svg width="20" height="20" viewBox="0 0 20 20" fill="none" xmlns="http://www.w3.org/2000/svg">
<path id="Vector" d="M17.064 7.04679L17.0782 7.0491L18.6976 7.29586C18.698 7.29591 18.6983 7.29596 18.6986 7.29601C18.9312 7.33261 19.1309 7.49746 19.214 7.75632C19.3001 8.03623 19.2254 8.31019 19.0632 8.47925C19.0626 8.47985 19.062 8.48045 19.0615 8.48105L15.2697 12.3366C15.1019 12.5072 15.0256 12.7476 15.0643 12.9838L15.9567 18.4273C15.9969 18.7003 15.8915 18.9568 15.6874 19.1174C15.5672 19.2082 15.4449 19.2439 15.3343 19.2439C15.2306 19.2439 15.1442 19.2205 15.0803 19.1829C15.0773 19.1811 15.0742 19.1793 15.0711 19.1776C15.0678 19.1756 15.0644 19.1737 15.0609 19.1719L10.3717 16.5947C10.1468 16.471 9.87419 16.471 9.64924 16.5947L4.96 19.1719L4.95998 19.1718L4.95238 19.1761C4.75385 19.2882 4.51736 19.2723 4.33652 19.1315C4.33048 19.1268 4.32436 19.1222 4.31817 19.1177C4.12227 18.9745 4.01522 18.722 4.06226 18.4512L4.06229 18.4512L4.06344 18.4441L4.95663 12.9956C4.99534 12.7594 4.91904 12.519 4.75125 12.3483L0.955201 8.48842L0.955216 8.48841L0.951146 8.48433C0.774967 8.30792 0.700827 8.03391 0.784117 7.76584C0.865295 7.50456 1.05877 7.34548 1.29892 7.30776C1.29921 7.30772 1.29951 7.30767 1.2998 7.30762L6.53916 6.50774C6.78559 6.47012 6.99723 6.31251 7.10387 6.08719L9.45377 1.12233C9.45385 1.12218 9.45392 1.12202 9.45399 1.12187C9.57111 0.875995 9.7856 0.75 10.0105 0.75C10.1552 0.75 10.3135 0.81226 10.4624 0.97111C10.5046 1.02056 10.5401 1.07466 10.5616 1.12201L10.5615 1.12204L10.5664 1.13256L12.6319 5.50129C12.6441 5.57468 12.6672 5.64607 12.7007 5.71304C12.9008 6.1139 13.2777 6.39297 13.7113 6.4696L13.7145 6.47016L17.064 7.04679ZM12.6608 5.56237L12.6654 5.57183C12.6638 5.56868 12.6623 5.56553 12.6608 5.56237Z" stroke="#868686" stroke-width="1.5" stroke-linejoin="round"/>
</svg>
