<svg width="20" height="21" viewBox="0 0 20 21" fill="none" xmlns="http://www.w3.org/2000/svg">
<path id="Vector" d="M19.9295 7.60088C19.765 7.07833 19.3419 6.69829 18.8131 6.61516L17.1912 6.36576L13.8418 5.78383C13.642 5.7482 13.4657 5.61756 13.3717 5.42754V5.41566C13.3599 5.36816 13.3599 5.33253 13.3364 5.28503L11.2445 0.819579C11.1857 0.688941 11.1035 0.570179 11.0212 0.47517C10.7509 0.178265 10.3983 0.00012207 10.0105 0.00012207C9.48161 0.00012207 9.01151 0.308903 8.77646 0.807703L6.42597 5.81946L1.18437 6.62704C0.655514 6.71017 0.232426 7.07833 0.0678911 7.61276C-0.0966433 8.14719 0.0443862 8.71725 0.420465 9.09728L4.21651 12.9927L3.32332 18.4914C3.2293 19.0377 3.44085 19.584 3.87569 19.9046C4.29878 20.2371 4.86289 20.2728 5.32124 20.0115L10.0105 17.4106L14.6997 20.0115C14.8995 20.1303 15.1228 20.1778 15.3343 20.1778C15.6164 20.1778 15.8985 20.0828 16.1453 19.8927C16.5683 19.5602 16.7799 19.0258 16.6976 18.4795L15.8044 12.9808L19.6005 9.08541C19.9648 8.70537 20.0941 8.13531 19.9295 7.60088Z" fill="#FFC148"/>
</svg>
