<svg width="101" height="26" viewBox="0 0 101 26" fill="none" xmlns="http://www.w3.org/2000/svg">
<path d="M10.2484 2.47334C11.7314 -0.0952764 15.4389 -0.095283 16.9219 2.47334L26.2422 18.6165C27.7251 21.1851 25.8714 24.3959 22.9054 24.3959H4.26493C1.29895 24.3959 -0.554801 21.1851 0.928192 18.6165L10.2484 2.47334Z" fill="url(#paint0_linear_3484_4967)"/>
<path d="M19.4018 22.3313L12.8848 10.7969L19.6777 6.86719L26.3578 18.3416C27.4732 20.2575 26.8221 22.7149 24.9045 23.8272C22.9736 24.9472 20.4999 24.2747 19.4018 22.3313Z" fill="url(#paint1_linear_3484_4967)"/>
<path d="M10.2534 2.30025C11.0925 0.846916 12.7337 0.14548 14.295 0.432324C15.4188 0.599132 16.4585 1.25872 17.0707 2.31906L20.9635 9.06157C19.0874 7.51783 16.0789 7.80628 14.7102 10.0176L13.6632 11.8411L13.6623 11.8395L7.52946 22.4619C6.46329 24.3086 4.10198 24.9413 2.25533 23.8751C0.408674 22.809 -0.224036 20.4477 0.84213 18.601L10.2534 2.30025Z" fill="url(#paint2_linear_3484_4967)"/>
<path d="M85.9062 8.23218C85.9062 7.24634 86.0943 6.31888 86.4705 5.44979C86.8467 4.58069 87.3655 3.80889 88.0271 3.13437C88.6886 2.45985 89.454 1.9345 90.3231 1.55833C91.2051 1.16918 92.1456 0.974609 93.1444 0.974609C94.1302 0.974609 95.0577 1.16918 95.9268 1.55833C96.8088 1.9345 97.5806 2.45985 98.2422 3.13437C98.9167 3.80889 99.442 4.58069 99.8182 5.44979C100.207 6.31888 100.402 7.24634 100.402 8.23218C100.402 9.23099 100.207 10.1649 99.8182 11.034C99.442 11.9031 98.9167 12.6749 98.2422 13.3494C97.5806 14.011 96.8088 14.5299 95.9268 14.906C95.0577 15.2692 94.1302 15.4508 93.1444 15.4508C92.1326 15.4508 91.1921 15.2692 90.3231 14.906C89.454 14.5299 88.6886 14.0175 88.0271 13.3689C87.3655 12.7074 86.8467 11.942 86.4705 11.0729C86.0943 10.1909 85.9062 9.24396 85.9062 8.23218ZM88.2411 8.23218C88.2411 8.93264 88.3644 9.5877 88.6108 10.1974C88.8702 10.807 89.227 11.3453 89.681 11.8123C90.135 12.2663 90.6603 12.623 91.257 12.8825C91.8537 13.1419 92.5023 13.2716 93.2027 13.2716C93.8773 13.2716 94.5064 13.1419 95.0901 12.8825C95.6868 12.623 96.2056 12.2663 96.6467 11.8123C97.0877 11.3453 97.4315 10.807 97.6779 10.1974C97.9373 9.5877 98.0671 8.93264 98.0671 8.23218C98.0671 7.51874 97.9373 6.8572 97.6779 6.24753C97.4185 5.63787 97.0682 5.09955 96.6272 4.63258C96.1862 4.1656 95.6673 3.8024 95.0706 3.54297C94.4739 3.28354 93.8319 3.15383 93.1444 3.15383C92.4569 3.15383 91.8148 3.28354 91.2181 3.54297C90.6214 3.8024 90.0961 4.1656 89.642 4.63258C89.201 5.09955 88.8573 5.64436 88.6108 6.26699C88.3644 6.87665 88.2411 7.53172 88.2411 8.23218Z" fill="white"/>
<path d="M72.7942 1.13086H75.6739L84.9161 15.2958H81.9975L72.7942 1.13086ZM72.5996 15.2958L77.5807 7.49339L78.6508 9.73098L75.4015 15.2958H72.5996ZM78.7676 6.65673L81.9975 1.13086H84.741L79.9545 8.60246L78.7676 6.65673Z" fill="white"/>
<path fill-rule="evenodd" clip-rule="evenodd" d="M70.5502 1.13281H61.1523V3.31289H63.4288V3.31203H70.5502V1.13281ZM63.4288 7.08648H61.1523V15.2977H70.8226V13.1185H63.4288V9.28542H69.7719V7.08674H63.4288V7.08648Z" fill="white"/>
<path d="M57.187 15.8018L46.3104 5.25591L46.972 5.52831L47.0303 15.2959H44.7344V0.644531H44.8317L55.5526 11.1904L55.0273 11.0347L54.9884 1.13096H57.2454V15.8018H57.187Z" fill="white"/>
<path fill-rule="evenodd" clip-rule="evenodd" d="M31.8842 10.037L29.6504 15.2955H31.888L33.2515 11.9683H38.3963L39.7098 15.2955H42.3171L36.0518 0.546875H35.9156L34.9057 2.92429L35.3297 4.08269L35.8738 5.56949L35.8864 5.60396L35.8858 5.60924L37.6358 10.042H34.0409L34.043 10.037H31.8842Z" fill="white"/>
<path d="M88.5102 22.8115C88.3574 22.8115 88.1978 22.7846 88.0315 22.7306C87.8652 22.6722 87.7303 22.58 87.627 22.4542L87.7753 22.2452C87.8652 22.3396 87.9708 22.416 88.0922 22.4744C88.2181 22.5283 88.3507 22.5553 88.49 22.5553C88.5934 22.5553 88.69 22.5418 88.7799 22.5149C88.8743 22.4834 88.9508 22.4317 89.0092 22.3598C89.0676 22.2879 89.0968 22.1912 89.0968 22.0698C89.0968 21.944 89.0609 21.8473 88.989 21.7799C88.9215 21.7125 88.8339 21.6585 88.726 21.6181C88.6226 21.5731 88.5125 21.5327 88.3956 21.4967C88.2023 21.4338 88.0427 21.3484 87.9169 21.2405C87.7955 21.1326 87.7348 20.9798 87.7348 20.782C87.7348 20.6382 87.7685 20.5123 87.836 20.4044C87.9079 20.2965 88.0045 20.2134 88.1259 20.1549C88.2473 20.092 88.3844 20.0605 88.5372 20.0605C88.6766 20.0605 88.8137 20.083 88.9485 20.128C89.0879 20.1729 89.2137 20.2493 89.3261 20.3572L89.1845 20.5797C89.1126 20.4808 89.0159 20.4134 88.8946 20.3775C88.7777 20.3415 88.6743 20.3213 88.5844 20.3168C88.508 20.3168 88.4271 20.3325 88.3417 20.364C88.2608 20.3954 88.1911 20.4426 88.1326 20.5056C88.0787 20.564 88.0517 20.6427 88.0517 20.7416C88.0517 20.8449 88.081 20.9303 88.1394 20.9978C88.1978 21.0607 88.272 21.1124 88.3619 21.1529C88.4563 21.1933 88.5529 21.2315 88.6518 21.2675C88.7822 21.3079 88.9036 21.3574 89.0159 21.4158C89.1328 21.4698 89.2272 21.5439 89.2991 21.6383C89.3755 21.7282 89.4137 21.8496 89.4137 22.0024C89.4137 22.1553 89.38 22.2946 89.3126 22.4205C89.2452 22.5418 89.144 22.6385 89.0092 22.7104C88.8788 22.7778 88.7125 22.8115 88.5102 22.8115Z" fill="white"/>
<path d="M85.9581 18.9629H86.2817V20.1563H87.0976V20.4126H86.2817V22.759H85.9581V20.4126H85.3984V20.1563H85.9581V18.9629Z" fill="white"/>
<path d="M83.3666 22.8132C83.1148 22.8132 82.8788 22.748 82.6586 22.6177C82.4383 22.4828 82.2765 22.3098 82.1731 22.0985L82.2271 21.9839V24.0269H81.9102V20.1027H82.1933L82.2271 20.9657L82.1664 20.7702C82.2832 20.5589 82.4541 20.3859 82.6788 20.251C82.9036 20.1117 83.1486 20.042 83.4138 20.042C83.6655 20.042 83.8925 20.1027 84.0948 20.224C84.297 20.3454 84.4566 20.5117 84.5735 20.723C84.6949 20.9298 84.7555 21.168 84.7555 21.4377C84.7555 21.7029 84.6926 21.9412 84.5667 22.1524C84.4454 22.3592 84.2791 22.521 84.0678 22.6379C83.861 22.7548 83.6273 22.8132 83.3666 22.8132ZM83.3126 22.5502C83.5194 22.5502 83.7059 22.5008 83.8723 22.4019C84.0431 22.303 84.1779 22.1704 84.2768 22.0041C84.3802 21.8333 84.4319 21.6445 84.4319 21.4377C84.4319 21.2264 84.3825 21.0377 84.2836 20.8713C84.1847 20.7005 84.0521 20.5657 83.8857 20.4668C83.7239 20.3679 83.5396 20.3184 83.3328 20.3184C83.1351 20.3184 82.9553 20.3634 82.7934 20.4533C82.6316 20.5432 82.5013 20.6646 82.4024 20.8174C82.3035 20.9702 82.245 21.1433 82.2271 21.3366V21.5523C82.2405 21.7366 82.2967 21.9052 82.3956 22.058C82.499 22.2109 82.6294 22.3322 82.7867 22.4221C82.9485 22.5075 83.1238 22.5502 83.3126 22.5502Z" fill="white"/>
<path d="M79.7716 22.8121C79.4974 22.8121 79.2547 22.7515 79.0434 22.6301C78.8321 22.5087 78.6658 22.3447 78.5444 22.1379C78.4276 21.9266 78.3691 21.6906 78.3691 21.4299C78.3691 21.1737 78.4321 20.9399 78.5579 20.7287C78.6838 20.5174 78.8524 20.3488 79.0636 20.223C79.2794 20.0971 79.5176 20.0342 79.7783 20.0342C80.093 20.0342 80.356 20.1263 80.5672 20.3106C80.783 20.4949 80.9381 20.7354 81.0325 21.0321L78.7265 21.9221L78.6321 21.6929L80.7425 20.8703L80.6751 20.9647C80.5987 20.7849 80.4818 20.6298 80.3245 20.4994C80.1717 20.3691 79.9829 20.3039 79.7581 20.3039C79.5558 20.3039 79.3738 20.3533 79.212 20.4522C79.0501 20.5511 78.9198 20.6837 78.8209 20.85C78.7265 21.0164 78.6793 21.2051 78.6793 21.4164C78.6793 21.6142 78.7243 21.7985 78.8142 21.9693C78.9086 22.1401 79.0389 22.2772 79.2052 22.3806C79.3715 22.484 79.5626 22.5357 79.7783 22.5357C79.9222 22.5357 80.0593 22.5087 80.1896 22.4548C80.3245 22.4008 80.4436 22.3312 80.547 22.2458L80.7088 22.475C80.583 22.5739 80.4369 22.6548 80.2706 22.7177C80.1087 22.7807 79.9424 22.8121 79.7716 22.8121Z" fill="white"/>
<path d="M77.7417 22.5014C77.6203 22.6003 77.4832 22.6767 77.3304 22.7306C77.1776 22.7846 77.018 22.8115 76.8517 22.8115C76.582 22.8115 76.3415 22.7531 76.1302 22.6362C75.919 22.5149 75.7526 22.3508 75.6313 22.144C75.5099 21.9372 75.4492 21.7013 75.4492 21.436C75.4492 21.1708 75.5121 20.9348 75.638 20.7281C75.7639 20.5213 75.9302 20.3595 76.137 20.2426C76.3482 20.1212 76.5775 20.0605 76.8247 20.0605C77.009 20.0605 77.1798 20.0875 77.3372 20.1415C77.4945 20.1954 77.6316 20.2718 77.7485 20.3707L77.5799 20.5865C77.4855 20.5101 77.3754 20.4471 77.2495 20.3977C77.1236 20.3482 76.9888 20.3235 76.8449 20.3235C76.6472 20.3235 76.4651 20.373 76.2988 20.4718C76.137 20.5707 76.0066 20.7056 75.9077 20.8764C75.8133 21.0427 75.7661 21.2293 75.7661 21.436C75.7661 21.6383 75.8133 21.8249 75.9077 21.9957C76.0066 22.162 76.1392 22.2946 76.3055 22.3935C76.4763 22.4924 76.6651 22.5418 76.8719 22.5418C77.0068 22.5418 77.1326 22.5216 77.2495 22.4811C77.3664 22.4362 77.472 22.3778 77.5664 22.3058L77.7417 22.5014Z" fill="white"/>
<path d="M72.5323 20.121L72.566 20.9504L72.5256 20.7886C72.602 20.5593 72.7458 20.3795 72.9571 20.2492C73.1729 20.1143 73.4111 20.0469 73.6718 20.0469C73.919 20.0469 74.1191 20.121 74.2719 20.2694C74.4247 20.4132 74.5034 20.602 74.5079 20.8358V22.7574H74.1842V20.9234C74.1798 20.7526 74.1258 20.611 74.0224 20.4986C73.919 20.3863 73.7685 20.3278 73.5707 20.3233C73.3954 20.3233 73.2313 20.366 73.0785 20.4514C72.9256 20.5368 72.802 20.656 72.7076 20.8088C72.6177 20.9616 72.5728 21.1392 72.5728 21.3415V22.7574H72.2559V20.121H72.5323Z" fill="white"/>
<path d="M68.5039 21.4232C68.5039 21.1669 68.5646 20.9332 68.686 20.7219C68.8118 20.5107 68.9804 20.3443 69.1917 20.223C69.4074 20.0971 69.6479 20.0342 69.9131 20.0342C70.1828 20.0342 70.4233 20.0971 70.6346 20.223C70.8458 20.3443 71.0122 20.5107 71.1335 20.7219C71.2549 20.9332 71.3156 21.1669 71.3156 21.4232C71.3156 21.6794 71.2549 21.9131 71.1335 22.1244C71.0122 22.3357 70.8436 22.5042 70.6278 22.6301C70.4166 22.7515 70.1783 22.8121 69.9131 22.8121C69.6434 22.8121 69.4029 22.7537 69.1917 22.6368C68.9804 22.5155 68.8118 22.3514 68.686 22.1446C68.5646 21.9334 68.5039 21.6929 68.5039 21.4232ZM68.8208 21.4299C68.8208 21.6367 68.868 21.8255 68.9624 21.9963C69.0613 22.1626 69.1917 22.2952 69.3535 22.3941C69.5198 22.493 69.7041 22.5424 69.9064 22.5424C70.1087 22.5424 70.2907 22.493 70.4525 22.3941C70.6188 22.2952 70.7492 22.1626 70.8436 21.9963C70.9425 21.8255 70.9919 21.6367 70.9919 21.4299C70.9919 21.2231 70.9425 21.0366 70.8436 20.8703C70.7492 20.6995 70.6188 20.5646 70.4525 20.4657C70.2907 20.3623 70.1087 20.3106 69.9064 20.3106C69.6996 20.3106 69.5131 20.3646 69.3467 20.4725C69.1849 20.5758 69.0568 20.7129 68.9624 20.8838C68.868 21.0546 68.8208 21.2366 68.8208 21.4299Z" fill="white"/>
<path d="M67.6992 22.4403C67.5958 22.5032 67.4767 22.5639 67.3418 22.6224C67.207 22.6808 67.0586 22.7258 66.8968 22.7572C66.735 22.7932 66.5597 22.8112 66.3709 22.8112C66.0068 22.8112 65.6764 22.7482 65.3797 22.6224C65.0831 22.492 64.8291 22.3167 64.6178 22.0964C64.4065 21.8717 64.2425 21.6155 64.1256 21.3278C64.0132 21.0356 63.957 20.7254 63.957 20.3973C63.957 20.0467 64.0177 19.7208 64.1391 19.4196C64.2604 19.1185 64.4313 18.8555 64.6515 18.6307C64.8718 18.406 65.128 18.2307 65.4202 18.1048C65.7124 17.9789 66.0293 17.916 66.3709 17.916C66.6226 17.916 66.8586 17.9497 67.0789 18.0172C67.2991 18.0846 67.4992 18.1722 67.679 18.2801L67.5374 18.5835C67.38 18.4846 67.2025 18.4015 67.0047 18.3341C66.8069 18.2666 66.5979 18.2329 66.3776 18.2329C66.0944 18.2329 65.827 18.2891 65.5753 18.4015C65.3235 18.5094 65.101 18.6622 64.9077 18.86C64.7189 19.0533 64.5706 19.2803 64.4627 19.541C64.3548 19.8017 64.3009 20.0826 64.3009 20.3838C64.3009 20.6715 64.3481 20.9435 64.4425 21.1997C64.5414 21.4559 64.6807 21.6806 64.8605 21.8739C65.0448 22.0672 65.2651 22.2201 65.5213 22.3324C65.7775 22.4403 66.063 22.4943 66.3776 22.4943C66.6114 22.4943 66.8249 22.4628 67.0182 22.3999C67.216 22.3324 67.3913 22.2493 67.5441 22.1504L67.6992 22.4403Z" fill="white"/>
<path d="M60.5176 17.6338H60.8345V22.7582H60.5176V17.6338Z" fill="white"/>
<path d="M57.8388 22.8132C57.587 22.8132 57.3578 22.757 57.151 22.6446C56.9487 22.5278 56.7869 22.366 56.6655 22.1592C56.5487 21.9524 56.4902 21.7119 56.4902 21.4377C56.4902 21.1455 56.5532 20.8961 56.679 20.6893C56.8049 20.478 56.9757 20.3184 57.1915 20.2106C57.4072 20.0982 57.6522 20.042 57.9264 20.042C58.1602 20.042 58.3804 20.1117 58.5872 20.251C58.7985 20.3904 58.949 20.5657 59.0389 20.7769L58.9917 20.8713L59.0322 20.1229H59.3154V22.7593H58.9985V21.9434L59.0659 22.0648C59.0345 22.1547 58.9805 22.2446 58.9041 22.3345C58.8277 22.4199 58.7333 22.5008 58.6209 22.5772C58.513 22.6491 58.3917 22.7076 58.2568 22.7525C58.1264 22.793 57.9871 22.8132 57.8388 22.8132ZM57.9062 22.5435C58.104 22.5435 58.2815 22.5031 58.4389 22.4221C58.6007 22.3367 58.731 22.2199 58.8299 22.0715C58.9288 21.9232 58.985 21.7524 58.9985 21.5591V21.1815C58.9625 21.0152 58.8906 20.8668 58.7827 20.7365C58.6793 20.6061 58.5512 20.5027 58.3984 20.4263C58.2456 20.3499 58.0792 20.3117 57.8994 20.3117C57.7017 20.3117 57.5196 20.3589 57.3533 20.4533C57.187 20.5432 57.0544 20.6713 56.9555 20.8376C56.8566 21.0039 56.8071 21.1995 56.8071 21.4242C56.8071 21.631 56.8566 21.8198 56.9555 21.9906C57.0544 22.1569 57.187 22.2918 57.3533 22.3952C57.5241 22.4941 57.7084 22.5435 57.9062 22.5435Z" fill="white"/>
<path d="M54.8194 18.9629H55.1431V20.1563H55.9589V20.4126H55.1431V22.759H54.8194V20.4126H54.2598V20.1563H54.8194V18.9629Z" fill="white"/>
<path d="M53.044 20.1222H53.3609V22.7585H53.044V20.1222ZM52.9766 19.1512C52.9766 19.0883 53.0013 19.0366 53.0507 18.9961C53.1002 18.9512 53.1541 18.9287 53.2126 18.9287C53.2755 18.9287 53.3294 18.9512 53.3744 18.9961C53.4193 19.0366 53.4418 19.0883 53.4418 19.1512C53.4418 19.2186 53.4193 19.2748 53.3744 19.3198C53.3294 19.3602 53.2755 19.3805 53.2126 19.3805C53.1541 19.3805 53.1002 19.358 53.0507 19.313C53.0013 19.2681 52.9766 19.2141 52.9766 19.1512Z" fill="white"/>
<path d="M50.7123 22.8132C50.4605 22.8132 50.2245 22.748 50.0043 22.6177C49.784 22.4828 49.6222 22.3098 49.5188 22.0985L49.5728 21.9839V24.0269H49.2559V20.1027H49.539L49.5728 20.9657L49.5121 20.7702C49.629 20.5589 49.7998 20.3859 50.0245 20.251C50.2493 20.1117 50.4943 20.042 50.7595 20.042C51.0112 20.042 51.2382 20.1027 51.4405 20.224C51.6427 20.3454 51.8023 20.5117 51.9192 20.723C52.0406 20.9298 52.1012 21.168 52.1012 21.4377C52.1012 21.7029 52.0383 21.9412 51.9125 22.1524C51.7911 22.3592 51.6248 22.521 51.4135 22.6379C51.2067 22.7548 50.973 22.8132 50.7123 22.8132ZM50.6583 22.5502C50.8651 22.5502 51.0516 22.5008 51.218 22.4019C51.3888 22.303 51.5236 22.1704 51.6225 22.0041C51.7259 21.8333 51.7776 21.6445 51.7776 21.4377C51.7776 21.2264 51.7282 21.0377 51.6293 20.8713C51.5304 20.7005 51.3978 20.5657 51.2314 20.4668C51.0696 20.3679 50.8853 20.3184 50.6786 20.3184C50.4808 20.3184 50.301 20.3634 50.1391 20.4533C49.9773 20.5432 49.847 20.6646 49.7481 20.8174C49.6492 20.9702 49.5907 21.1433 49.5728 21.3366V21.5523C49.5862 21.7366 49.6424 21.9052 49.7413 22.058C49.8447 22.2109 49.9751 22.3322 50.1324 22.4221C50.2942 22.5075 50.4695 22.5502 50.6583 22.5502Z" fill="white"/>
<path d="M46.5809 22.8132C46.3292 22.8132 46.1 22.757 45.8932 22.6446C45.6909 22.5278 45.5291 22.366 45.4077 22.1592C45.2909 21.9524 45.2324 21.7119 45.2324 21.4377C45.2324 21.1455 45.2954 20.8961 45.4212 20.6893C45.5471 20.478 45.7179 20.3184 45.9337 20.2106C46.1494 20.0982 46.3944 20.042 46.6686 20.042C46.9023 20.042 47.1226 20.1117 47.3294 20.251C47.5406 20.3904 47.6912 20.5657 47.7811 20.7769L47.7339 20.8713L47.7744 20.1229H48.0576V22.7593H47.7407V21.9434L47.8081 22.0648C47.7766 22.1547 47.7227 22.2446 47.6463 22.3345C47.5699 22.4199 47.4755 22.5008 47.3631 22.5772C47.2552 22.6491 47.1338 22.7076 46.999 22.7525C46.8686 22.793 46.7293 22.8132 46.5809 22.8132ZM46.6484 22.5435C46.8462 22.5435 47.0237 22.5031 47.181 22.4221C47.3429 22.3367 47.4732 22.2199 47.5721 22.0715C47.671 21.9232 47.7272 21.7524 47.7407 21.5591V21.1815C47.7047 21.0152 47.6328 20.8668 47.5249 20.7365C47.4215 20.6061 47.2934 20.5027 47.1406 20.4263C46.9878 20.3499 46.8214 20.3117 46.6416 20.3117C46.4438 20.3117 46.2618 20.3589 46.0955 20.4533C45.9292 20.5432 45.7966 20.6713 45.6977 20.8376C45.5988 21.0039 45.5493 21.1995 45.5493 21.4242C45.5493 21.631 45.5988 21.8198 45.6977 21.9906C45.7966 22.1569 45.9292 22.2918 46.0955 22.3952C46.2663 22.4941 46.4506 22.5435 46.6484 22.5435Z" fill="white"/>
<path d="M44.4277 22.4403C44.3243 22.5032 44.2052 22.5639 44.0703 22.6224C43.9355 22.6808 43.7872 22.7258 43.6253 22.7572C43.4635 22.7932 43.2882 22.8112 43.0994 22.8112C42.7353 22.8112 42.4049 22.7482 42.1082 22.6224C41.8116 22.492 41.5576 22.3167 41.3463 22.0964C41.1351 21.8717 40.971 21.6155 40.8541 21.3278C40.7417 21.0356 40.6855 20.7254 40.6855 20.3973C40.6855 20.0467 40.7462 19.7208 40.8676 19.4196C40.989 19.1185 41.1598 18.8555 41.38 18.6307C41.6003 18.406 41.8565 18.2307 42.1487 18.1048C42.4409 17.9789 42.7578 17.916 43.0994 17.916C43.3511 17.916 43.5871 17.9497 43.8074 18.0172C44.0276 18.0846 44.2277 18.1722 44.4075 18.2801L44.2659 18.5835C44.1086 18.4846 43.931 18.4015 43.7332 18.3341C43.5354 18.2666 43.3264 18.2329 43.1061 18.2329C42.823 18.2329 42.5555 18.2891 42.3038 18.4015C42.0521 18.5094 41.8295 18.6622 41.6363 18.86C41.4475 19.0533 41.2991 19.2803 41.1912 19.541C41.0834 19.8017 41.0294 20.0826 41.0294 20.3838C41.0294 20.6715 41.0766 20.9435 41.171 21.1997C41.2699 21.4559 41.4093 21.6806 41.5891 21.8739C41.7734 22.0672 41.9936 22.2201 42.2498 22.3324C42.5061 22.4403 42.7915 22.4943 43.1061 22.4943C43.3399 22.4943 43.5534 22.4628 43.7467 22.3999C43.9445 22.3324 44.1198 22.2493 44.2726 22.1504L44.4277 22.4403Z" fill="white"/>
<defs>
<linearGradient id="paint0_linear_3484_4967" x1="13.5852" y1="14.0752" x2="20.8456" y2="24.3959" gradientUnits="userSpaceOnUse">
<stop stop-color="#014CE1"/>
<stop offset="1" stop-color="#0044C9"/>
</linearGradient>
<linearGradient id="paint1_linear_3484_4967" x1="21.4615" y1="11.5669" x2="21.3298" y2="25.8653" gradientUnits="userSpaceOnUse">
<stop stop-color="#004CE1"/>
<stop offset="1" stop-color="#4095FB"/>
</linearGradient>
<linearGradient id="paint2_linear_3484_4967" x1="12.8577" y1="11.9443" x2="7.50136" y2="8.35173" gradientUnits="userSpaceOnUse">
<stop stop-color="#2295FF"/>
<stop offset="0.48" stop-color="#53ABFF"/>
<stop offset="1" stop-color="#75BCFC"/>
</linearGradient>
</defs>
</svg>
