<svg width="21" height="21" viewBox="0 0 21 21" fill="none" xmlns="http://www.w3.org/2000/svg">
<g id="Group 48588">
<path id="Rectangle 7601" d="M0 10.5C0 8.17553 0 7.01329 0.23975 6.05616C0.956994 3.19276 3.19276 0.956994 6.05616 0.23975C7.01329 0 8.17553 0 10.5 0C12.8245 0 13.9867 0 14.9438 0.23975C17.8072 0.956994 20.043 3.19276 20.7603 6.05616C21 7.01329 21 8.17553 21 10.5C21 12.8245 21 13.9867 20.7603 14.9438C20.043 17.8072 17.8072 20.043 14.9438 20.7603C13.9867 21 12.8245 21 10.5 21C8.17553 21 7.01329 21 6.05616 20.7603C3.19276 20.043 0.956994 17.8072 0.23975 14.9438C0 13.9867 0 12.8245 0 10.5Z" fill="#ED6167"/>
<rect id="Rectangle 7606" x="6" y="6" width="9" height="9" rx="4.5" fill="white"/>
</g>
</svg>
