<svg width="21" height="22" viewBox="0 0 21 22" fill="none" xmlns="http://www.w3.org/2000/svg">
<g id="Group 48596">
<path id="Rectangle 7601" d="M0 11C0 8.67553 0 7.51329 0.23975 6.55616C0.956994 3.69276 3.19276 1.45699 6.05616 0.73975C7.01329 0.5 8.17553 0.5 10.5 0.5C12.8245 0.5 13.9867 0.5 14.9438 0.73975C17.8072 1.45699 20.043 3.69276 20.7603 6.55616C21 7.51329 21 8.67553 21 11C21 13.3245 21 14.4867 20.7603 15.4438C20.043 18.3072 17.8072 20.543 14.9438 21.2603C13.9867 21.5 12.8245 21.5 10.5 21.5C8.17553 21.5 7.01329 21.5 6.05616 21.2603C3.19276 20.543 0.956994 18.3072 0.23975 15.4438C0 14.4867 0 13.3245 0 11Z" fill="#0CAF60"/>
<rect id="Rectangle 7606" x="6" y="6.5" width="9" height="9" rx="4.5" fill="white"/>
</g>
</svg>
