<svg width="91" height="28" viewBox="0 0 91 28" fill="none" xmlns="http://www.w3.org/2000/svg">
<path d="M78.2266 26.801L82.4525 13.0931L78.2976 0.699219H82.0619L84.1571 7.30457L84.2636 7.80175H84.4057L84.5122 7.30457L86.6075 0.699219H90.3718L86.2168 13.0931L90.4428 26.801H86.6785L84.4767 19.0237L84.4057 18.5266H84.2636L84.1926 19.0237L81.9909 26.801H78.2266Z" fill="white"/>
<path d="M70.0267 27.0874C69.1981 27.0874 68.4819 26.6671 67.8782 25.8267C67.2745 24.9862 66.9727 23.7018 66.9727 21.9736C66.9727 20.3045 67.3278 18.9609 68.038 17.9429C68.7601 16.9248 69.8373 16.0429 71.2696 15.2972C71.7195 15.0604 72.0983 14.8473 72.406 14.6579C72.7138 14.4685 72.9032 14.291 72.9742 14.1253V11.9945C72.9742 11.5092 72.915 11.0948 72.7967 10.7516C72.6901 10.3964 72.4179 10.2189 71.9799 10.2189C71.5774 10.2189 71.3052 10.4083 71.1631 10.7871C71.0211 11.154 70.95 11.6157 70.95 12.1721V13.0954H67.3633V12.2786C67.3633 11.2132 67.5704 10.2958 67.9848 9.52637C68.4109 8.74509 68.985 8.14729 69.7071 7.73298C70.441 7.30683 71.2696 7.09375 72.193 7.09375C73.0808 7.09375 73.8502 7.30091 74.5013 7.71522C75.1523 8.1177 75.6554 8.67998 76.0105 9.40207C76.3775 10.1123 76.561 10.9291 76.561 11.8524V23.4296C76.561 24.2937 76.5846 24.9684 76.632 25.4538C76.6793 25.9273 76.7385 26.3771 76.8096 26.8033H73.2938C73.14 26.6139 73.0453 26.3357 73.0097 25.9687C72.9861 25.6018 72.9742 25.3591 72.9742 25.2407H72.7256C72.4297 25.7852 72.0509 26.2291 71.5892 26.5724C71.1394 26.9157 70.6186 27.0874 70.0267 27.0874ZM71.4827 23.5716C71.897 23.5716 72.2462 23.4296 72.5303 23.1455C72.8263 22.8614 72.9742 22.5536 72.9742 22.2221V17.6055C72.1101 17.9725 71.4768 18.5288 71.0743 19.2746C70.6837 20.0085 70.4884 20.8371 70.4884 21.7605C70.4884 22.163 70.5653 22.5654 70.7192 22.9679C70.8731 23.3704 71.1276 23.5716 71.4827 23.5716Z" fill="white"/>
<path d="M64.243 27.0819C63.1185 27.0819 62.2603 26.8333 61.6684 26.3361C61.0765 25.8389 60.6681 25.1287 60.4432 24.2053C60.2302 23.282 60.1236 22.1811 60.1236 20.9027V10.604H58.3125V7.37233H60.1236V2.57812H63.7104V7.37233H66.1785V10.604H63.7104V21.4176C63.7104 22.1752 63.8228 22.7375 64.0477 23.1044C64.2726 23.4596 64.6396 23.6371 65.1486 23.6371C65.3735 23.6371 65.5688 23.6194 65.7346 23.5839C65.9121 23.5483 66.0542 23.5069 66.1607 23.4596V26.7445C65.924 26.8392 65.6635 26.9161 65.3794 26.9753C65.1072 27.0463 64.7284 27.0819 64.243 27.0819Z" fill="white"/>
<path d="M53.6094 26.801V7.3756H57.1961V26.801H53.6094ZM53.6094 4.286V0.699219H57.1961V4.286H53.6094Z" fill="white"/>
<path d="M44.1922 26.801L40.2148 0.699219H43.9436L45.8613 16.1117L46.0033 18.6331H46.2164L46.3585 16.1117L48.2761 0.699219H52.0049L48.0275 26.801H44.1922Z" fill="white"/>
<path d="M29.6172 26.8033V7.37785H33.2039V9.01143C33.6301 8.59712 34.1095 8.17688 34.6422 7.75073C35.1749 7.31274 35.6661 7.09375 36.1159 7.09375C36.7078 7.09375 37.205 7.28315 37.6074 7.66195C38.0099 8.04075 38.3118 8.52017 38.513 9.10021C38.7142 9.68025 38.8149 10.278 38.8149 10.8936V26.8033H35.2281V11.6039C35.2281 11.2251 35.163 10.9587 35.0328 10.8048C34.9026 10.6509 34.6836 10.574 34.3758 10.574C34.1154 10.574 33.8905 10.6687 33.7011 10.8581C33.5235 11.0357 33.3578 11.2487 33.2039 11.4973V26.8033H29.6172Z" fill="white"/>
<path d="M24.0664 26.801V7.3756H27.6531V26.801H24.0664ZM24.0664 4.286V0.699219H27.6531V4.286H24.0664Z" fill="white"/>
<path d="M17.7082 27.0519C16.2759 27.0519 15.1513 26.5724 14.3345 25.6136C13.5178 24.6429 13.1094 23.4177 13.1094 21.938V12.2076C13.1094 10.7279 13.5178 9.50861 14.3345 8.54977C15.1513 7.57909 16.2759 7.09375 17.7082 7.09375C19.1287 7.09375 20.2473 7.57909 21.0641 8.54977C21.8927 9.50861 22.3071 10.7279 22.3071 12.2076V21.938C22.3071 23.4177 21.8927 24.6429 21.0641 25.6136C20.2473 26.5724 19.1287 27.0519 17.7082 27.0519ZM17.7082 23.9267C18.1699 23.9267 18.4895 23.7433 18.667 23.3763C18.8446 22.9975 18.9334 22.5181 18.9334 21.938V12.2076C18.9334 11.6157 18.8446 11.1363 18.667 10.7693C18.4895 10.4023 18.1699 10.2189 17.7082 10.2189C17.2466 10.2189 16.9269 10.4023 16.7494 10.7693C16.5718 11.1363 16.483 11.6157 16.483 12.2076V21.938C16.483 22.5299 16.5718 23.0093 16.7494 23.3763C16.9269 23.7433 17.2466 23.9267 17.7082 23.9267Z" fill="white"/>
<path d="M6.0122 27.088C4.92316 27.088 3.99392 26.8453 3.22449 26.36C2.4669 25.8628 1.88686 25.188 1.48439 24.3357C1.09376 23.4834 0.898438 22.5187 0.898438 21.4415V6.06448C0.898438 4.9991 1.09967 4.04026 1.50215 3.18796C1.91646 2.33565 2.50833 1.66091 3.27776 1.16373C4.04719 0.666557 4.95867 0.417969 6.0122 0.417969C6.80531 0.417969 7.51556 0.565938 8.14294 0.861876C8.77032 1.15781 9.30301 1.56621 9.74099 2.08706C10.1908 2.59608 10.5341 3.19387 10.7708 3.88045C11.0076 4.55519 11.126 5.2832 11.126 6.06448V9.65126H7.53923V6.06448C7.53923 5.51995 7.42677 5.06421 7.20186 4.69724C6.97695 4.33028 6.60407 4.1468 6.08323 4.1468C5.60973 4.1468 5.26645 4.3362 5.05337 4.715C4.8403 5.0938 4.73376 5.54363 4.73376 6.06448V21.4415C4.73376 21.9623 4.84622 22.4121 5.07113 22.7909C5.30788 23.1697 5.64524 23.3591 6.08323 23.3591C6.61591 23.3591 6.98879 23.1757 7.20186 22.8087C7.42677 22.4417 7.53923 21.986 7.53923 21.4415V17.8547H11.126V21.4415C11.126 22.5068 10.9188 23.4657 10.5045 24.318C10.0902 25.1703 9.49832 25.845 8.72889 26.3422C7.9713 26.8394 7.06573 27.088 6.0122 27.088Z" fill="white"/>
</svg>
