<svg width="197" height="113" viewBox="0 0 197 113" fill="none" xmlns="http://www.w3.org/2000/svg">
<path d="M131.09 82.1072L133.447 79.5352L136.984 73.9625L138.163 70.9619L138.806 67.854L139.127 64.5319L138.806 60.6739L137.734 57.0303L136.127 53.4938L133.983 50.2788L131.304 47.2781L128.089 44.4918L124.553 42.1341L120.587 40.098L116.086 38.3833L111.586 37.2045L106.656 36.4543L101.512 36.1328L96.2607 36.4543L91.4382 37.2045L86.8301 38.3833L82.4363 40.098L78.4711 42.1341L74.8274 44.4918L71.6125 47.2781L68.9333 50.2788L66.79 53.4938L65.1825 57.0303L64.218 60.6739L63.8965 64.5319L64.1108 67.854L64.861 70.9619L65.9326 73.9625L67.5401 76.856L71.934 82.1072H131.09Z" fill="url(#paint0_linear_215_5763)"/>
<path d="M0.144531 103.808L3.14519 91.8055L4.96702 86.2328L9.89667 73.1585L13.2188 66.1927L16.9696 59.4412L21.2563 53.0112L24.4713 49.0461L27.9006 45.5096L31.5443 42.2946L35.6166 39.5083L39.7961 37.365L44.2971 35.8646L47.8336 35.1145L51.4772 34.793L55.4424 35.0073L59.6219 35.6503L63.6942 36.722L67.9808 38.3295L72.6961 40.58L77.733 43.5806L98.7376 58.0481L103.989 61.1559L107.525 62.7634L110.847 63.6207L114.17 64.0494L118.028 63.835L125.208 62.4419L130.244 60.5129L143.962 54.1901L148.463 52.5826L152.964 51.6181L156.072 51.5109L159.287 51.8324L162.716 52.7969L165.931 54.2972L169.575 56.5477L173.647 59.8699L179.327 66.0855L182.006 69.7292L185.435 75.409L191.115 87.1973L193.151 92.3413L197.009 103.808H0.144531Z" fill="url(#paint1_linear_215_5763)"/>
<path opacity="0.7" d="M65.9322 12.529L72.6837 12.2075L74.2912 11.1359L74.7199 9.42122L74.3984 8.13522L73.7554 7.38506L72.898 7.06356L71.2905 6.95639L70.8619 5.13457L69.3615 2.77691L67.8612 1.81241L66.1466 1.16941L63.4674 0.955078L60.8954 1.38374L59.1807 2.13391L56.8231 4.3844L55.6443 7.70656L53.9296 8.24239L53.0723 9.84988L53.2866 11.0287L53.9296 11.7789L54.8941 12.3147L65.9322 12.529Z" fill="url(#paint2_linear_215_5763)"/>
<path opacity="0.7" d="M158.965 17.6371L160.251 19.3518L161.216 21.4951L161.752 23.8528L161.859 26.3176L163.252 25.9961L165.717 26.3176L166.896 26.9606L167.753 27.9251L167.967 29.1039L167.753 30.3899L167.003 31.4616L165.717 32.2117L163.681 32.5332L132.924 32.6404L131.424 32.1046L130.781 31.5687L130.566 30.3899L130.781 28.9968L131.531 28.2466L132.495 27.8179L134.532 27.7108L134.21 26.3176L134.424 25.1388L135.067 23.9599L136.139 23.1026L137.425 22.5668H138.711L141.39 23.9599L143.534 19.1375L144.605 17.53L145.998 16.1368L147.82 15.0651L151.035 14.5293L153.286 14.6365L155.429 15.2795L158.965 17.6371Z" fill="url(#paint3_linear_215_5763)"/>
<path d="M143.64 113L142.246 111.499L135.816 108.499L129.601 106.677L122.849 105.176L114.49 103.783L105.703 102.926L95.8433 102.604L86.0912 102.926L77.3035 103.783L68.9446 105.176L62.1931 106.677L55.9774 108.499L49.5475 111.499L48.1543 113H143.64Z" fill="url(#paint4_linear_215_5763)"/>
<path d="M129.924 93.9231H63.3735L61.0159 93.2801L59.3012 91.5655L58.6582 89.2078V85.0283H134.639V89.2078L133.996 91.5655L132.281 93.2801L129.924 93.9231Z" fill="url(#paint5_linear_215_5763)"/>
<path d="M129.924 93.8174H65.8384L63.4807 93.1744L61.766 91.4597L61.123 89.1021V86.8516H134.639L134.532 90.388L133.996 91.4597L132.282 93.1744L129.924 93.8174Z" fill="url(#paint6_linear_215_5763)"/>
<path d="M106.99 72.2759L107.419 68.9537L106.561 68.7394L105.918 68.2036L104.739 65.7388L104.096 63.1668L103.882 57.8084L105.275 52.6645L109.455 48.485L111.92 44.0912L113.098 39.3758L113.206 36.911L112.348 31.8742L110.098 27.266L108.597 25.337L104.739 22.2292L100.238 20.1931L97.7737 19.6572H92.6297L87.8072 21.1576L85.6639 22.3364L81.913 25.5514L79.1267 29.6237L77.5192 34.5534L77.4121 39.5902L78.6981 44.3055L81.1629 48.5921L85.4495 52.7716L86.414 55.3436L86.8427 57.9156L86.6284 63.1668L84.8065 68.2036L83.4134 68.9537H61.7658L60.5869 69.1681L59.5153 69.9182L58.8723 70.8827L58.5508 72.0616V79.6704L58.8723 80.8492L59.5153 81.9209L60.5869 82.5639L61.7658 82.7782H111.598L109.562 80.5277L108.169 77.9557L107.311 75.1694L106.99 72.2759Z" fill="url(#paint7_linear_215_5763)"/>
<path d="M109.777 72.2759L110.206 68.9537L109.349 68.7394L108.706 68.2036L107.634 65.7388L106.884 63.1668L106.67 57.8084L108.063 52.6645L112.349 48.485L114.814 44.0912L115.993 39.3758L116.1 36.911L115.136 31.8742L112.885 27.266L111.385 25.337L107.527 22.2292L103.026 20.1931L100.561 19.6572H95.417L90.5946 21.1576L88.4512 22.3364L84.7004 25.5514L81.9141 29.6237L80.3066 34.5534L80.1994 39.5902L81.4854 44.3055L84.0574 48.5921L88.2369 52.7716L89.2014 55.3436L89.7372 57.9156L89.4157 63.1668L87.5939 68.2036L86.2007 68.9537H64.5531L63.3743 69.1681L62.3026 69.9182L61.6596 70.8827L61.4453 72.0616V79.6704L61.6596 80.8492L62.3026 81.9209L63.3743 82.5639L64.5531 82.7782H114.385L112.456 80.5277L110.956 77.9557L110.099 75.1694L109.777 72.2759Z" fill="url(#paint8_linear_215_5763)"/>
<path d="M138.497 71.3121L138.283 74.0984L137.533 76.6704L136.461 79.0281L134.961 81.1714L133.139 82.9932L130.996 84.6007L128.531 85.6724L126.066 86.4226L123.173 86.6369L120.386 86.4226L117.814 85.6724L115.457 84.6007L113.313 82.9932L111.492 81.1714L109.991 79.0281L108.92 76.6704L108.169 74.0984L107.955 71.3121L108.169 68.5258L108.92 65.9538L109.991 63.5961L111.492 61.4528L113.313 59.631L115.457 58.1306L117.814 56.9518L120.386 56.3088L123.173 55.9873L126.066 56.3088L128.531 56.9518L130.996 58.1306L133.139 59.631L134.961 61.4528L136.461 63.5961L137.533 65.9538L138.283 68.5258L138.497 71.3121Z" fill="url(#paint9_linear_215_5763)"/>
<path d="M138.498 72.277L138.283 74.849L137.64 77.3139L135.176 81.4933L131.425 84.7083L129.174 85.78L126.709 86.423L124.137 86.6373L121.458 86.423L119.101 85.78L114.814 83.208L111.706 79.5643L110.634 77.3139L109.991 74.849L109.67 72.277L109.991 69.5979L110.634 67.2402L113.099 62.9536L116.85 59.8457L119.101 58.7741L121.458 58.1311L124.137 57.8096L126.709 58.1311L129.174 58.7741L131.425 59.8457L135.176 62.9536L137.64 67.2402L138.283 69.5979L138.498 72.277Z" fill="url(#paint10_linear_215_5763)"/>
<path d="M127.674 72.2761L130.353 69.4898L130.996 68.5253V67.3465L130.353 66.2748L129.389 65.6318L128.21 65.739L127.138 66.2748L124.459 69.0612L120.923 65.739L119.208 65.8462L118.029 67.025V68.7397L121.244 72.2761L118.458 74.9553L117.922 76.027V77.2058L118.458 78.1703L119.529 78.8133H120.708L121.673 78.1703L124.459 75.4911L127.138 78.1703L128.21 78.8133H129.389L130.46 78.2775L130.996 77.2058V76.027L130.353 74.9553L127.674 72.2761Z" fill="url(#paint11_linear_215_5763)"/>
<defs>
<linearGradient id="paint0_linear_215_5763" x1="101.512" y1="3.38751" x2="101.512" y2="59.12" gradientUnits="userSpaceOnUse">
<stop stop-color="#FFE0E1"/>
<stop offset="1" stop-color="white" stop-opacity="0"/>
</linearGradient>
<linearGradient id="paint1_linear_215_5763" x1="98.5768" y1="-38.8478" x2="98.5768" y2="101.986" gradientUnits="userSpaceOnUse">
<stop stop-color="#FFE0E1" stop-opacity="0.8"/>
<stop offset="1" stop-color="white" stop-opacity="0"/>
</linearGradient>
<linearGradient id="paint2_linear_215_5763" x1="63.8961" y1="-9.82103" x2="63.8961" y2="11.6147" gradientUnits="userSpaceOnUse">
<stop stop-color="#FFE0E1"/>
<stop offset="1" stop-color="white" stop-opacity="0"/>
</linearGradient>
<linearGradient id="paint3_linear_215_5763" x1="149.267" y1="3.94879" x2="149.267" y2="31.6819" gradientUnits="userSpaceOnUse">
<stop stop-color="#FFE0E1" stop-opacity="0.8"/>
<stop offset="1" stop-color="white" stop-opacity="0"/>
</linearGradient>
<linearGradient id="paint4_linear_215_5763" x1="95.8969" y1="85.8609" x2="95.8969" y2="110.702" gradientUnits="userSpaceOnUse">
<stop stop-color="#FFE0E0"/>
<stop offset="0.6" stop-color="white" stop-opacity="0.502"/>
<stop offset="1" stop-color="white" stop-opacity="0"/>
</linearGradient>
<linearGradient id="paint5_linear_215_5763" x1="96.6487" y1="85.0283" x2="96.6487" y2="93.9231" gradientUnits="userSpaceOnUse">
<stop stop-color="#FFB5B5"/>
<stop offset="0.246" stop-color="#FFD1D1"/>
<stop offset="0.92" stop-color="#FFC9C9"/>
<stop offset="1" stop-color="#FFC1C1"/>
</linearGradient>
<linearGradient id="paint6_linear_215_5763" x1="134.639" y1="90.3345" x2="61.123" y2="90.3345" gradientUnits="userSpaceOnUse">
<stop stop-color="#FF6C6C"/>
<stop offset="0.153" stop-color="#FF6C6C"/>
<stop offset="0.453" stop-color="#FF6C6C"/>
<stop offset="1" stop-color="#FFC3C3"/>
</linearGradient>
<linearGradient id="paint7_linear_215_5763" x1="112.331" y1="81.9576" x2="63.622" y2="45.557" gradientUnits="userSpaceOnUse">
<stop stop-color="#FFD0D0"/>
<stop offset="0.112" stop-color="#FFB5B5"/>
<stop offset="0.92" stop-color="#FFC7C7"/>
<stop offset="1" stop-color="#FFCBCB"/>
</linearGradient>
<linearGradient id="paint8_linear_215_5763" x1="73.852" y1="30.8928" x2="113.368" y2="82.0448" gradientUnits="userSpaceOnUse">
<stop stop-color="#FFF4F4"/>
<stop offset="1" stop-color="#FF6C6C"/>
</linearGradient>
<linearGradient id="paint9_linear_215_5763" x1="123.226" y1="86.6369" x2="123.226" y2="55.9873" gradientUnits="userSpaceOnUse">
<stop stop-color="#FFC1C1"/>
<stop offset="1" stop-color="#FFB9B9"/>
</linearGradient>
<linearGradient id="paint10_linear_215_5763" x1="116.877" y1="59.741" x2="131.291" y2="84.7059" gradientUnits="userSpaceOnUse">
<stop stop-color="#FFE6E6"/>
<stop offset="0.519" stop-color="#FFD4D4"/>
<stop offset="1" stop-color="#FFC3C3"/>
</linearGradient>
<linearGradient id="paint11_linear_215_5763" x1="117.922" y1="72.2226" x2="130.996" y2="72.2226" gradientUnits="userSpaceOnUse">
<stop stop-color="#FCB2B2"/>
<stop offset="1" stop-color="#FF6C6C"/>
</linearGradient>
</defs>
</svg>
