<svg width="159" height="129" viewBox="0 0 159 129" fill="none" xmlns="http://www.w3.org/2000/svg">
<g id="Group 9128">
<g id="Group 9127">
<path id="Vector" opacity="0.1" fill-rule="evenodd" clip-rule="evenodd" d="M99.6057 126.429L131.436 108.852C136.194 106.225 134.635 99.0226 129.21 98.5964L98.4609 96.1816L99.6057 126.429Z" fill="white"/>
<path id="Vector_2" fill-rule="evenodd" clip-rule="evenodd" d="M124.743 14.5555L120.635 11.4121L118.891 13.6948L79.1608 11.4037C79.1608 11.4037 72.2706 10.5497 67.187 17.7156L44.4594 108.606C44.2615 109.603 44.1458 110.615 44.1135 111.631L38.6338 114.899L41.9761 119.579C43.1459 121.25 46.2091 123.098 48.6607 123.422L91.1078 128.101C91.1078 128.101 103.641 128.77 106.649 117.908L127.706 27.6489C127.706 27.6489 129.21 21.4657 126.89 17.1307C126.394 16.2016 125.645 15.0986 124.743 14.5555Z" fill="#5268FD"/>
<path id="Vector_3" fill-rule="evenodd" clip-rule="evenodd" d="M73.5006 7.61133C73.5006 7.61133 65.0379 7.77844 62.0299 15.9671L37.7448 104.817C37.7448 104.817 34.4559 116.904 44.787 118.702L88.6479 123.756C88.6479 123.756 99.2964 125.093 102.533 114.919L123.993 24.0287C123.993 24.0287 127.141 12.5613 117.682 10.1414L73.5006 7.61133Z" fill="#6284FF"/>
<path id="Vector_4" fill-rule="evenodd" clip-rule="evenodd" d="M75.6548 11.4379C75.6548 11.4379 68.2132 10.1177 65.7065 18.3063L43.0123 102.664C43.0123 102.664 39.3024 113.729 48.6758 114.827L86.4287 118.702C86.4287 118.702 96.2083 118.212 98.5328 110.925L119.517 23.8211C119.517 23.8211 122.358 13.9613 113 13.6605L75.6548 11.4379Z" fill="#F8F9FF"/>
<path id="Vector_5" fill-rule="evenodd" clip-rule="evenodd" d="M88.6767 101.513L55.9373 98.0935C55.268 98.0751 54.6333 97.7918 54.1727 97.3058C53.7121 96.8198 53.4632 96.1709 53.4807 95.5015C53.5192 94.1078 54.6806 93.451 56.0743 93.0449L88.8138 96.4658C89.1505 96.4667 89.4837 96.5351 89.7936 96.6667C90.1035 96.7984 90.384 96.9907 90.6185 97.2324C90.8531 97.474 91.0369 97.7602 91.1591 98.0739C91.2814 98.3877 91.3397 98.7228 91.3306 99.0594C91.3214 99.396 91.245 99.7274 91.1059 100.034C90.9668 100.341 90.7677 100.616 90.5205 100.845C90.2732 101.074 89.9827 101.25 89.666 101.365C89.3494 101.48 89.013 101.53 88.6767 101.513ZM88.4695 109.085C88.4344 110.478 87.2646 111.576 86.0948 111.54L53.5425 108.119C51.7427 108.082 50.725 107.266 51.1027 105.527C50.72 104.133 51.8814 103.035 53.2752 103.072L86.0146 106.491C86.3461 106.5 86.6725 106.574 86.9753 106.71C87.2781 106.845 87.5513 107.038 87.7792 107.279C88.0072 107.52 88.1855 107.804 88.3039 108.113C88.4224 108.423 88.4786 108.753 88.4695 109.085Z" fill="#B3C3FF"/>
<path id="Vector_6" opacity="0.1" fill-rule="evenodd" clip-rule="evenodd" d="M49.1806 29.1125C49.1806 29.1125 41.0722 26.7044 37.8168 35.4244L26.453 72.0325C26.453 72.0325 24.2287 81.1135 31.8993 82.1313L87.0471 87.6678C87.0471 87.6678 94.7628 88.861 97.1475 80.8695L107.248 41.7363C107.248 41.7363 111.249 32.5885 100.938 31.6376L49.1806 29.1125Z" fill="#91A0FF"/>
<path id="Vector_7" fill-rule="evenodd" clip-rule="evenodd" d="M44.2715 23.9996C39.2024 23.7327 35.7715 23.4996 33.1025 30.3385L23.0054 66.9466C23.0054 66.9466 20.7828 76.0277 28.0556 77.0454L82.3361 82.0956C82.3361 82.0956 90.0501 83.7768 92.7156 75.9892L102.534 36.6504C102.534 36.6504 106.533 28.0775 96.2216 26.5517C96.2216 26.5517 63.2715 24.9998 44.2715 23.9996Z" fill="url(#paint0_linear_42_3946)"/>
<path id="Vector_8" fill-rule="evenodd" clip-rule="evenodd" d="M47.4411 46.8011L56.218 54.7039C56.4931 54.9512 56.8436 55.0983 57.2128 55.1213C57.5819 55.1444 57.9481 55.042 58.2518 54.8309L83.4861 37.2839C83.4861 37.2839 85.7605 36.0205 86.7632 36.9797C87.2445 37.441 87.7659 38.5272 86.1098 40.1783L60.4209 64.0022C60.4209 64.0022 55.0114 67.9394 52.2106 63.6429L44.5868 49.4482C44.5868 49.4482 43.5524 47.5029 44.9845 46.5487C45.9872 45.8803 46.6557 46.0474 47.4411 46.8011Z" fill="white"/>
</g>
<rect id="Rectangle 8544" x="132.271" y="6.36426" width="9" height="9" transform="rotate(-45 132.271 6.36426)" fill="white"/>
<rect id="Rectangle 8546" x="13.2715" y="98.3643" width="9" height="9" transform="rotate(-45 13.2715 98.3643)" fill="white"/>
<rect id="Rectangle 8545" x="151.271" y="40.7275" width="5.27215" height="5.27215" transform="rotate(-45 151.271 40.7275)" fill="white"/>
<rect id="Rectangle 8547" y="69.7275" width="4.24272" height="4.24272" transform="rotate(-45 0 69.7275)" fill="white"/>
<rect id="Rectangle 8548" x="128.271" y="77" width="3.83" height="3.83" transform="rotate(-45 128.271 77)" fill="white"/>
<rect id="Rectangle 8549" x="41.2715" y="8" width="2.8285" height="2.8285" transform="rotate(-45 41.2715 8)" fill="white"/>
</g>
<defs>
<linearGradient id="paint0_linear_42_3946" x1="19.5505" y1="53.0739" x2="103.297" y2="53.0739" gradientUnits="userSpaceOnUse">
<stop stop-color="#6384FF"/>
<stop offset="1" stop-color="#5167FE"/>
</linearGradient>
</defs>
</svg>
