<svg width="151" height="125" viewBox="0 0 151 125" fill="none" xmlns="http://www.w3.org/2000/svg">
<g id="&#231;&#148;&#187;&#230;&#157;&#191; 1" opacity="0.6">
<g id="&#231;&#187;&#132; 1">
<path id="&#233;&#152;&#180;&#229;&#189;&#177;" fill-rule="evenodd" clip-rule="evenodd" d="M15.1953 84.1622L75.9809 63.5654L108.886 93.4558L61.6636 104.257L15.1953 84.1622Z" fill="url(#paint0_linear_1_2780)"/>
<path id="&#229;&#156;&#134;&#232;&#167;&#146;&#231;&#159;&#169;&#229;&#189;&#162; 1" fill-rule="evenodd" clip-rule="evenodd" d="M5.24688 91.585C5.40676 91.585 5.56009 91.6485 5.67314 91.7615C5.7862 91.8746 5.84971 92.0279 5.84971 92.1878V96.64C5.84971 96.7998 5.7862 96.9532 5.67314 97.0662C5.56009 97.1793 5.40676 97.2428 5.24688 97.2428C5.087 97.2428 4.93366 97.1793 4.82061 97.0662C4.70756 96.9532 4.64404 96.7998 4.64404 96.64V92.1878C4.64404 92.0279 4.70756 91.8746 4.82061 91.7615C4.93366 91.6485 5.087 91.585 5.24688 91.585Z" fill="#B3B3B3"/>
<path id="&#230;&#164;&#173;&#229;&#156;&#134; 7" fill-rule="evenodd" clip-rule="evenodd" d="M5.21221 79C7.8069 79 9.4991 82.8702 9.90928 86.1569C10.3159 89.4076 9.31348 92.1083 5.21221 92.1083C0.972785 92.1083 0.135097 89.4124 0.515132 86.1569C0.92531 82.625 2.61751 79 5.21221 79Z" fill="url(#paint1_linear_1_2780)"/>
<path id="Union" fill-rule="evenodd" clip-rule="evenodd" d="M133.115 118.293C128.947 118.04 128.116 115.808 128.527 113.146C128.663 112.239 128.942 111.36 129.353 110.541C129.14 109.793 129.14 109 129.353 108.252C130.079 105.156 132.382 103 133.964 103C135.612 103 137.849 105.286 138.575 108.252C138.798 109.013 138.768 109.825 138.49 110.568C138.911 111.376 139.201 112.246 139.349 113.146C139.796 115.842 138.763 118.104 134.557 118.303V123.427C134.557 123.587 134.493 123.74 134.38 123.853C134.267 123.966 134.114 124.03 133.954 124.03H133.718C133.558 124.03 133.405 123.966 133.292 123.853C133.179 123.74 133.115 123.587 133.115 123.427V118.293Z" fill="url(#paint2_linear_1_2780)"/>
<path id="&#229;&#164;&#154;&#232;&#190;&#185;&#229;&#189;&#162; 2" fill-rule="evenodd" clip-rule="evenodd" d="M29.4725 74.257C29.4022 73.9418 29.241 73.6542 29.0088 73.4298C28.7766 73.2053 28.4837 73.0539 28.1664 72.9943C27.4786 72.8349 27.4758 72.6637 28.1578 72.4806C28.473 72.4103 28.7606 72.2491 28.9851 72.0169C29.2095 71.7848 29.3609 71.4919 29.4205 71.1745C29.5799 70.4864 29.7512 70.4835 29.9342 71.1657C30.0044 71.4809 30.1657 71.7686 30.3978 71.993C30.63 72.2174 30.9229 72.3688 31.2403 72.4284C31.9284 72.5881 31.9313 72.7594 31.2491 72.9421C30.9339 73.0123 30.6463 73.1735 30.4218 73.4057C30.1974 73.6379 30.046 73.9308 29.9864 74.2482C29.8265 74.9361 29.6552 74.939 29.4725 74.257Z" fill="#CCCCCC"/>
<path id="&#229;&#164;&#154;&#232;&#190;&#185;&#229;&#189;&#162; 2_2" fill-rule="evenodd" clip-rule="evenodd" d="M29.3573 74.0487C29.2871 73.7334 29.126 73.4458 28.8938 73.2213C28.6616 72.9968 28.3686 72.8455 28.0512 72.786C27.3632 72.6262 27.3602 72.455 28.0424 72.2723C28.3576 72.2021 28.6453 72.0409 28.8697 71.8087C29.0942 71.5765 29.2456 71.2836 29.3051 70.9662C29.4649 70.2785 29.6362 70.2756 29.819 70.9576C29.8893 71.2728 30.0504 71.5605 30.2826 71.785C30.5148 72.0094 30.8078 72.1608 31.1252 72.2203C31.8129 72.3797 31.8158 72.551 31.1339 72.734C30.8187 72.8042 30.5311 72.9654 30.3066 73.1976C30.0822 73.4298 29.9308 73.7227 29.8713 74.0401C29.7115 74.7273 29.5402 74.7302 29.3573 74.0487Z" fill="url(#paint3_radial_1_2780)"/>
<path id="&#229;&#164;&#154;&#232;&#190;&#185;&#229;&#189;&#162; 2_3" fill-rule="evenodd" clip-rule="evenodd" d="M148.281 80.7882C148.211 80.4731 148.049 80.1855 147.817 79.961C147.585 79.7366 147.292 79.5852 146.975 79.5256C146.287 79.3661 146.284 79.1949 146.966 79.0119C147.281 78.9416 147.569 78.7803 147.793 78.5482C148.018 78.316 148.169 78.0231 148.229 77.7058C148.388 77.0177 148.56 77.0148 148.743 77.697C148.813 78.0122 148.974 78.2998 149.206 78.5242C149.438 78.7487 149.731 78.9001 150.049 78.9596C150.737 79.1194 150.74 79.2906 150.057 79.4733C149.742 79.5436 149.455 79.7048 149.23 79.937C149.006 80.1691 148.854 80.4621 148.795 80.7794C148.635 81.4673 148.464 81.4703 148.281 80.7882Z" fill="#CCCCCC"/>
<path id="&#229;&#164;&#154;&#232;&#190;&#185;&#229;&#189;&#162; 2_4" fill-rule="evenodd" clip-rule="evenodd" d="M148.166 80.5809C148.096 80.2657 147.935 79.978 147.702 79.7535C147.47 79.5291 147.177 79.3777 146.86 79.3182C146.172 79.1585 146.169 78.9872 146.851 78.8045C147.166 78.7343 147.454 78.5731 147.678 78.3409C147.903 78.1088 148.054 77.8158 148.114 77.4984C148.274 76.8107 148.445 76.8078 148.628 77.4899C148.698 77.8051 148.859 78.0927 149.091 78.3172C149.324 78.5416 149.616 78.693 149.934 78.7525C150.622 78.912 150.625 79.0832 149.943 79.2662C149.627 79.3364 149.34 79.4976 149.115 79.7298C148.891 79.962 148.74 80.2549 148.68 80.5723C148.52 81.2596 148.349 81.2624 148.166 80.5809Z" fill="url(#paint4_radial_1_2780)"/>
<path id="&#229;&#164;&#154;&#232;&#190;&#185;&#229;&#189;&#162; 2_5" fill-rule="evenodd" clip-rule="evenodd" d="M141.341 72.3341C141.293 72.1209 141.184 71.9264 141.027 71.7746C140.87 71.6229 140.672 71.5204 140.458 71.48C139.992 71.3724 139.99 71.2566 140.452 71.1327C140.665 71.0851 140.859 70.9761 141.011 70.8191C141.163 70.662 141.265 70.4639 141.306 70.2493C141.414 69.7841 141.53 69.7822 141.653 70.2435C141.701 70.4567 141.81 70.6512 141.967 70.803C142.124 70.9548 142.322 71.0572 142.537 71.0975C143.002 71.2055 143.004 71.3213 142.542 71.4449C142.329 71.4925 142.135 71.6016 141.983 71.7586C141.831 71.9156 141.729 72.1137 141.688 72.3283C141.58 72.7938 141.465 72.7957 141.341 72.3341Z" fill="url(#paint5_radial_1_2780)"/>
<path id="&#229;&#189;&#162;&#231;&#138;&#182; 1" fill-rule="evenodd" clip-rule="evenodd" d="M43.7295 89.3403L43.7692 51.498L97.3062 46.5327L97.2665 84.375L43.7295 89.3403Z" fill="url(#paint6_linear_1_2780)"/>
<path id="&#229;&#189;&#162;&#231;&#138;&#182; 3" fill-rule="evenodd" clip-rule="evenodd" d="M43.698 51.519L97.6422 46.6503L88.5568 34.3257L34.4126 38.755L43.698 51.519Z" fill="url(#paint7_linear_1_2780)"/>
<path id="&#229;&#189;&#162;&#231;&#138;&#182; 1_2" fill-rule="evenodd" clip-rule="evenodd" d="M97.2671 84.375L97.3063 46.5327L115.385 61.4325L115.345 99.2747L97.2671 84.375Z" fill="url(#paint8_linear_1_2780)"/>
<path id="&#229;&#189;&#162;&#231;&#138;&#182; 1_3" fill-rule="evenodd" clip-rule="evenodd" d="M61.6802 104.312L61.7199 66.4693L115.646 61.4673L115.606 99.3108L61.6802 104.312Z" fill="url(#paint9_linear_1_2780)"/>
<path id="&#229;&#189;&#162;&#231;&#138;&#182; 1_4" fill-rule="evenodd" clip-rule="evenodd" d="M43.4695 89.2996L43.5092 51.457L61.7197 66.465L61.68 104.307L43.4695 89.2996Z" fill="url(#paint10_linear_1_2780)"/>
<path id="&#229;&#189;&#162;&#231;&#138;&#182; 4" d="M70.9575 70.598C70.9575 70.598 89.8857 55.9291 81.5071 49.75C73.1285 43.571 71.7394 50.1677 72.2134 53.2665C72.6874 56.3654 85.7387 56.3975 85.7771 46.7359C85.8274 34.1821 104.616 15.3384 104.616 15.3384" stroke="url(#paint11_linear_1_2780)" stroke-width="3" stroke-dasharray="12 6"/>
<path id="&#229;&#189;&#162;&#231;&#138;&#182; 3_2" fill-rule="evenodd" clip-rule="evenodd" d="M115.234 61.7954L97.1392 46.7497L106.804 39.9907L125.105 54.5991L115.234 61.7954Z" fill="url(#paint12_linear_1_2780)"/>
<path id="&#229;&#189;&#162;&#231;&#138;&#182; 3_3" fill-rule="evenodd" clip-rule="evenodd" d="M53.7513 79.2338L35.6558 64.1881L43.4697 51.542L61.7707 66.1506L53.7513 79.2338Z" fill="url(#paint13_linear_1_2780)"/>
<path id="&#229;&#189;&#162;&#231;&#138;&#182; 3_4" fill-rule="evenodd" clip-rule="evenodd" d="M53.7513 79.2338L35.6558 64.1881L43.4697 51.542L61.7707 66.1506L53.7513 79.2338Z" fill="url(#paint14_linear_1_2780)"/>
<path id="&#229;&#189;&#162;&#231;&#138;&#182; 3_5" fill-rule="evenodd" clip-rule="evenodd" d="M69.4298 79.2008L123.303 73.5316L115.492 60.8857L61.4104 66.1186L69.4298 79.2008Z" fill="url(#paint15_linear_1_2780)"/>
<path id="&#229;&#189;&#162;&#231;&#138;&#182; 5" fill-rule="evenodd" clip-rule="evenodd" d="M122.038 0L104.561 15.7015L101.538 15.9733L122.038 0Z" fill="white"/>
<path id="&#229;&#189;&#162;&#231;&#138;&#182; 5_2" fill-rule="evenodd" clip-rule="evenodd" d="M122.038 0L104.561 15.7015L101.538 15.9733L122.038 0Z" fill="url(#paint16_linear_1_2780)"/>
<path id="&#229;&#189;&#162;&#231;&#138;&#182; 6" fill-rule="evenodd" clip-rule="evenodd" d="M101.538 15.9712L98.5874 13.5799L121.718 0.151855" fill="url(#paint17_linear_1_2780)"/>
<path id="&#229;&#189;&#162;&#231;&#138;&#182; 6_2" fill-rule="evenodd" clip-rule="evenodd" d="M103.862 18.3533L106.876 22.8745L121.947 0.519531" fill="url(#paint18_linear_1_2780)"/>
<path id="&#229;&#189;&#162;&#231;&#138;&#182; 5_3" fill-rule="evenodd" clip-rule="evenodd" d="M104.36 15.6719L103.739 18.6429L121.552 0.624512" fill="white"/>
<path id="&#229;&#189;&#162;&#231;&#138;&#182; 5_4" fill-rule="evenodd" clip-rule="evenodd" d="M104.36 15.6719L103.739 18.6429L121.552 0.624512" fill="url(#paint19_linear_1_2780)"/>
<path id="&#230;&#164;&#173;&#229;&#156;&#134; 9" fill-rule="evenodd" clip-rule="evenodd" d="M49.592 24.7153C48.9559 25.4942 48.6061 26.4676 48.601 27.4732C48.5959 28.4788 48.9357 29.4558 49.5638 30.2411C50.1919 31.0265 51.0703 31.5727 52.0524 31.7887C53.0345 32.0047 54.0611 31.8774 54.9607 31.4281C54.4487 31.7158 53.8843 31.898 53.3007 31.9639C52.7171 32.0299 52.1263 31.9782 51.563 31.8119C50.9997 31.6457 50.4755 31.3683 50.0212 30.996C49.567 30.6238 49.1919 30.1643 48.9182 29.6447C48.6445 29.1251 48.4777 28.5559 48.4276 27.9708C48.3776 27.3856 48.4453 26.7964 48.6267 26.2378C48.8082 25.6793 49.0998 25.1628 49.4842 24.7188C49.8686 24.2748 50.3381 23.9123 50.865 23.6528C50.3769 23.9227 49.9448 24.2834 49.592 24.7153Z" fill="#CCCCCC"/>
<path id="&#230;&#164;&#173;&#229;&#156;&#134; 9_2" d="M52.9982 31.8865C55.4258 31.8865 57.3938 29.9185 57.3938 27.4909C57.3938 25.0632 55.4258 23.0952 52.9982 23.0952C50.5705 23.0952 48.6025 25.0632 48.6025 27.4909C48.6025 29.9185 50.5705 31.8865 52.9982 31.8865Z" fill="url(#paint20_linear_1_2780)"/>
<path id="&#230;&#164;&#173;&#229;&#156;&#134; 11" fill-rule="evenodd" clip-rule="evenodd" d="M45.2765 23.2544C44.6842 24.3644 47.7448 27.1527 52.1123 29.4837C55.9129 31.5109 59.4498 32.5229 60.6941 32.0188C59.6414 32.7151 55.936 31.7074 51.938 29.5748C47.5705 27.2451 44.5099 24.4568 45.1021 23.3456C45.1917 23.1928 45.3329 23.077 45.5003 23.019C45.4071 23.0774 45.3301 23.1584 45.2765 23.2544Z" fill="#CCCCCC"/>
<path id="&#229;&#189;&#162;&#231;&#138;&#182; 15" fill-rule="evenodd" clip-rule="evenodd" d="M52.1121 29.4778C47.7446 27.1481 44.6839 24.3597 45.2762 23.2485C45.8685 22.1373 49.8886 23.1269 54.2561 25.4566C58.6237 27.7863 61.6841 30.5747 61.092 31.6859C60.5 32.7971 56.4793 31.8072 52.1121 29.4778ZM60.0579 30.9175C60.5161 30.0585 57.8503 27.7421 54.1049 25.7432C50.3596 23.7443 46.9498 22.8212 46.4917 23.6803C46.0335 24.5393 48.6993 26.8557 52.4446 28.8546C56.19 30.8535 59.5998 31.7766 60.0579 30.9175ZM50.8534 23.6313L50.1564 23.996L50.1644 24.4358L57.3575 27.9983L57.4243 26.8532L50.8534 23.6313Z" fill="url(#paint21_linear_1_2780)"/>
</g>
</g>
<defs>
<linearGradient id="paint0_linear_1_2780" x1="79.7265" y1="104.257" x2="44.3543" y2="63.5654" gradientUnits="userSpaceOnUse">
<stop stop-color="#CCCCCC"/>
<stop offset="1" stop-color="#E6E6E6" stop-opacity="0"/>
</linearGradient>
<linearGradient id="paint1_linear_1_2780" x1="0.430736" y1="90.3395" x2="9.99918" y2="80.771" gradientUnits="userSpaceOnUse">
<stop stop-color="#D7D7D7"/>
<stop offset="0.485" stop-color="#FAFAFA"/>
<stop offset="1" stop-color="#FAFAFA"/>
</linearGradient>
<linearGradient id="paint2_linear_1_2780" x1="128.433" y1="116.162" x2="139.446" y2="105.15" gradientUnits="userSpaceOnUse">
<stop stop-color="#CCCCCC"/>
<stop offset="1" stop-color="#FAFAFA"/>
</linearGradient>
<radialGradient id="paint3_radial_1_2780" cx="0" cy="0" r="1" gradientUnits="userSpaceOnUse" gradientTransform="translate(29.5869 72.5034) scale(2.05264 2.05264)">
<stop stop-color="#FAFAFA"/>
<stop offset="1" stop-color="#E6E6E6"/>
</radialGradient>
<radialGradient id="paint4_radial_1_2780" cx="0" cy="0" r="1" gradientUnits="userSpaceOnUse" gradientTransform="translate(148.396 79.0356) scale(2.05265 2.05264)">
<stop stop-color="#FAFAFA"/>
<stop offset="1" stop-color="#E6E6E6"/>
</radialGradient>
<radialGradient id="paint5_radial_1_2780" cx="0" cy="0" r="1" gradientUnits="userSpaceOnUse" gradientTransform="translate(141.5 71.2917) scale(1.38928 1.38928)">
<stop stop-color="#FAFAFA"/>
<stop offset="1" stop-color="#E6E6E6"/>
</radialGradient>
<linearGradient id="paint6_linear_1_2780" x1="75.8537" y1="89.3388" x2="65.1821" y2="46.5362" gradientUnits="userSpaceOnUse">
<stop stop-color="#999999"/>
<stop offset="1" stop-color="#CCCCCC"/>
</linearGradient>
<linearGradient id="paint7_linear_1_2780" x1="57.433" y1="51.519" x2="74.6233" y2="34.3289" gradientUnits="userSpaceOnUse">
<stop stop-color="#CCCCCC"/>
<stop offset="1" stop-color="#F0F0F0"/>
</linearGradient>
<linearGradient id="paint8_linear_1_2780" x1="112.902" y1="99.276" x2="99.752" y2="46.5362" gradientUnits="userSpaceOnUse">
<stop stop-color="#999999"/>
<stop offset="1" stop-color="#CCCCCC"/>
</linearGradient>
<linearGradient id="paint9_linear_1_2780" x1="67.2373" y1="104.314" x2="110.087" y2="61.4642" gradientUnits="userSpaceOnUse">
<stop stop-color="#B3B3B3"/>
<stop offset="1" stop-color="#E6E6E6"/>
</linearGradient>
<linearGradient id="paint10_linear_1_2780" x1="59.1821" y1="104.31" x2="46.0052" y2="51.4603" gradientUnits="userSpaceOnUse">
<stop stop-color="#999999"/>
<stop offset="1" stop-color="#CCCCCC"/>
</linearGradient>
<linearGradient id="paint11_linear_1_2780" x1="70.9575" y1="59.7972" x2="104.616" y2="26.1391" gradientUnits="userSpaceOnUse">
<stop stop-color="#CCCCCC"/>
<stop offset="1" stop-color="#F0F0F0"/>
</linearGradient>
<linearGradient id="paint12_linear_1_2780" x1="100.216" y1="61.7952" x2="122.022" y2="39.9895" gradientUnits="userSpaceOnUse">
<stop stop-color="#CCCCCC"/>
<stop offset="1" stop-color="white"/>
</linearGradient>
<linearGradient id="paint13_linear_1_2780" x1="61.7735" y1="65.3855" x2="35.6585" y2="65.3855" gradientUnits="userSpaceOnUse">
<stop stop-color="#E6E6E6" stop-opacity="0"/>
<stop offset="1" stop-color="#E6E6E6"/>
</linearGradient>
<linearGradient id="paint14_linear_1_2780" x1="61.7735" y1="65.3855" x2="35.6585" y2="65.3855" gradientUnits="userSpaceOnUse">
<stop stop-color="#E6E6E6" stop-opacity="0"/>
<stop offset="1" stop-color="#E6E6E6"/>
</linearGradient>
<linearGradient id="paint15_linear_1_2780" x1="83.1985" y1="79.2046" x2="101.519" y2="60.8842" gradientUnits="userSpaceOnUse">
<stop stop-color="#CCCCCC"/>
<stop offset="1" stop-color="#F0F0F0"/>
</linearGradient>
<linearGradient id="paint16_linear_1_2780" x1="104.599" y1="0.00276306" x2="118.981" y2="15.9761" gradientUnits="userSpaceOnUse">
<stop offset="0.4" stop-color="#E6E6E6" stop-opacity="0.4"/>
<stop offset="0.443" stop-color="white"/>
<stop offset="0.6" stop-color="#CCCCCC"/>
</linearGradient>
<linearGradient id="paint17_linear_1_2780" x1="102.241" y1="15.9739" x2="118.066" y2="0.149576" gradientUnits="userSpaceOnUse">
<stop stop-color="#E6E6E6"/>
<stop offset="0.761" stop-color="white"/>
<stop offset="1" stop-color="#F0F0F0"/>
</linearGradient>
<linearGradient id="paint18_linear_1_2780" x1="103.862" y1="20.7395" x2="121.947" y2="2.65454" gradientUnits="userSpaceOnUse">
<stop stop-color="#CCCCCC"/>
<stop offset="0.761" stop-color="white"/>
<stop offset="1" stop-color="#F0F0F0"/>
</linearGradient>
<linearGradient id="paint19_linear_1_2780" x1="104.536" y1="0.627023" x2="120.756" y2="18.6412" gradientUnits="userSpaceOnUse">
<stop offset="0.4" stop-color="#E6E6E6" stop-opacity="0.4"/>
<stop offset="0.443" stop-color="white"/>
<stop offset="0.6" stop-color="#CCCCCC"/>
</linearGradient>
<linearGradient id="paint20_linear_1_2780" x1="48.6025" y1="31.8865" x2="57.3938" y2="23.0952" gradientUnits="userSpaceOnUse">
<stop stop-color="#CCCCCC"/>
<stop offset="1" stop-color="white" stop-opacity="0.702"/>
</linearGradient>
<linearGradient id="paint21_linear_1_2780" x1="48.5039" y1="32.1443" x2="57.8603" y2="22.7878" gradientUnits="userSpaceOnUse">
<stop stop-color="#CCCCCC"/>
<stop offset="0.495" stop-color="#CCCCCC" stop-opacity="0.702"/>
<stop offset="0.498" stop-color="#CCCCCC"/>
<stop offset="1" stop-color="white" stop-opacity="0.302"/>
</linearGradient>
</defs>
</svg>
