<svg width="25" height="24" viewBox="0 0 25 24" fill="none" xmlns="http://www.w3.org/2000/svg">
<g id="Frame">
<path id="Vector" d="M21.3074 10.8516H2.93411C2.51029 10.8516 2.16992 10.4921 2.16992 10.052C2.16992 9.61184 2.51029 9.25005 2.93411 9.25005H21.3118C21.7312 9.25005 22.076 9.60723 22.076 10.052C22.0716 10.4921 21.7312 10.8516 21.3074 10.8516Z" fill="white"/>
<path id="Vector_2" d="M8.98906 7.94518H5.61575C5.19193 7.94518 4.85156 7.58569 4.85156 7.14554C4.85156 6.70539 5.19193 6.3436 5.61575 6.3436H8.99345C9.41288 6.3436 9.75764 6.70078 9.75764 7.14554C9.75324 7.58569 9.41288 7.94518 8.98906 7.94518Z" fill="white"/>
<path id="Vector_3" d="M13.4273 16.4778C13.4273 18.8948 15.3869 20.8521 17.8016 20.8521C20.2164 20.8521 22.1759 18.8948 22.1759 16.4778C22.1759 14.0608 20.2186 12.1035 17.8016 12.1035C15.3847 12.1035 13.4273 14.0608 13.4273 16.4778ZM21.1976 16.48C21.1976 18.3551 19.6767 19.876 17.8016 19.876C15.9244 19.876 14.4057 18.353 14.4057 16.4778C14.4057 14.6027 15.9265 13.0819 17.8016 13.0819C19.6767 13.0819 21.1976 14.6048 21.1976 16.48Z" fill="white" stroke="white" stroke-width="0.2"/>
<path id="Vector_4" d="M18.2654 15.7116L19.1531 16.5993C19.3344 16.7806 19.6299 16.7806 19.8112 16.5993C19.9925 16.418 19.9925 16.1225 19.8112 15.9412L18.1315 14.2615C17.9502 14.0802 17.6547 14.0802 17.4734 14.2615L15.7938 15.9412C15.6125 16.1225 15.6125 16.418 15.7938 16.5993C15.9751 16.7806 16.2706 16.7806 16.4519 16.5993L17.3352 15.7159L17.3333 18.0094V18.0095C17.3333 18.268 17.5437 18.4756 17.7994 18.4756C18.0578 18.4756 18.2654 18.2652 18.2654 18.0095V15.7116Z" fill="white" stroke="white" stroke-width="0.2"/>
<path id="Vector 21" d="M12.4529 19.6527H5.86328C4.20643 19.6527 2.86328 18.3096 2.86328 16.6527V7.2392C2.86328 5.58234 4.20643 4.2392 5.86328 4.2392H18.5716C20.2284 4.2392 21.5716 5.58234 21.5716 7.2392V11.2989" stroke="white" stroke-width="1.5" stroke-linecap="round"/>
</g>
</svg>
