<svg width="25" height="24" viewBox="0 0 25 24" fill="none" xmlns="http://www.w3.org/2000/svg">
<g id="Frame">
<path id="Vector" d="M21.3074 9.33034H2.93411C2.51029 9.33034 2.16992 8.97085 2.16992 8.5307C2.16992 8.09056 2.51029 7.72876 2.93411 7.72876H21.3118C21.7312 7.72876 22.076 8.08595 22.076 8.5307C22.0716 8.97085 21.7312 9.33034 21.3074 9.33034Z" fill="white"/>
<path id="Vector_2" d="M13.4273 16.4778C13.4273 18.8948 15.3869 20.8521 17.8016 20.8521C20.2164 20.8521 22.1759 18.8948 22.1759 16.4778C22.1759 14.0608 20.2186 12.1035 17.8016 12.1035C15.3847 12.1035 13.4273 14.0608 13.4273 16.4778ZM21.1976 16.48C21.1976 18.3551 19.6767 19.876 17.8016 19.876C15.9244 19.876 14.4057 18.353 14.4057 16.4778C14.4057 14.6027 15.9265 13.0819 17.8016 13.0819C19.6767 13.0819 21.1976 14.6048 21.1976 16.48Z" fill="white" stroke="white" stroke-width="0.2"/>
<path id="Vector_3" d="M18.3154 16.7689L19.1178 15.9665C19.3186 15.7657 19.6457 15.7657 19.8466 15.9665C20.0474 16.1673 20.0474 16.4945 19.8466 16.6953L18.1669 18.375C17.9661 18.5758 17.6389 18.5758 17.4381 18.375L15.7584 16.6953C15.5576 16.4945 15.5576 16.1673 15.7584 15.9665C15.9592 15.7657 16.2864 15.7657 16.4872 15.9665L17.2851 16.7644L17.2833 14.5917V14.5916C17.2833 14.3053 17.5163 14.0756 17.7994 14.0756C18.0856 14.0756 18.3154 14.3085 18.3154 14.5916V16.7689Z" fill="white" stroke="white" stroke-width="0.3"/>
<path id="Vector 21" d="M12.4529 19.6527H5.86328C4.20643 19.6527 2.86328 18.3096 2.86328 16.6527V7.2392C2.86328 5.58234 4.20643 4.2392 5.86328 4.2392H18.5716C20.2284 4.2392 21.5716 5.58234 21.5716 7.2392V11.2989" stroke="white" stroke-width="1.5" stroke-linecap="round"/>
</g>
</svg>
