<svg width="25" height="24" viewBox="0 0 25 24" fill="none" xmlns="http://www.w3.org/2000/svg">
<g id="Frame">
<path id="Vector" d="M3.95179 12.8956C4.36338 12.8956 4.6741 13.2213 4.71272 13.6507L4.71618 13.7441C4.73375 13.7576 4.74788 13.7751 4.75739 13.7952C4.76691 13.8152 4.77156 13.8372 4.77095 13.8594C5.34049 17.1481 8.68226 19.7451 12.2494 19.7451C15.8062 19.7451 19.1053 17.1585 19.676 13.8634C19.6896 13.7837 19.7275 13.7102 19.7846 13.653C19.8417 13.5958 19.9152 13.5577 19.9948 13.5441L20.0559 13.5383H20.9224C21.161 13.5383 21.3167 13.7516 21.2798 13.9839C20.641 18.1316 16.6087 21.3771 12.1975 21.3771C9.35039 21.3771 6.51764 20.0057 4.71618 17.8122V18.9035C4.71618 19.3174 4.42276 19.6229 4.00194 19.6609L3.95179 19.6621L3.92585 19.6644L3.86647 19.6604C3.47159 19.6258 3.14013 19.3612 3.09055 18.9836L3.08594 18.9035V13.7285C3.08594 13.3135 3.42259 12.9486 3.84572 12.9002L3.92585 12.8967L3.95179 12.8956ZM12.2921 2.62294C15.1508 2.62294 17.9835 4.00415 19.7821 6.2074V4.98184C19.7821 4.55871 20.0819 4.1817 20.4779 4.12809L20.5534 4.12117H20.5753L20.6457 4.12694C21.0567 4.17824 21.4118 4.56217 21.4135 4.98011V10.155C21.4135 10.5943 21.0238 10.8877 20.5551 10.8877H20.5108C20.0865 10.8877 19.7441 10.6012 19.7014 10.1988C19.6916 10.187 19.6843 10.1733 19.6801 10.1585L19.6466 9.97403C18.9958 6.75504 15.7474 4.25318 12.2506 4.25318C8.69264 4.25318 5.3918 6.84094 4.82225 10.1343C4.80798 10.2248 4.76189 10.3073 4.69225 10.3669C4.62262 10.4265 4.53401 10.4593 4.44236 10.4594H3.57651C3.33728 10.4594 3.17702 10.2467 3.21334 10.0138C3.85437 5.86729 7.88443 2.62294 12.2921 2.62294Z" fill="white"/>
<g id="Vector_2">
<path d="M10.9242 13.11V11.7369C10.9244 11.6854 10.9106 11.6354 10.8842 11.5911C10.8578 11.5469 10.8199 11.5107 10.7744 11.4865C10.729 11.4622 10.6778 11.4508 10.6264 11.4535C10.575 11.4562 10.5252 11.4728 10.4826 11.5017L8.08736 13.57C8.05886 13.6001 8.03729 13.6361 8.02418 13.6755C8.01106 13.7148 8.00671 13.7566 8.01143 13.7977C8.01616 13.8389 8.02984 13.8786 8.05152 13.914C8.0732 13.9493 8.10236 13.9795 8.13694 14.0024L10.4664 16.0171C10.6717 16.1572 10.9242 16.0212 10.9242 15.794V14.742H16.102C16.3146 14.7363 16.5167 14.6479 16.6651 14.4955C16.8135 14.3431 16.8965 14.1387 16.8965 13.926C16.8965 13.7133 16.8135 13.5089 16.6651 13.3565C16.5167 13.2041 16.3146 13.1157 16.102 13.11H10.9242Z" fill="white"/>
<path d="M14.3956 7.6209L14.3726 7.61168C14.1916 7.55346 14.0036 7.68893 14.0036 7.88262V9.04189H8.82409L8.74511 9.04592C8.32487 9.09089 8.00781 9.4408 8.00781 9.85759C8.00797 10.074 8.09403 10.2815 8.2471 10.4344C8.40016 10.5874 8.6077 10.6733 8.82409 10.6733H14.0019V11.9398L14.0077 11.9951C14.0653 12.2015 14.2821 12.2851 14.4435 12.1761L16.8312 10.1124C16.9569 9.96712 16.9321 9.7717 16.7926 9.676L14.4613 7.65953L14.3956 7.6209Z" fill="white"/>
</g>
</g>
</svg>
