<svg width="24" height="24" viewBox="0 0 24 24" fill="none" xmlns="http://www.w3.org/2000/svg">
<g id="Transaction-Icon" clip-path="url(#clip0_3796_6585)">
<path id="Vector" d="M19.3741 15.1025C20.0229 13.5608 20.1723 11.8545 19.8011 10.2235C19.43 8.59255 18.557 7.11889 17.305 6.00975C16.0529 4.90061 14.4847 4.21176 12.8209 4.04006C11.1571 3.86835 9.48124 4.22243 8.02906 5.0525L7.03706 3.3155C8.5547 2.44811 10.2733 1.99386 12.0213 1.99808C13.7693 2.00229 15.4856 2.46481 16.9991 3.3395C21.4891 5.9315 23.2091 11.4815 21.1161 16.1095L22.4581 16.8835L18.2931 19.0975L18.1281 14.3835L19.3741 15.1025ZM4.62406 8.8965C3.97521 10.4382 3.82585 12.1445 4.19698 13.7755C4.56811 15.4064 5.44108 16.8801 6.69314 17.9892C7.9452 19.0984 9.51338 19.7872 11.1772 19.9589C12.8411 20.1306 14.5169 19.7766 15.9691 18.9465L16.9611 20.6835C15.4434 21.5509 13.7249 22.0051 11.9769 22.0009C10.2288 21.9967 8.5125 21.5342 6.99906 20.6595C2.50906 18.0675 0.789062 12.5175 2.88206 7.8895L1.53906 7.1165L5.70406 4.9025L5.86906 9.6165L4.62306 8.8975L4.62406 8.8965ZM13.4141 14.8275L10.5831 11.9995L7.75506 14.8275L6.34106 13.4135L10.5841 9.1715L13.4131 11.9995L16.2421 9.1715L17.6561 10.5855L13.4131 14.8275H13.4141Z" fill="#F0F4F7"/>
</g>
<defs>
<clipPath id="clip0_3796_6585">
<rect width="24" height="24" fill="white"/>
</clipPath>
</defs>
</svg>
