<svg width="24" height="24" viewBox="0 0 24 24" fill="none" xmlns="http://www.w3.org/2000/svg">
<g id="Group 48574">
<g id="Group 37593">
<path id="Vector" d="M21.9289 16.0265C21.8477 15.5452 21.4309 15.1929 20.9429 15.1929H16.0526L20.5338 10.0955C21.0069 9.55743 20.9525 8.73546 20.4155 8.26357L13.7369 2.39271C13.4779 2.16581 13.1395 2.05084 12.7959 2.07301C12.4522 2.09518 12.1314 2.25268 11.9037 2.51098L4.05186 11.4403C3.93898 11.5682 3.85262 11.7174 3.7978 11.879C3.74299 12.0406 3.7208 12.2114 3.73254 12.3817C3.75383 12.727 3.90994 13.044 4.17013 13.2722L6.35456 15.1941H3.28913C2.81541 15.1941 2.40669 15.5265 2.31013 15.9903L1.32488 20.7221C1.19559 21.3431 1.66961 21.926 2.30388 21.926H21.7417C22.3605 21.926 22.8307 21.3697 22.7278 20.7595L21.9289 16.0265ZM4.81588 12.3107C4.81395 12.2829 4.81755 12.255 4.82648 12.2286C4.83542 12.2022 4.8495 12.1779 4.86792 12.157L12.721 3.22769C12.7581 3.18588 12.8101 3.16035 12.8659 3.15658C12.9216 3.15282 12.9766 3.17114 13.019 3.20758L19.6976 9.07962C19.7398 9.11675 19.7655 9.16904 19.7693 9.22509C19.7731 9.28114 19.7545 9.3364 19.7177 9.37884L14.605 15.1929L14.5186 15.2911L12.3437 17.7629H10.8641L10.8902 17.7345L4.88684 12.455C4.86609 12.4368 4.84913 12.4147 4.83695 12.39C4.82478 12.3652 4.81761 12.3383 4.81588 12.3107ZM21.3963 20.4934C21.4235 20.6748 21.2831 20.8379 21.0997 20.8379H3.01326C2.82259 20.8379 2.6803 20.6624 2.71975 20.4758L3.55685 16.5177C3.58619 16.379 3.7086 16.2798 3.85036 16.2798H7.59164L9.27934 17.7641H6.64431L6.25521 18.7457H17.5723L17.2743 17.7641H13.7901L15.0958 16.2798H20.5061C20.6546 16.2798 20.7807 16.3885 20.8027 16.5353L21.3963 20.4934Z" fill="white" stroke="white" stroke-width="0.4"/>
<path id="Vector_2" d="M12.0876 13.0035L15.8355 8.86288C15.8857 8.81031 15.9248 8.74822 15.9505 8.6803C15.9763 8.61237 15.9882 8.53996 15.9855 8.46736C15.9828 8.39476 15.9656 8.32343 15.9349 8.25758C15.9043 8.19173 15.8607 8.1327 15.8068 8.08396C15.7529 8.03522 15.6898 7.99776 15.6213 7.9738C15.5527 7.94984 15.48 7.93986 15.4075 7.94444C15.335 7.94903 15.2641 7.96809 15.1991 8.0005C15.1341 8.03292 15.0762 8.07802 15.0289 8.13316L11.5838 11.9414L10.1255 10.6227C10.0737 10.5694 10.0115 10.5273 9.94283 10.499C9.87413 10.4707 9.80036 10.4567 9.72606 10.458C9.65176 10.4593 9.57851 10.4758 9.51083 10.5065C9.44315 10.5371 9.38247 10.5814 9.33254 10.6364C9.28261 10.6914 9.24448 10.7561 9.2205 10.8264C9.19653 10.8968 9.18721 10.9713 9.19314 11.0453C9.19906 11.1194 9.2201 11.1915 9.25495 11.2571C9.28981 11.3228 9.33773 11.3805 9.39578 11.4269L11.1864 13.0472C11.4226 13.2632 11.87 13.2476 12.0876 13.0035Z" fill="white" stroke="white" stroke-width="0.4"/>
</g>
</g>
</svg>
