<svg width="24" height="24" viewBox="0 0 24 24" fill="none" xmlns="http://www.w3.org/2000/svg">
<g id="Frame">
<path id="Vector" d="M20.6065 3.06641H3.41523C3.05915 3.06636 2.71734 3.20631 2.46354 3.45605C2.20973 3.70579 2.06429 4.04531 2.05859 4.40133V15.58C2.05859 15.9398 2.20152 16.2848 2.45594 16.5393C2.71036 16.7937 3.05542 16.9366 3.41523 16.9366H11.1752V19.1072H5.10023C4.86132 19.1072 4.6322 19.2021 4.46327 19.3711C4.29433 19.54 4.19943 19.7691 4.19943 20.008C4.19941 20.2479 4.29397 20.4782 4.4626 20.6489C4.63123 20.8195 4.86033 20.9168 5.10023 20.9197H19.0626C19.3035 20.9169 19.5337 20.8199 19.7041 20.6496C19.8744 20.4792 19.9714 20.2489 19.9742 20.008C19.9714 19.7681 19.874 19.539 19.7034 19.3704C19.5327 19.2018 19.3025 19.1072 19.0626 19.1072H12.9876V16.9366H20.5848C20.9446 16.9366 21.2896 16.7937 21.544 16.5393C21.7985 16.2848 21.9414 15.9398 21.9414 15.58V4.40133C21.9358 4.04903 21.7934 3.71273 21.5442 3.46358C21.2951 3.21444 20.9588 3.072 20.6065 3.06641ZM20.1506 15.1242H3.87105V4.87887H20.1506V15.1242Z" fill="white"/>
<path id="Vector_2" d="M7.061 12.7276C7.24245 12.7295 7.42025 12.6766 7.57109 12.5757L10.751 10.4593L12.6069 12.0005C12.7701 12.1403 12.978 12.2172 13.193 12.2172C13.4079 12.2172 13.6158 12.1403 13.779 12.0005L17.5342 8.82054C17.689 8.67246 17.7853 8.47348 17.8052 8.26016C17.8252 8.04683 17.7675 7.83347 17.6427 7.65926C17.5703 7.56154 17.4788 7.47951 17.3738 7.41811C17.2688 7.35671 17.1524 7.31721 17.0317 7.30199C16.9111 7.28678 16.7885 7.29617 16.6716 7.32959C16.5546 7.36302 16.4456 7.41978 16.3512 7.49646L13.2038 10.1772L11.4022 8.63604C11.2531 8.50844 11.0664 8.43303 10.8705 8.42127C10.6746 8.40952 10.4802 8.46206 10.3169 8.57092L6.58346 11.0671C6.4253 11.1768 6.30592 11.3338 6.24243 11.5155C6.17894 11.6972 6.17459 11.8944 6.23001 12.0787C6.28543 12.263 6.39778 12.4251 6.55095 12.5417C6.70412 12.6582 6.89026 12.7233 7.0827 12.7276H7.061Z" fill="white"/>
</g>
</svg>
