<svg width="24" height="24" viewBox="0 0 24 24" fill="none" xmlns="http://www.w3.org/2000/svg">
<g id="Frame">
<path id="Vector" d="M18.8362 2.86328H5.16722C4.69029 2.86294 4.23077 3.04254 3.88047 3.3662C3.53017 3.68986 3.31485 4.13376 3.27754 4.60923L2.40067 15.8069L2.39844 15.8994C2.39844 16.4018 2.598 16.8836 2.95322 17.2388C3.30844 17.594 3.79022 17.7936 4.29258 17.7936H19.7644L19.8568 17.788C20.1049 17.7686 20.3466 17.7005 20.5683 17.5876C20.79 17.4747 20.9873 17.3192 21.1489 17.1301C21.3105 16.941 21.4333 16.7219 21.5102 16.4853C21.5871 16.2487 21.6167 15.9992 21.5972 15.7512L20.7237 4.60923C20.6864 4.13414 20.4714 3.69056 20.1216 3.36695C19.7717 3.04335 19.3128 2.8635 18.8362 2.86328ZM5.16722 4.42316H18.8362C18.9206 4.42291 19.002 4.45459 19.064 4.51184C19.126 4.56908 19.164 4.64766 19.1705 4.73179L20.044 15.8738C20.0508 15.9621 20.0222 16.0496 19.9645 16.1168C19.9069 16.1841 19.8248 16.2257 19.7365 16.2326L4.29369 16.2337C4.21821 16.2339 4.14486 16.2086 4.08558 16.1619C4.0263 16.1152 3.98459 16.0498 3.96723 15.9763L3.95943 15.8872L4.83408 4.73179C4.84053 4.64785 4.87843 4.56943 4.94019 4.51221C5.00195 4.455 5.08303 4.42319 5.16722 4.42316ZM5.18171 19.5874C9.54046 18.822 14.083 18.822 18.8073 19.5863C18.9084 19.6027 19.0052 19.6388 19.0924 19.6927C19.1795 19.7465 19.2552 19.817 19.3151 19.9C19.375 19.9831 19.418 20.0772 19.4415 20.1769C19.4651 20.2766 19.4688 20.3799 19.4524 20.481C19.436 20.5821 19.3998 20.679 19.346 20.7661C19.2922 20.8533 19.2217 20.929 19.1386 20.9889C19.0556 21.0488 18.9615 21.0917 18.8618 21.1153C18.7621 21.1388 18.6588 21.1425 18.5577 21.1261C14.0028 20.3885 9.63516 20.3885 5.45134 21.1239C5.25128 21.1516 5.04825 21.1007 4.885 20.9817C4.72175 20.8628 4.611 20.6852 4.57606 20.4863C4.54112 20.2873 4.58473 20.0826 4.69769 19.9151C4.81065 19.7477 4.98416 19.6306 5.18171 19.5885V19.5874Z" fill="white"/>
<g id="OTC">
<path id="Vector_2" d="M15.94 13.5583C15.6094 13.5583 15.3071 13.4749 15.0331 13.3081C14.762 13.1413 14.5461 12.918 14.3852 12.638C14.2274 12.355 14.1484 12.0408 14.1484 11.6953L14.1574 9.60636C14.1574 9.26681 14.2348 8.96002 14.3897 8.68599C14.5446 8.40899 14.7575 8.18709 15.0286 8.02029C15.3026 7.85051 15.6064 7.76562 15.94 7.76562C16.2796 7.76562 16.5819 7.84753 16.847 8.01135C17.1151 8.17517 17.328 8.39707 17.4859 8.67706C17.6467 8.95406 17.7271 9.26383 17.7271 9.60636V10.0263C17.7271 10.0502 17.7152 10.0621 17.6914 10.0621H16.6638C16.64 10.0621 16.6281 10.0502 16.6281 10.0263V9.60636C16.6281 9.40382 16.5625 9.22957 16.4315 9.08363C16.3004 8.93768 16.1366 8.8647 15.94 8.8647C15.7226 8.8647 15.5558 8.93917 15.4396 9.08809C15.3235 9.23702 15.2654 9.40978 15.2654 9.60636V11.6953C15.2654 11.9187 15.3309 12.1018 15.462 12.2448C15.593 12.3848 15.7524 12.4548 15.94 12.4548C16.1366 12.4548 16.3004 12.3774 16.4315 12.2225C16.5625 12.0646 16.6281 11.8889 16.6281 11.6953V11.2708C16.6281 11.247 16.64 11.2351 16.6638 11.2351H17.7003C17.7242 11.2351 17.7361 11.247 17.7361 11.2708V11.6953C17.7361 12.0378 17.6557 12.3505 17.4948 12.6335C17.331 12.9135 17.1151 13.1384 16.847 13.3081C16.5789 13.4749 16.2766 13.5583 15.94 13.5583Z" fill="white"/>
<path id="Vector_3" d="M12.7351 13.4678H11.703C11.6762 13.4678 11.6628 13.4529 11.6628 13.4231V8.97073H10.4744C10.4446 8.97073 10.4297 8.95584 10.4297 8.92606L10.4386 7.90293C10.4386 7.8791 10.4505 7.86719 10.4744 7.86719H13.9503C13.9831 7.86719 13.9995 7.8791 13.9995 7.90293V8.92606C13.9995 8.95584 13.9875 8.97073 13.9637 8.97073H12.7619L12.7708 13.4231C12.7708 13.4529 12.7589 13.4678 12.7351 13.4678Z" fill="white"/>
<path id="Vector_4" d="M8.48021 13.5583C8.15555 13.5583 7.85621 13.4749 7.58218 13.3081C7.31114 13.1413 7.09221 12.9194 6.92542 12.6424C6.7616 12.3625 6.67969 12.0557 6.67969 11.7221L6.68862 9.58849C6.68862 9.24893 6.77053 8.94363 6.93435 8.67259C7.09519 8.39856 7.31263 8.17964 7.58665 8.01582C7.86068 7.84902 8.15853 7.76562 8.48021 7.76562C8.81381 7.76562 9.11315 7.84753 9.37824 8.01135C9.64631 8.17517 9.86076 8.39558 10.0216 8.67259C10.1854 8.94661 10.2673 9.25191 10.2673 9.58849L10.2763 11.7221C10.2763 12.0557 10.1958 12.361 10.035 12.638C9.87119 12.918 9.65375 13.1413 9.38271 13.3081C9.11166 13.4749 8.81083 13.5583 8.48021 13.5583ZM8.48021 12.4548C8.66488 12.4548 8.82572 12.3803 8.96273 12.2314C9.09975 12.0795 9.16825 11.9097 9.16825 11.7221L9.15932 9.58849C9.15932 9.38595 9.09528 9.21468 8.9672 9.07469C8.83912 8.9347 8.67679 8.8647 8.48021 8.8647C8.29256 8.8647 8.13172 8.93321 7.99769 9.07022C7.86365 9.20724 7.79664 9.37999 7.79664 9.58849V11.7221C7.79664 11.9216 7.86365 12.0944 7.99769 12.2403C8.13172 12.3833 8.29256 12.4548 8.48021 12.4548Z" fill="white"/>
</g>
</g>
</svg>
