<svg width="24" height="24" viewBox="0 0 24 24" fill="none" xmlns="http://www.w3.org/2000/svg">
<g id="Frame">
<path id="Vector" d="M16.4959 17.9977C16.4959 16.6172 17.6151 15.498 18.9955 15.498C20.376 15.498 21.4952 16.6172 21.4952 17.9977H21.995C22.2711 17.9977 22.495 18.2215 22.495 18.4977V21.997C22.495 22.2731 22.2711 22.497 21.995 22.497H15.9961C15.72 22.497 15.4961 22.2731 15.4961 21.997V18.4977C15.4961 18.2215 15.72 17.9977 15.9961 17.9977H16.4959ZM17.9957 17.9977H19.9954C19.9954 17.4455 19.5477 16.9978 18.9955 16.9978C18.4434 16.9978 17.9957 17.4455 17.9957 17.9977ZM16.9959 19.4974V20.9972H20.9952V19.4974H16.9959Z" fill="white"/>
<g id="Vector_2">
<path d="M21.7949 13.9981H20.2586C20.4132 13.3569 20.4952 12.6872 20.4952 11.9984C20.4952 7.30475 16.6902 3.49977 11.9965 3.49977C7.3028 3.49977 3.49781 7.30475 3.49781 11.9984C3.49781 16.6921 7.3028 20.4971 11.9965 20.4971C12.6853 20.4971 13.3549 20.4152 13.9962 20.2605V21.7969C13.35 21.928 12.6813 21.9969 11.9965 21.9969C6.47449 21.9969 1.99805 17.5204 1.99805 11.9984C1.99805 6.47645 6.47449 2 11.9965 2C17.5185 2 21.9949 6.47645 21.9949 11.9984C21.9949 12.6833 21.9261 13.352 21.7949 13.9981ZM11.6429 8.11001C11.8382 7.91475 12.1548 7.91475 12.35 8.11001L15.8849 11.6449C16.0802 11.8401 16.0802 12.1567 15.8849 12.352L12.35 15.8869C12.1548 16.0821 11.8382 16.0821 11.6429 15.8869L8.10806 12.352C7.9128 12.1567 7.9128 11.8401 8.10806 11.6449L11.6429 8.11001ZM9.87548 11.9984L11.9965 14.1194L14.1175 11.9984L11.9965 9.87744L9.87548 11.9984Z" fill="white"/>
<path d="M16.0263 11.6445C16.2215 11.8397 16.2216 12.1564 16.0263 12.3516L12.3497 16.0282C12.1544 16.2235 11.8378 16.2235 11.6425 16.0282L7.96676 12.3516C7.77153 12.1563 7.77155 11.8398 7.9668 11.6445L11.6426 7.96875C11.8378 7.7735 12.1544 7.77348 12.3496 7.96871L16.0263 11.6445ZM8.10806 11.6449C7.9128 11.8401 7.9128 12.1567 8.10806 12.352L11.6429 15.8869C11.8382 16.0821 12.1548 16.0821 12.35 15.8869L15.8849 12.352C16.0802 12.1567 16.0802 11.8401 15.8849 11.6449L12.35 8.11001C12.1548 7.91475 11.8382 7.91475 11.6429 8.11001L8.10806 11.6449ZM14.1175 11.9984L11.9965 14.1194L9.87548 11.9984L11.9965 9.87744L14.1175 11.9984ZM20.3955 11.998C20.3953 7.35977 16.6344 3.59961 11.9961 3.59961C7.35794 3.59982 3.59787 7.3599 3.59766 11.998C3.59766 16.6364 7.35781 20.3972 11.9961 20.3975L11.9965 20.4971L11.5596 20.4863C7.2137 20.2663 3.72896 16.7814 3.50879 12.4355L3.49781 11.9984C3.49781 7.30475 7.3028 3.49977 11.9965 3.49977L12.4336 3.51074C16.924 3.73824 20.495 7.45153 20.4952 11.9984L20.4912 12.2559C20.4734 12.8542 20.3939 13.4371 20.2586 13.9981H21.7949L21.8818 13.5098C21.9317 13.1811 21.9654 12.8471 21.9824 12.5088L21.9949 11.9984C21.9947 6.64909 17.7936 2.28034 12.5107 2.0127L11.9965 2C6.47449 2 1.99805 6.47645 1.99805 11.9984L2.01074 12.5127C2.26977 17.6254 6.36966 21.7245 11.4824 21.9834L11.9965 21.9969C12.6813 21.9969 13.35 21.928 13.9962 21.7969V20.2605C13.3549 20.4152 12.6853 20.4971 11.9965 20.4971L11.9961 20.3975C12.6769 20.3975 13.339 20.3159 13.9727 20.1631L14.0957 20.1338V21.8789L14.0156 21.8945C13.3631 22.027 12.6875 22.0967 11.9961 22.0967C6.41905 22.0965 1.89844 17.5751 1.89844 11.998C1.89865 6.42114 6.41918 1.9006 11.9961 1.90039C17.5732 1.90039 22.0945 6.42101 22.0947 11.998C22.0947 12.6895 22.025 13.3651 21.8926 14.0176L21.877 14.0977H20.1318L20.1611 13.9746L20.2627 13.4941C20.3499 13.0089 20.3955 12.5086 20.3955 11.998ZM10.0166 11.998L11.9961 13.9775L13.9756 11.998L11.9961 10.0186L10.0166 11.998Z" fill="white"/>
</g>
</g>
</svg>
