<svg width="25" height="24" viewBox="0 0 25 24" fill="none" xmlns="http://www.w3.org/2000/svg">
<g id="Frame">
<path id="Vector" d="M21.5555 9.3301H3.18215C2.75834 9.3301 2.41797 8.97061 2.41797 8.53046C2.41797 8.09031 2.75834 7.72852 3.18215 7.72852H21.5599C21.9793 7.72852 22.324 8.0857 22.324 8.53046C22.3196 8.97061 21.9793 9.3301 21.5555 9.3301Z" fill="white"/>
<path id="Vector_2" d="M18.0518 12.1035C20.4687 12.1036 22.4258 14.0606 22.4258 16.4775C22.4257 18.8945 20.4664 20.8515 18.0518 20.8516C15.6371 20.8516 13.6778 18.8945 13.6777 16.4775C13.6777 14.0605 15.6348 12.1035 18.0518 12.1035ZM18.0518 13.0811C16.1767 13.0811 14.6553 14.6024 14.6553 16.4775C14.6553 18.3527 16.1746 19.876 18.0518 19.876C19.9268 19.8759 21.4473 18.3546 21.4473 16.4795C21.4472 14.6044 19.9267 13.0811 18.0518 13.0811Z" fill="white" stroke="white" stroke-width="0.2"/>
<path id="Vector_3" d="M17.7686 18.4404C17.9685 18.5723 18.2412 18.5498 18.417 18.374L20.0967 16.6943L20.1621 16.6143C20.2941 16.4143 20.2725 16.1416 20.0967 15.9658C19.9209 15.79 19.6482 15.7684 19.4482 15.9004L19.3682 15.9658L18.5654 16.7686V14.5908C18.5653 14.308 18.3358 14.0754 18.0498 14.0752C17.7668 14.0752 17.5333 14.3046 17.5332 14.5908L17.5342 16.7646L16.7373 15.9658C16.5366 15.7651 16.2096 15.7652 16.0088 15.9658C15.808 16.1666 15.808 16.4935 16.0088 16.6943L17.6885 18.374L17.7686 18.4404Z" fill="white" stroke="white" stroke-width="0.3"/>
<path id="Vector 21" d="M12.7029 19.6518H6.11328C4.45643 19.6518 3.11328 18.3086 3.11328 16.6518V7.23828C3.11328 5.58143 4.45643 4.23828 6.11328 4.23828H18.8216C20.4784 4.23828 21.8216 5.58143 21.8216 7.23828V11.298" stroke="white" stroke-width="1.5" stroke-linecap="round"/>
</g>
</svg>
