<svg width="25" height="24" viewBox="0 0 25 24" fill="none" xmlns="http://www.w3.org/2000/svg">
<g id="Frame">
<path id="Vector" d="M21.5555 10.8516H3.18215C2.75834 10.8516 2.41797 10.4921 2.41797 10.0519C2.41797 9.6118 2.75834 9.25 3.18215 9.25H21.5599C21.9793 9.25 22.324 9.60719 22.324 10.0519C22.3197 10.4921 21.9793 10.8516 21.5555 10.8516Z" fill="white"/>
<path id="Vector_2" d="M9.23906 7.94533H5.86575C5.44193 7.94533 5.10156 7.58584 5.10156 7.14569C5.10156 6.70555 5.44193 6.34375 5.86575 6.34375H9.24345C9.66288 6.34375 10.0076 6.70094 10.0076 7.14569C10.0032 7.58584 9.66288 7.94533 9.23906 7.94533Z" fill="white"/>
<path id="Vector_3" d="M18.0518 12.1035C20.4687 12.1036 22.4258 14.0606 22.4258 16.4775C22.4257 18.8945 20.4664 20.8515 18.0518 20.8516C15.6371 20.8516 13.6778 18.8945 13.6777 16.4775C13.6777 14.0605 15.6348 12.1035 18.0518 12.1035ZM18.0518 13.0811C16.1767 13.0811 14.6553 14.6024 14.6553 16.4775C14.6553 18.3527 16.1746 19.876 18.0518 19.876C19.9268 19.8759 21.4473 18.3546 21.4473 16.4795C21.4472 14.6044 19.9267 13.0811 18.0518 13.0811Z" fill="white" stroke="white" stroke-width="0.2"/>
<path id="Vector_4" d="M17.7959 14.2012C17.9764 14.0819 18.2231 14.102 18.3818 14.2607L20.0615 15.9404L20.1211 16.0127C20.2402 16.1932 20.2202 16.44 20.0615 16.5986C19.8803 16.7798 19.5846 16.7797 19.4033 16.5986L18.5156 15.7109V18.0088C18.5155 18.2642 18.308 18.4744 18.0498 18.4746C17.7942 18.4746 17.5831 18.2672 17.583 18.0088L17.584 15.7148L16.7021 16.5986C16.5209 16.7798 16.2253 16.7797 16.0439 16.5986C15.8627 16.4173 15.8627 16.1217 16.0439 15.9404L17.7236 14.2607L17.7959 14.2012Z" fill="white" stroke="white" stroke-width="0.2"/>
<path id="Vector 21" d="M12.7029 19.6518H6.11328C4.45643 19.6518 3.11328 18.3086 3.11328 16.6518V7.23828C3.11328 5.58143 4.45643 4.23828 6.11328 4.23828H18.8216C20.4784 4.23828 21.8216 5.58143 21.8216 7.23828V11.298" stroke="white" stroke-width="1.5" stroke-linecap="round"/>
</g>
</svg>
