<svg width="16" height="16" viewBox="0 0 16 16" fill="none" xmlns="http://www.w3.org/2000/svg">
<path id="Vector" d="M7.16104 10.3092C6.84712 10.6243 6.84761 11.1341 7.16214 11.4487V11.4487C7.4771 11.7636 7.98775 11.7636 8.30271 11.4487L11.6177 8.1337C11.7035 8.04787 11.7035 7.90871 11.6177 7.82288L8.30271 4.50791C7.98775 4.19295 7.4771 4.19295 7.16214 4.50791V4.50791C6.84761 4.82244 6.84712 5.33224 7.16104 5.64737L8.67794 7.17015H1.67144C1.22511 7.17015 0.863299 7.53197 0.863299 7.97829V7.97829C0.863299 8.42461 1.22511 8.78643 1.67144 8.78643H8.67795L7.16104 10.3092ZM13.7934 0.705078H2.47955C1.58253 0.705078 0.863281 1.43239 0.863281 2.32135V4.74574C0.863281 5.19207 1.2251 5.55388 1.67142 5.55388V5.55388C2.11774 5.55388 2.47955 5.19207 2.47955 4.74574V2.32135H13.7934V13.6352H2.47955V11.2108C2.47955 10.7645 2.11774 10.4027 1.67143 10.4027V10.4027C1.22511 10.4027 0.863299 10.7645 0.863299 11.2108V13.6352C0.863299 14.5242 1.58254 15.2515 2.47957 15.2515H13.7934C14.6824 15.2515 15.4097 14.5242 15.4097 13.6352V2.32135C15.4097 1.43241 14.6824 0.705078 13.7934 0.705078Z" fill="white"/>
</svg>
