<svg width="15" height="15" viewBox="0 0 15 15" fill="none" xmlns="http://www.w3.org/2000/svg">
<path fill-rule="evenodd" clip-rule="evenodd" d="M9.73225 1.43719L7.39367 0.138672L5.05504 1.43719L2.4832 2.17265L1.74773 4.7445L0.449219 7.08312L1.74773 9.42172L2.4832 11.9935L5.05504 12.729L7.39367 14.0275L9.73225 12.729L12.3042 11.9935L13.0396 9.42172L14.3381 7.08312L13.0396 4.7445L12.3042 2.17265L9.73225 1.43719ZM10.8012 5.54556C11.1026 5.19777 11.065 4.67147 10.7173 4.37004C10.3694 4.06862 9.84308 4.10622 9.54167 4.45401L6.56033 7.89405L5.24563 6.37708C4.9442 6.02929 4.41791 5.9917 4.07011 6.29312C3.72232 6.59454 3.68472 7.12084 3.98614 7.46863L5.93059 9.71221C6.08888 9.89488 6.31865 9.9998 6.56033 9.9998C6.80201 9.9998 7.03178 9.89488 7.19007 9.71221L10.8012 5.54556Z" fill="#C2C2C2"/>
</svg>
