<svg width="42" height="42" viewBox="0 0 42 42" fill="none" xmlns="http://www.w3.org/2000/svg">
<g id="Swap">
<path id="Vector" d="M32.1947 20.9997C32.1947 14.8169 27.1825 9.80469 20.9997 9.80469C14.8169 9.80469 9.80469 14.8169 9.80469 20.9997C9.80469 27.1825 14.8169 32.1947 20.9997 32.1947C27.1825 32.1947 32.1947 27.1825 32.1947 20.9997Z" fill="#0CAF60"/>
<path id="Vector_2" d="M36.8047 21C36.8047 12.2713 29.7287 5.19531 21 5.19531C12.2713 5.19531 5.19531 12.2713 5.19531 21C5.19531 29.7287 12.2713 36.8047 21 36.8047C29.7287 36.8047 36.8047 29.7287 36.8047 21Z" stroke="#161D26" stroke-width="9"/>
<g id="Exchage-Icon">
<path id="Path 56640" d="M17.707 21.6585H23.6338V22.9756H20.9997V24.9512L17.707 21.6585ZM20.9997 19.0244V17.0488L24.2923 20.3415H18.3656V19.0244H20.9997Z" fill="white"/>
</g>
</g>
</svg>
