<svg width="10" height="10" viewBox="0 0 10 10" fill="none" xmlns="http://www.w3.org/2000/svg">
<path id="Vector" d="M9.55482 3.61232C9.47591 3.36397 9.27299 3.18336 9.01933 3.14385L8.24145 3.02532L6.63497 2.74875C6.53914 2.73182 6.45459 2.66973 6.4095 2.57942V2.57378C6.40386 2.5512 6.40386 2.53427 6.39259 2.51169L5.38924 0.389453C5.36106 0.327367 5.3216 0.270924 5.28214 0.22577C5.15249 0.0846638 4.98339 0 4.79738 0C4.54372 0 4.31825 0.146751 4.20551 0.383809L3.07816 2.76568L0.564151 3.14949C0.310495 3.189 0.107571 3.36397 0.0286561 3.61797C-0.0502589 3.87196 0.0173825 4.14288 0.19776 4.3235L2.01844 6.17481L1.59005 8.7881C1.54495 9.04774 1.64641 9.30737 1.85497 9.45977C2.0579 9.61781 2.32846 9.63474 2.5483 9.51057L4.79738 8.27447L7.04645 9.51057C7.14228 9.56701 7.24938 9.58959 7.35084 9.58959C7.48612 9.58959 7.62141 9.54443 7.73978 9.45412C7.9427 9.29608 8.04417 9.04209 8.00471 8.78246L7.57631 6.16917L9.39699 4.31785C9.57174 4.13724 9.63374 3.86631 9.55482 3.61232Z" fill="#FFC148"/>
</svg>
