<svg width="18" height="16" viewBox="0 0 18 16" fill="none" xmlns="http://www.w3.org/2000/svg">
<g id="Group">
<path id="Vector" d="M7.75548 0.976379L0.768852 13.0767C0.642649 13.2952 0.576195 13.5431 0.576172 13.7954C0.576149 14.0478 0.642556 14.2957 0.768719 14.5142C0.894882 14.7327 1.07635 14.9142 1.29489 15.0404C1.51343 15.1666 1.76132 15.233 2.01366 15.2329H15.9858C16.2381 15.233 16.486 15.1666 16.7046 15.0404C16.9231 14.9142 17.1046 14.7327 17.2307 14.5142C17.3569 14.2957 17.4233 14.0478 17.4233 13.7954C17.4233 13.5431 17.3568 13.2952 17.2306 13.0767L10.2447 0.976379C10.1186 0.757906 9.93716 0.576486 9.71868 0.450351C9.50021 0.324217 9.25238 0.257812 9.0001 0.257812C8.74783 0.257812 8.5 0.324217 8.28152 0.450351C8.06305 0.576486 7.88162 0.757906 7.75548 0.976379Z" fill="#EE404C"/>
<g id="Group_2">
<path id="Vector_2" d="M9.09088 4.7085H8.90863C8.45993 4.7085 8.09619 5.07224 8.09619 5.52093V9.40425C8.09619 9.85294 8.45993 10.2167 8.90863 10.2167H9.09088C9.53958 10.2167 9.90332 9.85294 9.90332 9.40425V5.52093C9.90332 5.07224 9.53958 4.7085 9.09088 4.7085Z" fill="#FFF7ED"/>
<path id="Vector_3" d="M8.99975 13.2964C9.49878 13.2964 9.90332 12.8918 9.90332 12.3928C9.90332 11.8938 9.49878 11.4893 8.99975 11.4893C8.50073 11.4893 8.09619 11.8938 8.09619 12.3928C8.09619 12.8918 8.50073 13.2964 8.99975 13.2964Z" fill="#FFF7ED"/>
</g>
</g>
</svg>
