<svg width="20" height="20" viewBox="0 0 20 20" fill="none" xmlns="http://www.w3.org/2000/svg">
<g id="Component 9">
<path id="Vector (Stroke)" fill-rule="evenodd" clip-rule="evenodd" d="M1.91075 1.91083C2.23619 1.58539 2.76382 1.58539 3.08926 1.91083L5.62342 4.44499C6.96313 3.71539 8.46787 3.33144 10.0006 3.33341C14.1064 3.33366 17.5791 6.0324 18.7475 9.75024C18.7987 9.91321 18.7986 10.088 18.7472 10.2509C18.2051 11.9684 17.1728 13.4813 15.7878 14.6093L18.0893 16.9108C18.4147 17.2363 18.4147 17.7639 18.0893 18.0893C17.7638 18.4148 17.2362 18.4148 16.9107 18.0893L13.9214 15.1C13.9212 15.0998 13.921 15.0996 13.9208 15.0994L11.1783 12.3578C11.1709 12.3504 11.1637 12.3428 11.1566 12.3352L7.64249 8.82191C7.63506 8.81448 7.62778 8.80693 7.62067 8.79925L1.91075 3.08934C1.58531 2.7639 1.58531 2.23626 1.91075 1.91083ZM9.56819 8.39041L11.6098 10.4315C11.6471 10.2921 11.6665 10.1473 11.6665 10.0005C11.6665 9.55841 11.4909 9.13444 11.1783 8.82184C10.8657 8.50924 10.4417 8.33362 9.99959 8.33362C9.85265 8.33362 9.7077 8.35302 9.56819 8.39041ZM12.8712 11.6935C13.1711 11.1848 13.3331 10.601 13.3331 10.0005C13.3331 9.11639 12.9819 8.26849 12.3568 7.64333C11.7316 7.01816 10.8837 6.66695 9.99959 6.66695C9.39924 6.66695 8.81558 6.8289 8.30703 7.12859L6.86428 5.68584C7.84326 5.23435 8.91249 4.99861 9.99888 5.00008L10 5.00008C13.2645 5.00008 16.0435 7.08605 17.0739 9.99962C16.5929 11.3561 15.7336 12.5435 14.6017 13.4234L12.8712 11.6935ZM3.8531 6.81158C4.22 7.08944 4.29219 7.61211 4.01434 7.97901C3.54932 8.59306 3.18232 9.27487 2.92591 10.0001C3.95627 12.9139 6.73536 15.0001 10 15.0001C10.4721 15.0004 10.9438 14.9565 11.4077 14.8688C11.8599 14.7832 12.2958 15.0805 12.3813 15.5327C12.4668 15.985 12.1696 16.4209 11.7173 16.5064C11.151 16.6135 10.5758 16.6672 9.99937 16.6667C9.99916 16.6667 9.99958 16.6667 9.99937 16.6667C5.89354 16.6665 2.42091 13.9677 1.25251 10.2499C1.20139 10.0873 1.20139 9.91282 1.25253 9.75016C1.56728 8.74898 2.05208 7.80947 2.68567 6.97282C2.96353 6.60592 3.4862 6.53373 3.8531 6.81158Z" fill="#909090"/>
</g>
</svg>
