<svg width="60" height="61" viewBox="0 0 60 61" fill="none" xmlns="http://www.w3.org/2000/svg">
<g id="Payment">
<rect y="0.5" width="60" height="60" rx="20" fill="#0CAF60"/>
<g id="Payment-Icon" clip-path="url(#clip0_3864_7892)">
<path id="Vector" d="M29 20.5L36.298 22.78C36.5015 22.8435 36.6794 22.9705 36.8057 23.1423C36.932 23.3141 37.0001 23.5218 37 23.735V25.5H39C39.2652 25.5 39.5196 25.6054 39.7071 25.7929C39.8946 25.9804 40 26.2348 40 26.5V34.5C40 34.7652 39.8946 35.0196 39.7071 35.2071C39.5196 35.3946 39.2652 35.5 39 35.5L35.78 35.501C35.393 36.011 34.923 36.461 34.38 36.831L29 40.5L23.62 36.832C22.8125 36.2815 22.1518 35.542 21.6951 34.6779C21.2385 33.8138 20.9999 32.8513 21 31.874V23.735C21.0001 23.5219 21.0683 23.3145 21.1946 23.1429C21.3208 22.9713 21.4986 22.8445 21.702 22.781L29 20.5ZM29 22.594L23 24.47V31.874C22.9999 32.4862 23.1402 33.0903 23.4104 33.6397C23.6805 34.1892 24.0731 34.6692 24.558 35.043L24.747 35.179L29 38.08L32.782 35.5H28C27.7348 35.5 27.4804 35.3946 27.2929 35.2071C27.1054 35.0196 27 34.7652 27 34.5V26.5C27 26.2348 27.1054 25.9804 27.2929 25.7929C27.4804 25.6054 27.7348 25.5 28 25.5H35V24.47L29 22.594ZM29 30.5V33.5H38V30.5H29ZM29 28.5H38V27.5H29V28.5Z" fill="white"/>
</g>
</g>
<defs>
<clipPath id="clip0_3864_7892">
<rect width="24" height="24" fill="white" transform="translate(18 18.5)"/>
</clipPath>
</defs>
</svg>
