<svg width="60" height="61" viewBox="0 0 60 61" fill="none" xmlns="http://www.w3.org/2000/svg">
<g id="Payment">
<rect y="0.5" width="60" height="60" rx="20" fill="#0CAF60"/>
<g id="Frame">
<path id="Vector" d="M19.0312 29.0586L27.7354 29.0742L27.8438 29.0791C27.9521 29.0896 28.0585 29.1166 28.1592 29.1592C28.2933 29.2159 28.4147 29.2993 28.5156 29.4043C28.6165 29.5093 28.6948 29.6342 28.7461 29.7705C28.7971 29.9061 28.8197 30.0506 28.8135 30.1953L28.8145 30.1963C28.8029 30.539 28.6345 30.8564 28.3594 31.0684L26.207 33.3896L26.2061 33.3887C26.1615 33.446 26.0171 33.6294 25.8262 33.8018C25.7264 33.8918 25.6118 33.9816 25.4902 34.0488C25.3694 34.1156 25.2353 34.164 25.0986 34.1641H25.0977C24.8442 34.163 24.621 34.0818 24.457 33.9355C24.2928 33.7889 24.1932 33.5815 24.1787 33.3398L24.0635 31.3115V31.3105C24.063 31.3067 24.063 31.3028 24.0625 31.2988L21.1572 31.29C21.3254 33.3825 22.2617 35.3405 23.7891 36.7842C25.3762 38.284 27.4771 39.1084 29.708 39.1084H29.7549C33.1331 39.0904 36.2708 37.2 37.9453 34.1719L38.0303 34.0391C38.2475 33.7449 38.5924 33.5666 38.96 33.5664H38.9609C39.1363 33.566 39.3092 33.6076 39.4648 33.6885L39.5557 33.7412C39.6444 33.7987 39.724 33.8697 39.792 33.9512C39.8825 34.0597 39.9501 34.1852 39.9912 34.3203L40.0195 34.4307C40.0703 34.6889 40.0249 34.9552 39.8955 35.1924V35.1934C37.8075 38.9635 33.8962 41.3205 29.6797 41.3438H29.6221C28.1166 41.3438 26.6639 41.0472 25.3086 40.4658C24.0068 39.9087 22.8311 39.0939 21.8516 38.0713C20.8675 37.0512 20.0991 35.8428 19.5938 34.5186C19.0656 33.1401 18.8258 31.6764 18.8877 30.168L18.9316 29.1543L18.9355 29.0576L19.0312 29.0586Z" fill="white" stroke="white" stroke-width="0.2"/>
<path id="Vector_2" d="M29.917 18.9004C31.4001 18.8955 32.8689 19.1937 34.2324 19.7773L34.7148 19.999C35.8258 20.5434 36.8342 21.2788 37.6934 22.1729C38.6754 23.1948 39.4433 24.4039 39.9502 25.7275C40.4754 27.1058 40.7123 28.5672 40.6543 30.0742V30.0752L40.6113 31.0889L40.6064 31.1846H40.5107L31.8115 31.1748C31.6659 31.1755 31.5218 31.1466 31.3877 31.0898C31.2536 31.0331 31.1321 30.9498 31.0312 30.8447C30.9304 30.7397 30.8521 30.6148 30.8008 30.4785C30.7496 30.3423 30.7268 30.1971 30.7334 30.0518C30.7405 29.8955 30.7782 29.7417 30.8457 29.6006C30.9113 29.4635 31.0036 29.3411 31.1162 29.2393L33.208 26.7344C33.2505 26.6724 33.3852 26.4822 33.5664 26.3008C33.6617 26.2054 33.7723 26.1104 33.8906 26.0371C34.0083 25.9643 34.1403 25.9092 34.2773 25.9033H34.335C34.5754 25.9034 34.7881 25.9778 34.9482 26.1152C35.1088 26.2531 35.2108 26.4495 35.2363 26.6826L35.457 28.6982C35.4576 28.7021 35.4586 28.7049 35.46 28.7119L35.4629 28.7295L35.4678 28.7715L35.4736 28.8174V28.8213L35.4883 28.9502L38.3887 28.959C38.2181 26.8657 37.282 24.9074 35.7549 23.4619C34.1687 21.9629 32.0648 21.1348 29.832 21.1348H29.7871L29.4697 21.1416C26.2012 21.2751 23.1996 23.1544 21.582 26.1045C21.4033 26.4333 21.0798 26.654 20.7178 26.7041L20.5605 26.7148C20.3309 26.7157 20.107 26.6428 19.9219 26.5068C19.783 26.4047 19.6714 26.2712 19.5957 26.1182L19.5322 25.959C19.4884 25.8149 19.474 25.6634 19.4902 25.5137C19.5065 25.3639 19.5531 25.2183 19.627 25.0869C21.7045 21.2971 25.6251 18.9256 29.8604 18.9004H29.917Z" fill="white" stroke="white" stroke-width="0.2"/>
</g>
</g>
</svg>
