<svg width="60" height="61" viewBox="0 0 60 61" fill="none" xmlns="http://www.w3.org/2000/svg">
<g id="Notification">
<rect y="0.5" width="60" height="60" rx="20" fill="#0CAF60"/>
<g id="Frame">
<path id="Vector" d="M22.7515 29.5965C22.5126 29.5966 22.2834 29.6916 22.1145 29.8605C21.9455 30.0294 21.8504 30.2585 21.8503 30.4974V38.6525C21.8504 38.8914 21.9454 39.1204 22.1144 39.2893C22.2833 39.4583 22.5124 39.5532 22.7513 39.5534H37.2499C37.4888 39.5532 37.7179 39.4583 37.8868 39.2893C38.0557 39.1204 38.1507 38.8914 38.1509 38.6525V30.4972C38.1507 30.2583 38.0557 30.0292 37.8867 29.8603C37.7178 29.6914 37.4886 29.5964 37.2497 29.5963H22.7511L22.7515 29.5965ZM37.2499 41.3647H22.7513C21.2562 41.3647 20.0391 40.1476 20.0391 38.6525V30.4972C20.0391 29.0021 21.2562 27.7852 22.7511 27.7852H37.2497C38.7448 27.7852 39.9619 29.0023 39.9619 30.4972V38.6523C39.9619 40.1472 38.7448 41.3644 37.2497 41.3644L37.2499 41.3647Z" fill="white"/>
<path id="Vector_2" d="M35.4335 29.5943H33.6223V25.0664C33.6223 23.0686 31.9977 21.444 30 21.444C28.0022 21.444 26.3776 23.0686 26.3776 25.0664V29.5943H24.5664V25.0664C24.5664 22.0698 27.0034 19.6328 30 19.6328C32.9966 19.6328 35.4335 22.0698 35.4335 25.0664V29.5943ZM30 36.8391C29.5019 36.8391 29.0944 36.4316 29.0944 35.9335V33.2167C29.0944 32.7186 29.5019 32.3111 30 32.3111C30.498 32.3111 30.9056 32.7186 30.9056 33.2167V35.9335C30.9056 36.4316 30.498 36.8391 30 36.8391Z" fill="white"/>
</g>
</g>
</svg>
