<svg width="60" height="61" viewBox="0 0 60 61" fill="none" xmlns="http://www.w3.org/2000/svg">
<g id="Security">
<rect y="0.5" width="60" height="60" rx="20" fill="#0CAF60"/>
<g id="Security_Icon" clip-path="url(#clip0_3864_8191)">
<path id="Vector" d="M21.783 21.326L30 19.5L38.217 21.326C38.4391 21.3754 38.6377 21.499 38.78 21.6764C38.9224 21.8538 39 22.0745 39 22.302V32.289C38.9999 33.2767 38.756 34.2492 38.2899 35.12C37.8238 35.9908 37.1499 36.7331 36.328 37.281L30 41.5L23.672 37.281C22.8503 36.7332 22.1765 35.9911 21.7103 35.1205C21.2442 34.2498 21.0002 33.2776 21 32.29V22.302C21 22.0745 21.0776 21.8538 21.22 21.6764C21.3623 21.499 21.5609 21.3754 21.783 21.326ZM23 23.104V32.289C23 32.9475 23.1626 33.5957 23.4733 34.1763C23.7839 34.7568 24.2332 35.2517 24.781 35.617L30 39.097L35.219 35.617C35.7667 35.2518 36.2158 34.7571 36.5265 34.1767C36.8372 33.5964 36.9998 32.9483 37 32.29V23.104L30 21.55L23 23.104Z" fill="white"/>
</g>
</g>
<defs>
<clipPath id="clip0_3864_8191">
<rect width="24" height="24" fill="white" transform="translate(18 18.5)"/>
</clipPath>
</defs>
</svg>
