<svg width="41" height="41" viewBox="0 0 41 41" fill="none" xmlns="http://www.w3.org/2000/svg">
<g id="Group 37752">
<g id="Group 37589" filter="url(#filter0_d_2827_4225)">
<g id="Polygon 17" filter="url(#filter1_dii_2827_4225)">
<path d="M19.5158 5.68868C20.1346 5.33141 20.897 5.33141 21.5158 5.68868L32.5062 12.034C33.125 12.3912 33.5062 13.0515 33.5062 13.766V26.4566C33.5062 27.1712 33.125 27.8314 32.5062 28.1887L21.5158 34.534C20.897 34.8912 20.1346 34.8912 19.5158 34.534L8.52539 28.1887C7.90659 27.8314 7.52539 27.1712 7.52539 26.4566V13.766C7.52539 13.0515 7.90659 12.3912 8.52539 12.034L19.5158 5.68868Z" fill="url(#paint0_linear_2827_4225)"/>
</g>
<g id="Polygon 18">
<g filter="url(#filter2_ii_2827_4225)">
<path d="M19.5158 8.68819C20.1346 8.33092 20.897 8.33092 21.5158 8.68819L29.9085 13.5337C30.5273 13.891 30.9085 14.5513 30.9085 15.2658V24.9569C30.9085 25.6714 30.5273 26.3317 29.9085 26.6889L21.5158 31.5345C20.897 31.8917 20.1346 31.8917 19.5158 31.5345L11.123 26.6889C10.5042 26.3317 10.123 25.6714 10.123 24.9569V15.2658C10.123 14.5513 10.5042 13.891 11.123 13.5337L19.5158 8.68819Z" fill="url(#paint1_linear_2827_4225)"/>
</g>
<path d="M19.6408 8.9047C20.1822 8.59209 20.8493 8.59209 21.3908 8.9047L29.7835 13.7502C30.3249 14.0628 30.6585 14.6406 30.6585 15.2658V24.9569C30.6585 25.5821 30.3249 26.1598 29.7835 26.4724L21.3908 31.318C20.8493 31.6306 20.1822 31.6306 19.6408 31.318L11.248 26.4724C10.7066 26.1598 10.373 25.5821 10.373 24.9569V15.2658C10.373 14.6406 10.7066 14.0628 11.248 13.7502L19.6408 8.9047Z" stroke="url(#paint2_linear_2827_4225)" stroke-width="0.5"/>
</g>
<g id="2" filter="url(#filter3_d_2827_4225)">
<path d="M16.823 25.0845V23.3146L20.5368 20.0631C20.8152 19.8112 21.0521 19.5809 21.2477 19.3721C21.4432 19.16 21.5924 18.9479 21.6951 18.7357C21.7979 18.5203 21.8493 18.2866 21.8493 18.0347C21.8493 17.753 21.7879 17.5127 21.6653 17.3139C21.5427 17.1117 21.3736 16.9559 21.1582 16.8465C20.9428 16.7371 20.6958 16.6825 20.4174 16.6825C20.1357 16.6825 19.8888 16.7405 19.6767 16.8565C19.4645 16.9692 19.2988 17.1332 19.1795 17.3487C19.0635 17.5641 19.0055 17.8259 19.0055 18.1342H16.6738C16.6738 17.4415 16.8296 16.8432 17.1412 16.3394C17.4527 15.8356 17.8902 15.4478 18.4537 15.1761C19.0204 14.901 19.6783 14.7634 20.4274 14.7634C21.1996 14.7634 21.8708 14.8927 22.4409 15.1512C23.0109 15.4097 23.4518 15.771 23.7633 16.235C24.0782 16.6957 24.2356 17.231 24.2356 17.8408C24.2356 18.2286 24.1577 18.6131 24.002 18.9943C23.8462 19.3754 23.5661 19.7963 23.1618 20.257C22.7607 20.7177 22.1906 21.2696 21.4515 21.9126L20.2335 23.0362V23.1008H24.3599V25.0845H16.823Z" fill="url(#paint3_linear_2827_4225)"/>
</g>
</g>
</g>
<defs>
<filter id="filter0_d_2827_4225" x="6.52539" y="5.42065" width="27.9805" height="31.3813" filterUnits="userSpaceOnUse" color-interpolation-filters="sRGB">
<feFlood flood-opacity="0" result="BackgroundImageFix"/>
<feColorMatrix in="SourceAlpha" type="matrix" values="0 0 0 0 0 0 0 0 0 0 0 0 0 0 0 0 0 0 127 0" result="hardAlpha"/>
<feOffset dy="1"/>
<feGaussianBlur stdDeviation="0.5"/>
<feComposite in2="hardAlpha" operator="out"/>
<feColorMatrix type="matrix" values="0 0 0 0 0 0 0 0 0 0 0 0 0 0 0 0 0 0 0.2 0"/>
<feBlend mode="normal" in2="BackgroundImageFix" result="effect1_dropShadow_2827_4225"/>
<feBlend mode="normal" in="SourceGraphic" in2="effect1_dropShadow_2827_4225" result="shape"/>
</filter>
<filter id="filter1_dii_2827_4225" x="7.52539" y="5.42065" width="25.9805" height="29.8813" filterUnits="userSpaceOnUse" color-interpolation-filters="sRGB">
<feFlood flood-opacity="0" result="BackgroundImageFix"/>
<feColorMatrix in="SourceAlpha" type="matrix" values="0 0 0 0 0 0 0 0 0 0 0 0 0 0 0 0 0 0 127 0" result="hardAlpha"/>
<feOffset dy="0.5"/>
<feComposite in2="hardAlpha" operator="out"/>
<feColorMatrix type="matrix" values="0 0 0 0 0 0 0 0 0 0.309386 0 0 0 0 0.515643 0 0 0 1 0"/>
<feBlend mode="normal" in2="BackgroundImageFix" result="effect1_dropShadow_2827_4225"/>
<feBlend mode="normal" in="SourceGraphic" in2="effect1_dropShadow_2827_4225" result="shape"/>
<feColorMatrix in="SourceAlpha" type="matrix" values="0 0 0 0 0 0 0 0 0 0 0 0 0 0 0 0 0 0 127 0" result="hardAlpha"/>
<feOffset dy="0.3"/>
<feComposite in2="hardAlpha" operator="arithmetic" k2="-1" k3="1"/>
<feColorMatrix type="matrix" values="0 0 0 0 1 0 0 0 0 1 0 0 0 0 1 0 0 0 0.67 0"/>
<feBlend mode="normal" in2="shape" result="effect2_innerShadow_2827_4225"/>
<feColorMatrix in="SourceAlpha" type="matrix" values="0 0 0 0 0 0 0 0 0 0 0 0 0 0 0 0 0 0 127 0" result="hardAlpha"/>
<feOffset dx="0.2" dy="0.1"/>
<feComposite in2="hardAlpha" operator="arithmetic" k2="-1" k3="1"/>
<feColorMatrix type="matrix" values="0 0 0 0 1 0 0 0 0 1 0 0 0 0 1 0 0 0 0.6 0"/>
<feBlend mode="normal" in2="effect2_innerShadow_2827_4225" result="effect3_innerShadow_2827_4225"/>
</filter>
<filter id="filter2_ii_2827_4225" x="10.123" y="7.92017" width="20.7852" height="24.3823" filterUnits="userSpaceOnUse" color-interpolation-filters="sRGB">
<feFlood flood-opacity="0" result="BackgroundImageFix"/>
<feBlend mode="normal" in="SourceGraphic" in2="BackgroundImageFix" result="shape"/>
<feColorMatrix in="SourceAlpha" type="matrix" values="0 0 0 0 0 0 0 0 0 0 0 0 0 0 0 0 0 0 127 0" result="hardAlpha"/>
<feOffset dy="-0.5"/>
<feGaussianBlur stdDeviation="0.25"/>
<feComposite in2="hardAlpha" operator="arithmetic" k2="-1" k3="1"/>
<feColorMatrix type="matrix" values="0 0 0 0 0.046644 0 0 0 0 0.431818 0 0 0 0 0.668849 0 0 0 1 0"/>
<feBlend mode="normal" in2="shape" result="effect1_innerShadow_2827_4225"/>
<feColorMatrix in="SourceAlpha" type="matrix" values="0 0 0 0 0 0 0 0 0 0 0 0 0 0 0 0 0 0 127 0" result="hardAlpha"/>
<feOffset dy="0.5"/>
<feGaussianBlur stdDeviation="0.25"/>
<feComposite in2="hardAlpha" operator="arithmetic" k2="-1" k3="1"/>
<feColorMatrix type="matrix" values="0 0 0 0 0.294685 0 0 0 0 0.946769 0 0 0 0 1 0 0 0 1 0"/>
<feBlend mode="normal" in2="effect1_innerShadow_2827_4225" result="effect2_innerShadow_2827_4225"/>
</filter>
<filter id="filter3_d_2827_4225" x="16.6738" y="14.7634" width="7.68555" height="11.121" filterUnits="userSpaceOnUse" color-interpolation-filters="sRGB">
<feFlood flood-opacity="0" result="BackgroundImageFix"/>
<feColorMatrix in="SourceAlpha" type="matrix" values="0 0 0 0 0 0 0 0 0 0 0 0 0 0 0 0 0 0 127 0" result="hardAlpha"/>
<feOffset dy="0.8"/>
<feComposite in2="hardAlpha" operator="out"/>
<feColorMatrix type="matrix" values="0 0 0 0 0 0 0 0 0 0 0 0 0 0 0 0 0 0 0.27 0"/>
<feBlend mode="normal" in2="BackgroundImageFix" result="effect1_dropShadow_2827_4225"/>
<feBlend mode="normal" in="SourceGraphic" in2="effect1_dropShadow_2827_4225" result="shape"/>
</filter>
<linearGradient id="paint0_linear_2827_4225" x1="20.5158" y1="5.11133" x2="20.5158" y2="35.1113" gradientUnits="userSpaceOnUse">
<stop stop-color="#8EF7F9"/>
<stop offset="1" stop-color="#0FA2D2"/>
</linearGradient>
<linearGradient id="paint1_linear_2827_4225" x1="20.5158" y1="8.11084" x2="20.5158" y2="32.1118" gradientUnits="userSpaceOnUse">
<stop stop-color="#59F4F6"/>
<stop offset="1" stop-color="#2583D0"/>
</linearGradient>
<linearGradient id="paint2_linear_2827_4225" x1="20.5158" y1="8.11084" x2="20.5158" y2="32.1118" gradientUnits="userSpaceOnUse">
<stop stop-color="#2C93D5"/>
<stop offset="1" stop-color="#54EAF2"/>
</linearGradient>
<linearGradient id="paint3_linear_2827_4225" x1="25.0361" y1="12.0578" x2="25.0361" y2="28.0845" gradientUnits="userSpaceOnUse">
<stop stop-color="white"/>
<stop offset="1" stop-color="#6DE1EF"/>
</linearGradient>
</defs>
</svg>
