<svg width="41" height="41" viewBox="0 0 41 41" fill="none" xmlns="http://www.w3.org/2000/svg">
<g id="Group 37749">
<g id="Group 37592" filter="url(#filter0_d_2827_4222)">
<g id="Group 37587">
<path id="Vector 837" d="M29.7811 35.6383V29.2083L23.8672 31.8491L29.7811 35.6383Z" fill="#6B809A"/>
<path id="Vector 838" d="M11.2501 35.6383V29.2083L17.1641 31.8491L11.2501 35.6383Z" fill="#6B809A"/>
</g>
<g id="Group 37585">
<g id="Vector 834" filter="url(#filter1_i_2827_4222)">
<path d="M36.0377 17.9781L30.6074 21.3293V25.466L35.3984 23.0517C35.7047 22.8974 35.9105 22.5969 35.9437 22.2556L36.3418 18.1677C36.3578 18.0031 36.1784 17.8913 36.0377 17.9781Z" fill="#8DAAD1"/>
</g>
<g id="Vector 833" filter="url(#filter2_i_2827_4222)">
<path d="M36.9986 14.756L31.5684 18.1072V22.2438L36.3594 19.8295C36.6656 19.6752 36.8714 19.3747 36.9047 19.0334L37.3027 14.9456C37.3187 14.7809 37.1394 14.6691 36.9986 14.756Z" fill="#8DAAD1"/>
</g>
<g id="Vector 832" filter="url(#filter3_i_2827_4222)">
<path d="M37.8521 11.224L32.4219 14.5752V18.7118L37.2129 16.2976C37.5191 16.1432 37.7249 15.8428 37.7582 15.5014L38.1562 11.4136C38.1723 11.2489 37.9929 11.1371 37.8521 11.224Z" fill="#8DAAD1"/>
</g>
<path id="Rectangle 8829" d="M32.7656 14.375L33.7793 13.7383V23.8672L32.7656 24.3594V14.375Z" fill="black" fill-opacity="0.11"/>
</g>
<g id="Group 37586">
<g id="Vector 834_2" filter="url(#filter4_i_2827_4222)">
<path d="M4.99357 17.9781L10.4238 21.3293V25.466L5.63281 23.0517C5.32657 22.8974 5.12076 22.5969 5.08752 22.2556L4.68947 18.1677C4.67344 18.0031 4.85281 17.8913 4.99357 17.9781Z" fill="#8DAAD1"/>
</g>
<g id="Vector 833_2" filter="url(#filter5_i_2827_4222)">
<path d="M4.03263 14.756L9.46289 18.1072V22.2438L4.67187 19.8295C4.36563 19.6752 4.15982 19.3747 4.12658 19.0334L3.72854 14.9456C3.7125 14.7809 3.89187 14.6691 4.03263 14.756Z" fill="#8DAAD1"/>
</g>
<g id="Vector 832_2" filter="url(#filter6_i_2827_4222)">
<path d="M3.17911 11.224L8.60938 14.5752V18.7118L3.81836 16.2976C3.51211 16.1432 3.3063 15.8428 3.27307 15.5014L2.87502 11.4136C2.85899 11.2489 3.03835 11.1371 3.17911 11.224Z" fill="#8DAAD1"/>
</g>
<path id="Rectangle 8829_2" d="M8.26562 14.375L7.25195 13.7383V23.8672L8.26562 24.3594V14.375Z" fill="black" fill-opacity="0.11"/>
</g>
<g id="Polygon 23" filter="url(#filter7_dii_2827_4222)">
<path d="M19.5158 5.16182C20.1346 4.80456 20.897 4.80456 21.5158 5.16182L32.5062 11.5071C33.125 11.8644 33.5062 12.5246 33.5062 13.2392V25.9298C33.5062 26.6443 33.125 27.3046 32.5062 27.6618L21.5158 34.0071C20.897 34.3644 20.1346 34.3644 19.5158 34.0071L8.52539 27.6618C7.90659 27.3046 7.52539 26.6443 7.52539 25.9298V13.2392C7.52539 12.5246 7.90659 11.8644 8.52539 11.5071L19.5158 5.16182Z" fill="url(#paint0_linear_2827_4222)"/>
</g>
<g id="Polygon 24">
<g filter="url(#filter8_ii_2827_4222)">
<path d="M19.5158 8.16133C20.1346 7.80407 20.897 7.80407 21.5158 8.16133L29.9085 13.0069C30.5273 13.3641 30.9085 14.0244 30.9085 14.7389V24.43C30.9085 25.1445 30.5273 25.8048 29.9085 26.1621L21.5158 31.0076C20.897 31.3649 20.1346 31.3649 19.5158 31.0076L11.123 26.1621C10.5042 25.8048 10.123 25.1445 10.123 24.43V14.7389C10.123 14.0244 10.5042 13.3641 11.123 13.0069L19.5158 8.16133Z" fill="url(#paint1_linear_2827_4222)"/>
</g>
<path d="M19.6408 8.37784C20.1822 8.06523 20.8493 8.06523 21.3908 8.37784L29.7835 13.2234C30.3249 13.536 30.6585 14.1137 30.6585 14.7389V24.43C30.6585 25.0552 30.3249 25.6329 29.7835 25.9456L21.3908 30.7911C20.8493 31.1037 20.1822 31.1037 19.6408 30.7911L11.248 25.9456C10.7066 25.6329 10.373 25.0552 10.373 24.43V14.7389C10.373 14.1137 10.7066 13.536 11.248 13.2234L19.6408 8.37784Z" stroke="url(#paint2_linear_2827_4222)" stroke-width="0.5"/>
</g>
<g id="5" filter="url(#filter9_d_2827_4222)">
<path d="M20.4703 24.0332C19.7279 24.0332 19.0684 23.8989 18.4917 23.6305C17.915 23.362 17.4592 22.9925 17.1245 22.5218C16.793 22.0512 16.6207 21.5109 16.6074 20.9011H18.9938C19.0137 21.2756 19.1661 21.5772 19.4512 21.8059C19.7362 22.0313 20.0759 22.144 20.4703 22.144C20.7786 22.144 21.052 22.076 21.2907 21.9401C21.5293 21.8043 21.7166 21.6137 21.8525 21.3684C21.9883 21.1198 22.0546 20.8348 22.0513 20.5133C22.0546 20.1852 21.9867 19.8985 21.8475 19.6532C21.7116 19.4079 21.5227 19.2174 21.2807 19.0815C21.0421 18.9423 20.767 18.8727 20.4554 18.8727C20.1605 18.8694 19.8804 18.934 19.6152 19.0666C19.3534 19.1991 19.1545 19.3798 19.0186 19.6085L16.8461 19.2008L17.2885 13.7122H23.8212V15.6958H19.312L19.0783 18.0971H19.138C19.307 17.8154 19.5788 17.5834 19.9533 17.4011C20.3311 17.2155 20.7604 17.1227 21.2409 17.1227C21.8508 17.1227 22.3944 17.2652 22.8716 17.5502C23.3522 17.832 23.7301 18.223 24.0051 18.7235C24.2836 19.224 24.4228 19.7974 24.4228 20.4437C24.4228 21.143 24.257 21.7628 23.9256 22.3031C23.5975 22.8433 23.1368 23.2676 22.5435 23.5758C21.9535 23.8807 21.2625 24.0332 20.4703 24.0332Z" fill="url(#paint3_linear_2827_4222)"/>
</g>
</g>
</g>
<defs>
<filter id="filter0_d_2827_4222" x="1.87305" y="4.8938" width="37.2852" height="32.7444" filterUnits="userSpaceOnUse" color-interpolation-filters="sRGB">
<feFlood flood-opacity="0" result="BackgroundImageFix"/>
<feColorMatrix in="SourceAlpha" type="matrix" values="0 0 0 0 0 0 0 0 0 0 0 0 0 0 0 0 0 0 127 0" result="hardAlpha"/>
<feOffset dy="1"/>
<feGaussianBlur stdDeviation="0.5"/>
<feComposite in2="hardAlpha" operator="out"/>
<feColorMatrix type="matrix" values="0 0 0 0 0 0 0 0 0 0 0 0 0 0 0 0 0 0 0.2 0"/>
<feBlend mode="normal" in2="BackgroundImageFix" result="effect1_dropShadow_2827_4222"/>
<feBlend mode="normal" in="SourceGraphic" in2="effect1_dropShadow_2827_4222" result="shape"/>
</filter>
<filter id="filter1_i_2827_4222" x="30.6074" y="17.948" width="5.73633" height="7.51807" filterUnits="userSpaceOnUse" color-interpolation-filters="sRGB">
<feFlood flood-opacity="0" result="BackgroundImageFix"/>
<feBlend mode="normal" in="SourceGraphic" in2="BackgroundImageFix" result="shape"/>
<feColorMatrix in="SourceAlpha" type="matrix" values="0 0 0 0 0 0 0 0 0 0 0 0 0 0 0 0 0 0 127 0" result="hardAlpha"/>
<feOffset dx="1" dy="-1.2"/>
<feComposite in2="hardAlpha" operator="arithmetic" k2="-1" k3="1"/>
<feColorMatrix type="matrix" values="0 0 0 0 0 0 0 0 0 0 0 0 0 0 0 0 0 0 0.25 0"/>
<feBlend mode="normal" in2="shape" result="effect1_innerShadow_2827_4222"/>
</filter>
<filter id="filter2_i_2827_4222" x="31.5684" y="14.7258" width="5.73633" height="7.51807" filterUnits="userSpaceOnUse" color-interpolation-filters="sRGB">
<feFlood flood-opacity="0" result="BackgroundImageFix"/>
<feBlend mode="normal" in="SourceGraphic" in2="BackgroundImageFix" result="shape"/>
<feColorMatrix in="SourceAlpha" type="matrix" values="0 0 0 0 0 0 0 0 0 0 0 0 0 0 0 0 0 0 127 0" result="hardAlpha"/>
<feOffset dx="1" dy="-1.2"/>
<feComposite in2="hardAlpha" operator="arithmetic" k2="-1" k3="1"/>
<feColorMatrix type="matrix" values="0 0 0 0 0 0 0 0 0 0 0 0 0 0 0 0 0 0 0.25 0"/>
<feBlend mode="normal" in2="shape" result="effect1_innerShadow_2827_4222"/>
</filter>
<filter id="filter3_i_2827_4222" x="32.4219" y="11.1938" width="5.73633" height="7.51807" filterUnits="userSpaceOnUse" color-interpolation-filters="sRGB">
<feFlood flood-opacity="0" result="BackgroundImageFix"/>
<feBlend mode="normal" in="SourceGraphic" in2="BackgroundImageFix" result="shape"/>
<feColorMatrix in="SourceAlpha" type="matrix" values="0 0 0 0 0 0 0 0 0 0 0 0 0 0 0 0 0 0 127 0" result="hardAlpha"/>
<feOffset dx="1" dy="-1.2"/>
<feComposite in2="hardAlpha" operator="arithmetic" k2="-1" k3="1"/>
<feColorMatrix type="matrix" values="0 0 0 0 0 0 0 0 0 0 0 0 0 0 0 0 0 0 0.25 0"/>
<feBlend mode="normal" in2="shape" result="effect1_innerShadow_2827_4222"/>
</filter>
<filter id="filter4_i_2827_4222" x="4.6875" y="17.948" width="5.73633" height="7.51807" filterUnits="userSpaceOnUse" color-interpolation-filters="sRGB">
<feFlood flood-opacity="0" result="BackgroundImageFix"/>
<feBlend mode="normal" in="SourceGraphic" in2="BackgroundImageFix" result="shape"/>
<feColorMatrix in="SourceAlpha" type="matrix" values="0 0 0 0 0 0 0 0 0 0 0 0 0 0 0 0 0 0 127 0" result="hardAlpha"/>
<feOffset dx="-1" dy="-1.2"/>
<feComposite in2="hardAlpha" operator="arithmetic" k2="-1" k3="1"/>
<feColorMatrix type="matrix" values="0 0 0 0 0 0 0 0 0 0 0 0 0 0 0 0 0 0 0.25 0"/>
<feBlend mode="normal" in2="shape" result="effect1_innerShadow_2827_4222"/>
</filter>
<filter id="filter5_i_2827_4222" x="3.72656" y="14.7258" width="5.73633" height="7.51807" filterUnits="userSpaceOnUse" color-interpolation-filters="sRGB">
<feFlood flood-opacity="0" result="BackgroundImageFix"/>
<feBlend mode="normal" in="SourceGraphic" in2="BackgroundImageFix" result="shape"/>
<feColorMatrix in="SourceAlpha" type="matrix" values="0 0 0 0 0 0 0 0 0 0 0 0 0 0 0 0 0 0 127 0" result="hardAlpha"/>
<feOffset dx="-1" dy="-1.2"/>
<feComposite in2="hardAlpha" operator="arithmetic" k2="-1" k3="1"/>
<feColorMatrix type="matrix" values="0 0 0 0 0 0 0 0 0 0 0 0 0 0 0 0 0 0 0.25 0"/>
<feBlend mode="normal" in2="shape" result="effect1_innerShadow_2827_4222"/>
</filter>
<filter id="filter6_i_2827_4222" x="2.87305" y="11.1938" width="5.73633" height="7.51807" filterUnits="userSpaceOnUse" color-interpolation-filters="sRGB">
<feFlood flood-opacity="0" result="BackgroundImageFix"/>
<feBlend mode="normal" in="SourceGraphic" in2="BackgroundImageFix" result="shape"/>
<feColorMatrix in="SourceAlpha" type="matrix" values="0 0 0 0 0 0 0 0 0 0 0 0 0 0 0 0 0 0 127 0" result="hardAlpha"/>
<feOffset dx="-1" dy="-1.2"/>
<feComposite in2="hardAlpha" operator="arithmetic" k2="-1" k3="1"/>
<feColorMatrix type="matrix" values="0 0 0 0 0 0 0 0 0 0 0 0 0 0 0 0 0 0 0.25 0"/>
<feBlend mode="normal" in2="shape" result="effect1_innerShadow_2827_4222"/>
</filter>
<filter id="filter7_dii_2827_4222" x="7.52539" y="4.8938" width="25.9805" height="29.8813" filterUnits="userSpaceOnUse" color-interpolation-filters="sRGB">
<feFlood flood-opacity="0" result="BackgroundImageFix"/>
<feColorMatrix in="SourceAlpha" type="matrix" values="0 0 0 0 0 0 0 0 0 0 0 0 0 0 0 0 0 0 127 0" result="hardAlpha"/>
<feOffset dy="0.5"/>
<feComposite in2="hardAlpha" operator="out"/>
<feColorMatrix type="matrix" values="0 0 0 0 0.352388 0 0 0 0 0.451316 0 0 0 0 0.587931 0 0 0 1 0"/>
<feBlend mode="normal" in2="BackgroundImageFix" result="effect1_dropShadow_2827_4222"/>
<feBlend mode="normal" in="SourceGraphic" in2="effect1_dropShadow_2827_4222" result="shape"/>
<feColorMatrix in="SourceAlpha" type="matrix" values="0 0 0 0 0 0 0 0 0 0 0 0 0 0 0 0 0 0 127 0" result="hardAlpha"/>
<feOffset dy="0.3"/>
<feComposite in2="hardAlpha" operator="arithmetic" k2="-1" k3="1"/>
<feColorMatrix type="matrix" values="0 0 0 0 1 0 0 0 0 1 0 0 0 0 1 0 0 0 0.67 0"/>
<feBlend mode="normal" in2="shape" result="effect2_innerShadow_2827_4222"/>
<feColorMatrix in="SourceAlpha" type="matrix" values="0 0 0 0 0 0 0 0 0 0 0 0 0 0 0 0 0 0 127 0" result="hardAlpha"/>
<feOffset dx="0.2" dy="0.1"/>
<feComposite in2="hardAlpha" operator="arithmetic" k2="-1" k3="1"/>
<feColorMatrix type="matrix" values="0 0 0 0 1 0 0 0 0 1 0 0 0 0 1 0 0 0 0.6 0"/>
<feBlend mode="normal" in2="effect2_innerShadow_2827_4222" result="effect3_innerShadow_2827_4222"/>
</filter>
<filter id="filter8_ii_2827_4222" x="10.123" y="7.39331" width="20.7852" height="24.3823" filterUnits="userSpaceOnUse" color-interpolation-filters="sRGB">
<feFlood flood-opacity="0" result="BackgroundImageFix"/>
<feBlend mode="normal" in="SourceGraphic" in2="BackgroundImageFix" result="shape"/>
<feColorMatrix in="SourceAlpha" type="matrix" values="0 0 0 0 0 0 0 0 0 0 0 0 0 0 0 0 0 0 127 0" result="hardAlpha"/>
<feOffset dy="-0.5"/>
<feGaussianBlur stdDeviation="0.25"/>
<feComposite in2="hardAlpha" operator="arithmetic" k2="-1" k3="1"/>
<feColorMatrix type="matrix" values="0 0 0 0 0.383917 0 0 0 0 0.483701 0 0 0 0 0.633376 0 0 0 1 0"/>
<feBlend mode="normal" in2="shape" result="effect1_innerShadow_2827_4222"/>
<feColorMatrix in="SourceAlpha" type="matrix" values="0 0 0 0 0 0 0 0 0 0 0 0 0 0 0 0 0 0 127 0" result="hardAlpha"/>
<feOffset dy="0.5"/>
<feGaussianBlur stdDeviation="0.25"/>
<feComposite in2="hardAlpha" operator="arithmetic" k2="-1" k3="1"/>
<feColorMatrix type="matrix" values="0 0 0 0 0.835975 0 0 0 0 0.9122 0 0 0 0 0.996449 0 0 0 1 0"/>
<feBlend mode="normal" in2="effect1_innerShadow_2827_4222" result="effect2_innerShadow_2827_4222"/>
</filter>
<filter id="filter9_d_2827_4222" x="15.6074" y="13.7122" width="9.81445" height="12.321" filterUnits="userSpaceOnUse" color-interpolation-filters="sRGB">
<feFlood flood-opacity="0" result="BackgroundImageFix"/>
<feColorMatrix in="SourceAlpha" type="matrix" values="0 0 0 0 0 0 0 0 0 0 0 0 0 0 0 0 0 0 127 0" result="hardAlpha"/>
<feOffset dy="1"/>
<feGaussianBlur stdDeviation="0.5"/>
<feComposite in2="hardAlpha" operator="out"/>
<feColorMatrix type="matrix" values="0 0 0 0 0 0 0 0 0 0 0 0 0 0 0 0 0 0 0.2 0"/>
<feBlend mode="normal" in2="BackgroundImageFix" result="effect1_dropShadow_2827_4222"/>
<feBlend mode="normal" in="SourceGraphic" in2="effect1_dropShadow_2827_4222" result="shape"/>
</filter>
<linearGradient id="paint0_linear_2827_4222" x1="20.5158" y1="4.58447" x2="20.5158" y2="34.5845" gradientUnits="userSpaceOnUse">
<stop stop-color="#C1D2E8"/>
<stop offset="1" stop-color="#7E92AD"/>
</linearGradient>
<linearGradient id="paint1_linear_2827_4222" x1="20.5158" y1="7.58398" x2="20.5158" y2="31.585" gradientUnits="userSpaceOnUse">
<stop stop-color="#BACBE1"/>
<stop offset="1" stop-color="#637892"/>
</linearGradient>
<linearGradient id="paint2_linear_2827_4222" x1="20.5158" y1="7.58398" x2="20.5158" y2="31.585" gradientUnits="userSpaceOnUse">
<stop stop-color="#899DB7"/>
<stop offset="1" stop-color="#BECFE5"/>
</linearGradient>
<linearGradient id="paint3_linear_2827_4222" x1="25.8223" y1="12.4828" x2="25.8223" y2="26.894" gradientUnits="userSpaceOnUse">
<stop stop-color="white"/>
<stop offset="1" stop-color="#95AED2"/>
</linearGradient>
</defs>
</svg>
