<svg width="41" height="41" viewBox="0 0 41 41" fill="none" xmlns="http://www.w3.org/2000/svg">
<g id="Group 37748">
<g id="Group 37593" filter="url(#filter0_d_2827_4221)">
<g id="Group 37587">
<path id="Vector 837" d="M29.7811 35.638V29.208L23.8672 31.8489L29.7811 35.638Z" fill="#035FDD"/>
<path id="Vector 838" d="M11.2501 35.638V29.208L17.1641 31.8489L11.2501 35.638Z" fill="#035FDD"/>
</g>
<g id="Group 37585">
<g id="Vector 834" filter="url(#filter1_i_2827_4221)">
<path d="M36.0377 17.9784L30.6074 21.3296V25.4662L35.3984 23.052C35.7047 22.8976 35.9105 22.5972 35.9437 22.2558L36.3418 18.168C36.3578 18.0033 36.1784 17.8915 36.0377 17.9784Z" fill="#4995FC"/>
</g>
<g id="Vector 833" filter="url(#filter2_i_2827_4221)">
<path d="M36.9986 14.7557L31.5684 18.1069V22.2435L36.3594 19.8293C36.6656 19.675 36.8714 19.3745 36.9047 19.0332L37.3027 14.9453C37.3187 14.7807 37.1394 14.6689 36.9986 14.7557Z" fill="#4995FC"/>
</g>
<g id="Vector 832" filter="url(#filter3_i_2827_4221)">
<path d="M37.8521 11.224L32.4219 14.5752V18.7118L37.2129 16.2976C37.5191 16.1432 37.7249 15.8428 37.7582 15.5014L38.1562 11.4136C38.1723 11.2489 37.9929 11.1371 37.8521 11.224Z" fill="#4995FC"/>
</g>
<path id="Rectangle 8829" d="M32.7656 14.375L33.7793 13.7383V23.8672L32.7656 24.3594V14.375Z" fill="black" fill-opacity="0.11"/>
</g>
<g id="Group 37586">
<g id="Vector 834_2" filter="url(#filter4_i_2827_4221)">
<path d="M4.99357 17.9784L10.4238 21.3296V25.4662L5.63281 23.052C5.32657 22.8976 5.12076 22.5972 5.08752 22.2558L4.68947 18.168C4.67344 18.0033 4.85281 17.8915 4.99357 17.9784Z" fill="#4995FC"/>
</g>
<g id="Vector 833_2" filter="url(#filter5_i_2827_4221)">
<path d="M4.03263 14.7557L9.46289 18.1069V22.2435L4.67187 19.8293C4.36563 19.675 4.15982 19.3745 4.12658 19.0332L3.72854 14.9453C3.7125 14.7807 3.89187 14.6689 4.03263 14.7557Z" fill="#4995FC"/>
</g>
<g id="Vector 832_2" filter="url(#filter6_i_2827_4221)">
<path d="M3.17911 11.224L8.60938 14.5752V18.7118L3.81836 16.2976C3.51211 16.1432 3.3063 15.8428 3.27307 15.5014L2.87502 11.4136C2.85899 11.2489 3.03835 11.1371 3.17911 11.224Z" fill="#4995FC"/>
</g>
<path id="Rectangle 8829_2" d="M8.26562 14.375L7.25195 13.7383V23.8672L8.26562 24.3594V14.375Z" fill="black" fill-opacity="0.11"/>
</g>
<g id="Polygon 23" filter="url(#filter7_dii_2827_4221)">
<path d="M19.5158 5.16182C20.1346 4.80456 20.897 4.80456 21.5158 5.16182L32.5062 11.5071C33.125 11.8644 33.5062 12.5246 33.5062 13.2392V25.9298C33.5062 26.6443 33.125 27.3046 32.5062 27.6618L21.5158 34.0071C20.897 34.3644 20.1346 34.3644 19.5158 34.0071L8.52539 27.6618C7.90659 27.3046 7.52539 26.6443 7.52539 25.9298V13.2392C7.52539 12.5246 7.90659 11.8644 8.52539 11.5071L19.5158 5.16182Z" fill="url(#paint0_linear_2827_4221)"/>
</g>
<g id="Polygon 24">
<g filter="url(#filter8_ii_2827_4221)">
<path d="M19.5158 8.16133C20.1346 7.80407 20.897 7.80407 21.5158 8.16133L29.9085 13.0069C30.5273 13.3641 30.9085 14.0244 30.9085 14.7389V24.43C30.9085 25.1445 30.5273 25.8048 29.9085 26.1621L21.5158 31.0076C20.897 31.3649 20.1346 31.3649 19.5158 31.0076L11.123 26.1621C10.5042 25.8048 10.123 25.1445 10.123 24.43V14.7389C10.123 14.0244 10.5042 13.3641 11.123 13.0069L19.5158 8.16133Z" fill="url(#paint1_linear_2827_4221)"/>
</g>
<path d="M19.6408 8.37784C20.1822 8.06523 20.8493 8.06523 21.3908 8.37784L29.7835 13.2234C30.3249 13.536 30.6585 14.1137 30.6585 14.7389V24.43C30.6585 25.0552 30.3249 25.6329 29.7835 25.9456L21.3908 30.7911C20.8493 31.1037 20.1822 31.1037 19.6408 30.7911L11.248 25.9456C10.7066 25.6329 10.373 25.0552 10.373 24.43V14.7389C10.373 14.1137 10.7066 13.536 11.248 13.2234L19.6408 8.37784Z" stroke="url(#paint2_linear_2827_4221)" stroke-width="0.5"/>
</g>
<g id="6" filter="url(#filter9_d_2827_4221)">
<path d="M20.6647 24.3509C20.1078 24.3509 19.5742 24.2614 19.0638 24.0824C18.5534 23.9001 18.0993 23.6117 17.7016 23.2173C17.3039 22.8196 16.9907 22.2992 16.762 21.6562C16.5333 21.0099 16.4206 20.2228 16.4239 19.2947C16.4272 18.4562 16.53 17.7038 16.7321 17.0376C16.9343 16.3681 17.2227 15.7997 17.5972 15.3324C17.975 14.8651 18.4258 14.5088 18.9495 14.2635C19.4765 14.0149 20.0648 13.8906 20.7144 13.8906C21.427 13.8906 22.0551 14.0298 22.5986 14.3082C23.1455 14.5833 23.583 14.9545 23.9111 15.4219C24.2392 15.8859 24.4331 16.4029 24.4928 16.973H22.0716C21.9987 16.6515 21.838 16.4079 21.5894 16.2422C21.3441 16.0732 21.0525 15.9886 20.7144 15.9886C20.0913 15.9886 19.6256 16.2588 19.3174 16.799C19.0124 17.3393 18.8567 18.0618 18.85 18.9666H18.9147C19.0539 18.6617 19.2544 18.3999 19.5162 18.1811C19.7781 17.9624 20.078 17.795 20.4161 17.679C20.7575 17.5597 21.1187 17.5 21.4999 17.5C22.1097 17.5 22.6483 17.6409 23.1157 17.9226C23.583 18.2043 23.9492 18.5904 24.2144 19.081C24.4795 19.5682 24.6105 20.1267 24.6071 20.7564C24.6105 21.4657 24.4447 22.0921 24.11 22.6357C23.7752 23.1759 23.3112 23.5968 22.7179 23.8984C22.128 24.2 21.4435 24.3509 20.6647 24.3509ZM20.6498 22.4616C20.9514 22.4616 21.2215 22.3904 21.4601 22.2479C21.6988 22.1054 21.886 21.9115 22.0219 21.6662C22.1578 21.4209 22.2241 21.1442 22.2208 20.8359C22.2241 20.5244 22.1578 20.2476 22.0219 20.0057C21.8893 19.7637 21.7037 19.5715 21.4651 19.429C21.2298 19.2865 20.9596 19.2152 20.6547 19.2152C20.4327 19.2152 20.2255 19.2566 20.0333 19.3395C19.841 19.4223 19.6737 19.5384 19.5311 19.6875C19.3919 19.8333 19.2826 20.0057 19.203 20.2045C19.1235 20.4001 19.082 20.6122 19.0787 20.8409C19.082 21.1425 19.1516 21.416 19.2875 21.6612C19.4234 21.9065 19.609 22.102 19.8444 22.2479C20.0797 22.3904 20.3481 22.4616 20.6498 22.4616Z" fill="url(#paint3_linear_2827_4221)"/>
</g>
</g>
</g>
<defs>
<filter id="filter0_d_2827_4221" x="1.87305" y="4.89404" width="37.2852" height="32.7441" filterUnits="userSpaceOnUse" color-interpolation-filters="sRGB">
<feFlood flood-opacity="0" result="BackgroundImageFix"/>
<feColorMatrix in="SourceAlpha" type="matrix" values="0 0 0 0 0 0 0 0 0 0 0 0 0 0 0 0 0 0 127 0" result="hardAlpha"/>
<feOffset dy="1"/>
<feGaussianBlur stdDeviation="0.5"/>
<feComposite in2="hardAlpha" operator="out"/>
<feColorMatrix type="matrix" values="0 0 0 0 0 0 0 0 0 0 0 0 0 0 0 0 0 0 0.2 0"/>
<feBlend mode="normal" in2="BackgroundImageFix" result="effect1_dropShadow_2827_4221"/>
<feBlend mode="normal" in="SourceGraphic" in2="effect1_dropShadow_2827_4221" result="shape"/>
</filter>
<filter id="filter1_i_2827_4221" x="30.6074" y="17.9482" width="5.73633" height="7.51807" filterUnits="userSpaceOnUse" color-interpolation-filters="sRGB">
<feFlood flood-opacity="0" result="BackgroundImageFix"/>
<feBlend mode="normal" in="SourceGraphic" in2="BackgroundImageFix" result="shape"/>
<feColorMatrix in="SourceAlpha" type="matrix" values="0 0 0 0 0 0 0 0 0 0 0 0 0 0 0 0 0 0 127 0" result="hardAlpha"/>
<feOffset dx="1" dy="-1.2"/>
<feComposite in2="hardAlpha" operator="arithmetic" k2="-1" k3="1"/>
<feColorMatrix type="matrix" values="0 0 0 0 0 0 0 0 0 0 0 0 0 0 0 0 0 0 0.25 0"/>
<feBlend mode="normal" in2="shape" result="effect1_innerShadow_2827_4221"/>
</filter>
<filter id="filter2_i_2827_4221" x="31.5684" y="14.7256" width="5.73633" height="7.51807" filterUnits="userSpaceOnUse" color-interpolation-filters="sRGB">
<feFlood flood-opacity="0" result="BackgroundImageFix"/>
<feBlend mode="normal" in="SourceGraphic" in2="BackgroundImageFix" result="shape"/>
<feColorMatrix in="SourceAlpha" type="matrix" values="0 0 0 0 0 0 0 0 0 0 0 0 0 0 0 0 0 0 127 0" result="hardAlpha"/>
<feOffset dx="1" dy="-1.2"/>
<feComposite in2="hardAlpha" operator="arithmetic" k2="-1" k3="1"/>
<feColorMatrix type="matrix" values="0 0 0 0 0 0 0 0 0 0 0 0 0 0 0 0 0 0 0.25 0"/>
<feBlend mode="normal" in2="shape" result="effect1_innerShadow_2827_4221"/>
</filter>
<filter id="filter3_i_2827_4221" x="32.4219" y="11.1938" width="5.73633" height="7.51807" filterUnits="userSpaceOnUse" color-interpolation-filters="sRGB">
<feFlood flood-opacity="0" result="BackgroundImageFix"/>
<feBlend mode="normal" in="SourceGraphic" in2="BackgroundImageFix" result="shape"/>
<feColorMatrix in="SourceAlpha" type="matrix" values="0 0 0 0 0 0 0 0 0 0 0 0 0 0 0 0 0 0 127 0" result="hardAlpha"/>
<feOffset dx="1" dy="-1.2"/>
<feComposite in2="hardAlpha" operator="arithmetic" k2="-1" k3="1"/>
<feColorMatrix type="matrix" values="0 0 0 0 0 0 0 0 0 0 0 0 0 0 0 0 0 0 0.25 0"/>
<feBlend mode="normal" in2="shape" result="effect1_innerShadow_2827_4221"/>
</filter>
<filter id="filter4_i_2827_4221" x="4.6875" y="17.9482" width="5.73633" height="7.51807" filterUnits="userSpaceOnUse" color-interpolation-filters="sRGB">
<feFlood flood-opacity="0" result="BackgroundImageFix"/>
<feBlend mode="normal" in="SourceGraphic" in2="BackgroundImageFix" result="shape"/>
<feColorMatrix in="SourceAlpha" type="matrix" values="0 0 0 0 0 0 0 0 0 0 0 0 0 0 0 0 0 0 127 0" result="hardAlpha"/>
<feOffset dx="-1" dy="-1.2"/>
<feComposite in2="hardAlpha" operator="arithmetic" k2="-1" k3="1"/>
<feColorMatrix type="matrix" values="0 0 0 0 0 0 0 0 0 0 0 0 0 0 0 0 0 0 0.25 0"/>
<feBlend mode="normal" in2="shape" result="effect1_innerShadow_2827_4221"/>
</filter>
<filter id="filter5_i_2827_4221" x="3.72656" y="14.7256" width="5.73633" height="7.51807" filterUnits="userSpaceOnUse" color-interpolation-filters="sRGB">
<feFlood flood-opacity="0" result="BackgroundImageFix"/>
<feBlend mode="normal" in="SourceGraphic" in2="BackgroundImageFix" result="shape"/>
<feColorMatrix in="SourceAlpha" type="matrix" values="0 0 0 0 0 0 0 0 0 0 0 0 0 0 0 0 0 0 127 0" result="hardAlpha"/>
<feOffset dx="-1" dy="-1.2"/>
<feComposite in2="hardAlpha" operator="arithmetic" k2="-1" k3="1"/>
<feColorMatrix type="matrix" values="0 0 0 0 0 0 0 0 0 0 0 0 0 0 0 0 0 0 0.25 0"/>
<feBlend mode="normal" in2="shape" result="effect1_innerShadow_2827_4221"/>
</filter>
<filter id="filter6_i_2827_4221" x="2.87305" y="11.1938" width="5.73633" height="7.51807" filterUnits="userSpaceOnUse" color-interpolation-filters="sRGB">
<feFlood flood-opacity="0" result="BackgroundImageFix"/>
<feBlend mode="normal" in="SourceGraphic" in2="BackgroundImageFix" result="shape"/>
<feColorMatrix in="SourceAlpha" type="matrix" values="0 0 0 0 0 0 0 0 0 0 0 0 0 0 0 0 0 0 127 0" result="hardAlpha"/>
<feOffset dx="-1" dy="-1.2"/>
<feComposite in2="hardAlpha" operator="arithmetic" k2="-1" k3="1"/>
<feColorMatrix type="matrix" values="0 0 0 0 0 0 0 0 0 0 0 0 0 0 0 0 0 0 0.25 0"/>
<feBlend mode="normal" in2="shape" result="effect1_innerShadow_2827_4221"/>
</filter>
<filter id="filter7_dii_2827_4221" x="7.52539" y="4.89404" width="25.9805" height="29.8809" filterUnits="userSpaceOnUse" color-interpolation-filters="sRGB">
<feFlood flood-opacity="0" result="BackgroundImageFix"/>
<feColorMatrix in="SourceAlpha" type="matrix" values="0 0 0 0 0 0 0 0 0 0 0 0 0 0 0 0 0 0 127 0" result="hardAlpha"/>
<feOffset dy="0.5"/>
<feComposite in2="hardAlpha" operator="out"/>
<feColorMatrix type="matrix" values="0 0 0 0 0.247892 0 0 0 0 0.463326 0 0 0 0 0.753334 0 0 0 1 0"/>
<feBlend mode="normal" in2="BackgroundImageFix" result="effect1_dropShadow_2827_4221"/>
<feBlend mode="normal" in="SourceGraphic" in2="effect1_dropShadow_2827_4221" result="shape"/>
<feColorMatrix in="SourceAlpha" type="matrix" values="0 0 0 0 0 0 0 0 0 0 0 0 0 0 0 0 0 0 127 0" result="hardAlpha"/>
<feOffset dy="0.3"/>
<feComposite in2="hardAlpha" operator="arithmetic" k2="-1" k3="1"/>
<feColorMatrix type="matrix" values="0 0 0 0 1 0 0 0 0 1 0 0 0 0 1 0 0 0 0.67 0"/>
<feBlend mode="normal" in2="shape" result="effect2_innerShadow_2827_4221"/>
<feColorMatrix in="SourceAlpha" type="matrix" values="0 0 0 0 0 0 0 0 0 0 0 0 0 0 0 0 0 0 127 0" result="hardAlpha"/>
<feOffset dx="0.2" dy="0.1"/>
<feComposite in2="hardAlpha" operator="arithmetic" k2="-1" k3="1"/>
<feColorMatrix type="matrix" values="0 0 0 0 1 0 0 0 0 1 0 0 0 0 1 0 0 0 0.6 0"/>
<feBlend mode="normal" in2="effect2_innerShadow_2827_4221" result="effect3_innerShadow_2827_4221"/>
</filter>
<filter id="filter8_ii_2827_4221" x="10.123" y="7.39355" width="20.7852" height="24.3818" filterUnits="userSpaceOnUse" color-interpolation-filters="sRGB">
<feFlood flood-opacity="0" result="BackgroundImageFix"/>
<feBlend mode="normal" in="SourceGraphic" in2="BackgroundImageFix" result="shape"/>
<feColorMatrix in="SourceAlpha" type="matrix" values="0 0 0 0 0 0 0 0 0 0 0 0 0 0 0 0 0 0 127 0" result="hardAlpha"/>
<feOffset dy="-0.5"/>
<feGaussianBlur stdDeviation="0.25"/>
<feComposite in2="hardAlpha" operator="arithmetic" k2="-1" k3="1"/>
<feColorMatrix type="matrix" values="0 0 0 0 0.383917 0 0 0 0 0.483701 0 0 0 0 0.633376 0 0 0 1 0"/>
<feBlend mode="normal" in2="shape" result="effect1_innerShadow_2827_4221"/>
<feColorMatrix in="SourceAlpha" type="matrix" values="0 0 0 0 0 0 0 0 0 0 0 0 0 0 0 0 0 0 127 0" result="hardAlpha"/>
<feOffset dy="0.5"/>
<feGaussianBlur stdDeviation="0.25"/>
<feComposite in2="hardAlpha" operator="arithmetic" k2="-1" k3="1"/>
<feColorMatrix type="matrix" values="0 0 0 0 0.835975 0 0 0 0 0.9122 0 0 0 0 0.996449 0 0 0 1 0"/>
<feBlend mode="normal" in2="effect1_innerShadow_2827_4221" result="effect2_innerShadow_2827_4221"/>
</filter>
<filter id="filter9_d_2827_4221" x="16.4238" y="13.8906" width="8.18359" height="11.2604" filterUnits="userSpaceOnUse" color-interpolation-filters="sRGB">
<feFlood flood-opacity="0" result="BackgroundImageFix"/>
<feColorMatrix in="SourceAlpha" type="matrix" values="0 0 0 0 0 0 0 0 0 0 0 0 0 0 0 0 0 0 127 0" result="hardAlpha"/>
<feOffset dy="0.8"/>
<feComposite in2="hardAlpha" operator="out"/>
<feColorMatrix type="matrix" values="0 0 0 0 0 0 0 0 0 0 0 0 0 0 0 0 0 0 0.27 0"/>
<feBlend mode="normal" in2="BackgroundImageFix" result="effect1_dropShadow_2827_4221"/>
<feBlend mode="normal" in="SourceGraphic" in2="effect1_dropShadow_2827_4221" result="shape"/>
</filter>
<linearGradient id="paint0_linear_2827_4221" x1="20.5158" y1="4.58447" x2="20.5158" y2="34.5845" gradientUnits="userSpaceOnUse">
<stop stop-color="#B8D5FD"/>
<stop offset="1" stop-color="#3C84E6"/>
</linearGradient>
<linearGradient id="paint1_linear_2827_4221" x1="20.5158" y1="7.58398" x2="20.5158" y2="31.585" gradientUnits="userSpaceOnUse">
<stop stop-color="#B8D5FD"/>
<stop offset="1" stop-color="#0363E4"/>
</linearGradient>
<linearGradient id="paint2_linear_2827_4221" x1="20.5158" y1="7.58398" x2="20.5158" y2="31.585" gradientUnits="userSpaceOnUse">
<stop stop-color="#0961D8"/>
<stop offset="1" stop-color="#87BBFF"/>
</linearGradient>
<linearGradient id="paint3_linear_2827_4221" x1="25.8323" y1="12.8004" x2="25.8323" y2="27.2116" gradientUnits="userSpaceOnUse">
<stop stop-color="white"/>
<stop offset="1" stop-color="#9AC1F7"/>
</linearGradient>
</defs>
</svg>
