<svg width="41" height="41" viewBox="0 0 41 41" fill="none" xmlns="http://www.w3.org/2000/svg">
<g id="Group 37750">
<g id="Group 37591" filter="url(#filter0_d_2827_4223)">
<g id="Group 37585">
<g id="Vector 834" filter="url(#filter1_i_2827_4223)">
<path d="M36.0377 17.9781L30.6074 21.3293V25.466L35.3984 23.0517C35.7047 22.8974 35.9105 22.5969 35.9437 22.2556L36.3418 18.1677C36.3578 18.0031 36.1784 17.8913 36.0377 17.9781Z" fill="#B1C9EA"/>
</g>
<g id="Vector 833" filter="url(#filter2_i_2827_4223)">
<path d="M36.9986 14.756L31.5684 18.1072V22.2438L36.3594 19.8295C36.6656 19.6752 36.8714 19.3747 36.9047 19.0334L37.3027 14.9456C37.3187 14.7809 37.1394 14.6691 36.9986 14.756Z" fill="#B1C9EA"/>
</g>
<g id="Vector 832" filter="url(#filter3_i_2827_4223)">
<path d="M37.8521 11.224L32.4219 14.5752V18.7118L37.2129 16.2976C37.5191 16.1432 37.7249 15.8428 37.7582 15.5014L38.1562 11.4136C38.1723 11.2489 37.9929 11.1371 37.8521 11.224Z" fill="#B1C9EA"/>
</g>
<path id="Rectangle 8829" d="M32.7656 14.375L33.7793 13.7383V23.8672L32.7656 24.3594V14.375Z" fill="black" fill-opacity="0.11"/>
</g>
<g id="Group 37586">
<g id="Vector 834_2" filter="url(#filter4_i_2827_4223)">
<path d="M4.99357 17.9781L10.4238 21.3293V25.466L5.63281 23.0517C5.32657 22.8974 5.12076 22.5969 5.08752 22.2556L4.68947 18.1677C4.67344 18.0031 4.85281 17.8913 4.99357 17.9781Z" fill="#B1C9EA"/>
</g>
<g id="Vector 833_2" filter="url(#filter5_i_2827_4223)">
<path d="M4.03263 14.756L9.46289 18.1072V22.2438L4.67187 19.8295C4.36563 19.6752 4.15982 19.3747 4.12658 19.0334L3.72854 14.9456C3.7125 14.7809 3.89187 14.6691 4.03263 14.756Z" fill="#B1C9EA"/>
</g>
<g id="Vector 832_2" filter="url(#filter6_i_2827_4223)">
<path d="M3.17911 11.224L8.60938 14.5752V18.7118L3.81836 16.2976C3.51211 16.1432 3.3063 15.8428 3.27307 15.5014L2.87502 11.4136C2.85899 11.2489 3.03835 11.1371 3.17911 11.224Z" fill="#B1C9EA"/>
</g>
<path id="Rectangle 8829_2" d="M8.26562 14.375L7.25195 13.7383V23.8672L8.26562 24.3594V14.375Z" fill="black" fill-opacity="0.11"/>
</g>
<path id="Vector 835" d="M29.8065 35.6383V29.2083L23.8926 31.8491L29.8065 35.6383Z" fill="#7795C0"/>
<path id="Vector 836" d="M11.2755 35.6383V29.2083L17.1895 31.8491L11.2755 35.6383Z" fill="#7795C0"/>
<g id="Polygon 21" filter="url(#filter7_dii_2827_4223)">
<path d="M19.5529 5.16182C20.1717 4.80456 20.9341 4.80456 21.5529 5.16182L32.5433 11.5071C33.1621 11.8644 33.5433 12.5246 33.5433 13.2392V25.9298C33.5433 26.6443 33.1621 27.3046 32.5433 27.6618L21.5529 34.0071C20.9341 34.3644 20.1717 34.3644 19.5529 34.0071L8.5625 27.6618C7.9437 27.3046 7.5625 26.6443 7.5625 25.9298V13.2392C7.5625 12.5246 7.9437 11.8644 8.5625 11.5071L19.5529 5.16182Z" fill="url(#paint0_linear_2827_4223)"/>
</g>
<g id="Polygon 22">
<g filter="url(#filter8_ii_2827_4223)">
<path d="M19.5529 8.16133C20.1717 7.80407 20.9341 7.80407 21.5529 8.16133L29.9456 13.0069C30.5644 13.3641 30.9456 14.0244 30.9456 14.7389V24.43C30.9456 25.1445 30.5644 25.8048 29.9456 26.1621L21.5529 31.0076C20.9341 31.3649 20.1717 31.3649 19.5529 31.0076L11.1602 26.1621C10.5414 25.8048 10.1602 25.1445 10.1602 24.43V14.7389C10.1602 14.0244 10.5414 13.3641 11.1602 13.0069L19.5529 8.16133Z" fill="url(#paint1_linear_2827_4223)"/>
</g>
<path d="M19.6779 8.37784C20.2193 8.06523 20.8864 8.06523 21.4279 8.37784L29.8206 13.2234C30.3621 13.536 30.6956 14.1137 30.6956 14.7389V24.43C30.6956 25.0552 30.3621 25.6329 29.8206 25.9456L21.4279 30.7911C20.8864 31.1037 20.2193 31.1037 19.6779 30.7911L11.2852 25.9456C10.7437 25.6329 10.4102 25.0552 10.4102 24.43V14.7389C10.4102 14.1137 10.7437 13.536 11.2852 13.2234L19.6779 8.37784Z" stroke="url(#paint2_linear_2827_4223)" stroke-width="0.5"/>
</g>
<g id="4" filter="url(#filter9_d_2827_4223)">
<path d="M16.3086 22.5215V20.6025L20.4798 14.03H22.185V16.6351H21.1957L18.7546 20.503V20.5826H24.7951V22.5215H16.3086ZM21.2255 24.2118V21.9349L21.2752 21.0947V14.03H23.5771V24.2118H21.2255Z" fill="url(#paint3_linear_2827_4223)"/>
</g>
</g>
</g>
<defs>
<filter id="filter0_d_2827_4223" x="1.87305" y="4.8938" width="37.2852" height="32.7444" filterUnits="userSpaceOnUse" color-interpolation-filters="sRGB">
<feFlood flood-opacity="0" result="BackgroundImageFix"/>
<feColorMatrix in="SourceAlpha" type="matrix" values="0 0 0 0 0 0 0 0 0 0 0 0 0 0 0 0 0 0 127 0" result="hardAlpha"/>
<feOffset dy="1"/>
<feGaussianBlur stdDeviation="0.5"/>
<feComposite in2="hardAlpha" operator="out"/>
<feColorMatrix type="matrix" values="0 0 0 0 0 0 0 0 0 0 0 0 0 0 0 0 0 0 0.2 0"/>
<feBlend mode="normal" in2="BackgroundImageFix" result="effect1_dropShadow_2827_4223"/>
<feBlend mode="normal" in="SourceGraphic" in2="effect1_dropShadow_2827_4223" result="shape"/>
</filter>
<filter id="filter1_i_2827_4223" x="30.6074" y="17.948" width="5.73633" height="7.51807" filterUnits="userSpaceOnUse" color-interpolation-filters="sRGB">
<feFlood flood-opacity="0" result="BackgroundImageFix"/>
<feBlend mode="normal" in="SourceGraphic" in2="BackgroundImageFix" result="shape"/>
<feColorMatrix in="SourceAlpha" type="matrix" values="0 0 0 0 0 0 0 0 0 0 0 0 0 0 0 0 0 0 127 0" result="hardAlpha"/>
<feOffset dx="1" dy="-1.2"/>
<feComposite in2="hardAlpha" operator="arithmetic" k2="-1" k3="1"/>
<feColorMatrix type="matrix" values="0 0 0 0 0 0 0 0 0 0 0 0 0 0 0 0 0 0 0.25 0"/>
<feBlend mode="normal" in2="shape" result="effect1_innerShadow_2827_4223"/>
</filter>
<filter id="filter2_i_2827_4223" x="31.5684" y="14.7258" width="5.73633" height="7.51807" filterUnits="userSpaceOnUse" color-interpolation-filters="sRGB">
<feFlood flood-opacity="0" result="BackgroundImageFix"/>
<feBlend mode="normal" in="SourceGraphic" in2="BackgroundImageFix" result="shape"/>
<feColorMatrix in="SourceAlpha" type="matrix" values="0 0 0 0 0 0 0 0 0 0 0 0 0 0 0 0 0 0 127 0" result="hardAlpha"/>
<feOffset dx="1" dy="-1.2"/>
<feComposite in2="hardAlpha" operator="arithmetic" k2="-1" k3="1"/>
<feColorMatrix type="matrix" values="0 0 0 0 0 0 0 0 0 0 0 0 0 0 0 0 0 0 0.25 0"/>
<feBlend mode="normal" in2="shape" result="effect1_innerShadow_2827_4223"/>
</filter>
<filter id="filter3_i_2827_4223" x="32.4219" y="11.1938" width="5.73633" height="7.51807" filterUnits="userSpaceOnUse" color-interpolation-filters="sRGB">
<feFlood flood-opacity="0" result="BackgroundImageFix"/>
<feBlend mode="normal" in="SourceGraphic" in2="BackgroundImageFix" result="shape"/>
<feColorMatrix in="SourceAlpha" type="matrix" values="0 0 0 0 0 0 0 0 0 0 0 0 0 0 0 0 0 0 127 0" result="hardAlpha"/>
<feOffset dx="1" dy="-1.2"/>
<feComposite in2="hardAlpha" operator="arithmetic" k2="-1" k3="1"/>
<feColorMatrix type="matrix" values="0 0 0 0 0 0 0 0 0 0 0 0 0 0 0 0 0 0 0.25 0"/>
<feBlend mode="normal" in2="shape" result="effect1_innerShadow_2827_4223"/>
</filter>
<filter id="filter4_i_2827_4223" x="4.6875" y="17.948" width="5.73633" height="7.51807" filterUnits="userSpaceOnUse" color-interpolation-filters="sRGB">
<feFlood flood-opacity="0" result="BackgroundImageFix"/>
<feBlend mode="normal" in="SourceGraphic" in2="BackgroundImageFix" result="shape"/>
<feColorMatrix in="SourceAlpha" type="matrix" values="0 0 0 0 0 0 0 0 0 0 0 0 0 0 0 0 0 0 127 0" result="hardAlpha"/>
<feOffset dx="-1" dy="-1.2"/>
<feComposite in2="hardAlpha" operator="arithmetic" k2="-1" k3="1"/>
<feColorMatrix type="matrix" values="0 0 0 0 0 0 0 0 0 0 0 0 0 0 0 0 0 0 0.25 0"/>
<feBlend mode="normal" in2="shape" result="effect1_innerShadow_2827_4223"/>
</filter>
<filter id="filter5_i_2827_4223" x="3.72656" y="14.7258" width="5.73633" height="7.51807" filterUnits="userSpaceOnUse" color-interpolation-filters="sRGB">
<feFlood flood-opacity="0" result="BackgroundImageFix"/>
<feBlend mode="normal" in="SourceGraphic" in2="BackgroundImageFix" result="shape"/>
<feColorMatrix in="SourceAlpha" type="matrix" values="0 0 0 0 0 0 0 0 0 0 0 0 0 0 0 0 0 0 127 0" result="hardAlpha"/>
<feOffset dx="-1" dy="-1.2"/>
<feComposite in2="hardAlpha" operator="arithmetic" k2="-1" k3="1"/>
<feColorMatrix type="matrix" values="0 0 0 0 0 0 0 0 0 0 0 0 0 0 0 0 0 0 0.25 0"/>
<feBlend mode="normal" in2="shape" result="effect1_innerShadow_2827_4223"/>
</filter>
<filter id="filter6_i_2827_4223" x="2.87305" y="11.1938" width="5.73633" height="7.51807" filterUnits="userSpaceOnUse" color-interpolation-filters="sRGB">
<feFlood flood-opacity="0" result="BackgroundImageFix"/>
<feBlend mode="normal" in="SourceGraphic" in2="BackgroundImageFix" result="shape"/>
<feColorMatrix in="SourceAlpha" type="matrix" values="0 0 0 0 0 0 0 0 0 0 0 0 0 0 0 0 0 0 127 0" result="hardAlpha"/>
<feOffset dx="-1" dy="-1.2"/>
<feComposite in2="hardAlpha" operator="arithmetic" k2="-1" k3="1"/>
<feColorMatrix type="matrix" values="0 0 0 0 0 0 0 0 0 0 0 0 0 0 0 0 0 0 0.25 0"/>
<feBlend mode="normal" in2="shape" result="effect1_innerShadow_2827_4223"/>
</filter>
<filter id="filter7_dii_2827_4223" x="7.5625" y="4.8938" width="25.9805" height="29.8813" filterUnits="userSpaceOnUse" color-interpolation-filters="sRGB">
<feFlood flood-opacity="0" result="BackgroundImageFix"/>
<feColorMatrix in="SourceAlpha" type="matrix" values="0 0 0 0 0 0 0 0 0 0 0 0 0 0 0 0 0 0 127 0" result="hardAlpha"/>
<feOffset dy="0.5"/>
<feComposite in2="hardAlpha" operator="out"/>
<feColorMatrix type="matrix" values="0 0 0 0 0.435404 0 0 0 0 0.540403 0 0 0 0 0.685401 0 0 0 1 0"/>
<feBlend mode="normal" in2="BackgroundImageFix" result="effect1_dropShadow_2827_4223"/>
<feBlend mode="normal" in="SourceGraphic" in2="effect1_dropShadow_2827_4223" result="shape"/>
<feColorMatrix in="SourceAlpha" type="matrix" values="0 0 0 0 0 0 0 0 0 0 0 0 0 0 0 0 0 0 127 0" result="hardAlpha"/>
<feOffset dy="0.3"/>
<feComposite in2="hardAlpha" operator="arithmetic" k2="-1" k3="1"/>
<feColorMatrix type="matrix" values="0 0 0 0 1 0 0 0 0 1 0 0 0 0 1 0 0 0 0.67 0"/>
<feBlend mode="normal" in2="shape" result="effect2_innerShadow_2827_4223"/>
<feColorMatrix in="SourceAlpha" type="matrix" values="0 0 0 0 0 0 0 0 0 0 0 0 0 0 0 0 0 0 127 0" result="hardAlpha"/>
<feOffset dx="0.2" dy="0.1"/>
<feComposite in2="hardAlpha" operator="arithmetic" k2="-1" k3="1"/>
<feColorMatrix type="matrix" values="0 0 0 0 1 0 0 0 0 1 0 0 0 0 1 0 0 0 0.6 0"/>
<feBlend mode="normal" in2="effect2_innerShadow_2827_4223" result="effect3_innerShadow_2827_4223"/>
</filter>
<filter id="filter8_ii_2827_4223" x="10.1602" y="7.39331" width="20.7852" height="24.3823" filterUnits="userSpaceOnUse" color-interpolation-filters="sRGB">
<feFlood flood-opacity="0" result="BackgroundImageFix"/>
<feBlend mode="normal" in="SourceGraphic" in2="BackgroundImageFix" result="shape"/>
<feColorMatrix in="SourceAlpha" type="matrix" values="0 0 0 0 0 0 0 0 0 0 0 0 0 0 0 0 0 0 127 0" result="hardAlpha"/>
<feOffset dy="-0.5"/>
<feGaussianBlur stdDeviation="0.25"/>
<feComposite in2="hardAlpha" operator="arithmetic" k2="-1" k3="1"/>
<feColorMatrix type="matrix" values="0 0 0 0 0.383917 0 0 0 0 0.483701 0 0 0 0 0.633376 0 0 0 1 0"/>
<feBlend mode="normal" in2="shape" result="effect1_innerShadow_2827_4223"/>
<feColorMatrix in="SourceAlpha" type="matrix" values="0 0 0 0 0 0 0 0 0 0 0 0 0 0 0 0 0 0 127 0" result="hardAlpha"/>
<feOffset dy="0.5"/>
<feGaussianBlur stdDeviation="0.25"/>
<feComposite in2="hardAlpha" operator="arithmetic" k2="-1" k3="1"/>
<feColorMatrix type="matrix" values="0 0 0 0 0.835975 0 0 0 0 0.9122 0 0 0 0 0.996449 0 0 0 1 0"/>
<feBlend mode="normal" in2="effect1_innerShadow_2827_4223" result="effect2_innerShadow_2827_4223"/>
</filter>
<filter id="filter9_d_2827_4223" x="16.3086" y="14.03" width="8.48633" height="10.9819" filterUnits="userSpaceOnUse" color-interpolation-filters="sRGB">
<feFlood flood-opacity="0" result="BackgroundImageFix"/>
<feColorMatrix in="SourceAlpha" type="matrix" values="0 0 0 0 0 0 0 0 0 0 0 0 0 0 0 0 0 0 127 0" result="hardAlpha"/>
<feOffset dy="0.8"/>
<feComposite in2="hardAlpha" operator="out"/>
<feColorMatrix type="matrix" values="0 0 0 0 0 0 0 0 0 0 0 0 0 0 0 0 0 0 0.27 0"/>
<feBlend mode="normal" in2="BackgroundImageFix" result="effect1_dropShadow_2827_4223"/>
<feBlend mode="normal" in="SourceGraphic" in2="effect1_dropShadow_2827_4223" result="shape"/>
</filter>
<linearGradient id="paint0_linear_2827_4223" x1="20.5529" y1="4.58447" x2="20.5529" y2="34.5845" gradientUnits="userSpaceOnUse">
<stop stop-color="#D7E7F6"/>
<stop offset="1" stop-color="#97ADCE"/>
</linearGradient>
<linearGradient id="paint1_linear_2827_4223" x1="20.5529" y1="7.58398" x2="20.5529" y2="31.585" gradientUnits="userSpaceOnUse">
<stop stop-color="#D7E7F6"/>
<stop offset="1" stop-color="#7694C0"/>
</linearGradient>
<linearGradient id="paint2_linear_2827_4223" x1="20.5529" y1="7.58398" x2="20.5529" y2="31.585" gradientUnits="userSpaceOnUse">
<stop stop-color="#7B99C3"/>
<stop offset="1" stop-color="#CADCEF"/>
</linearGradient>
<linearGradient id="paint3_linear_2827_4223" x1="25.6822" y1="11.1852" x2="25.6822" y2="27.2118" gradientUnits="userSpaceOnUse">
<stop stop-color="white"/>
<stop offset="1" stop-color="#83B0EF"/>
</linearGradient>
</defs>
</svg>
