<svg width="41" height="41" viewBox="0 0 41 41" fill="none" xmlns="http://www.w3.org/2000/svg">
<g id="Group 37751">
<g id="Group 37590" filter="url(#filter0_d_2827_4224)">
<path id="Vector 835" d="M30.1581 35.6383V29.2083L24.2441 31.8491L30.1581 35.6383Z" fill="#91712F"/>
<path id="Vector 836" d="M10.6271 35.6383V29.2083L16.541 31.8491L10.6271 35.6383Z" fill="#91712F"/>
<g id="Polygon 19" filter="url(#filter1_dii_2827_4224)">
<path d="M19.5177 5.16182C20.1365 4.80456 20.8989 4.80456 21.5177 5.16182L32.5081 11.5071C33.1269 11.8644 33.5081 12.5246 33.5081 13.2392V25.9298C33.5081 26.6443 33.1269 27.3046 32.5081 27.6618L21.5177 34.0071C20.8989 34.3644 20.1365 34.3644 19.5177 34.0071L8.52734 27.6618C7.90854 27.3046 7.52734 26.6443 7.52734 25.9298V13.2392C7.52734 12.5246 7.90854 11.8644 8.52734 11.5071L19.5177 5.16182Z" fill="url(#paint0_linear_2827_4224)"/>
</g>
<g id="Polygon 20">
<g filter="url(#filter2_ii_2827_4224)">
<path d="M19.5177 8.16133C20.1365 7.80407 20.8989 7.80407 21.5177 8.16133L29.9104 13.0069C30.5293 13.3641 30.9104 14.0244 30.9104 14.7389V24.43C30.9104 25.1445 30.5293 25.8048 29.9104 26.1621L21.5177 31.0076C20.8989 31.3649 20.1365 31.3649 19.5177 31.0076L11.125 26.1621C10.5062 25.8048 10.125 25.1445 10.125 24.43V14.7389C10.125 14.0244 10.5062 13.3641 11.125 13.0069L19.5177 8.16133Z" fill="url(#paint1_linear_2827_4224)"/>
</g>
<path d="M19.6427 8.37784C20.1842 8.06523 20.8513 8.06523 21.3927 8.37784L29.7854 13.2234C30.3269 13.536 30.6604 14.1137 30.6604 14.7389V24.43C30.6604 25.0552 30.3269 25.6329 29.7854 25.9456L21.3927 30.7911C20.8513 31.1037 20.1842 31.1037 19.6427 30.7911L11.25 25.9456C10.7085 25.6329 10.375 25.0552 10.375 24.43V14.7389C10.375 14.1137 10.7085 13.536 11.25 13.2234L19.6427 8.37784Z" stroke="url(#paint2_linear_2827_4224)" stroke-width="0.5"/>
</g>
<g id="3" filter="url(#filter3_d_2827_4224)">
<path d="M20.4806 24.3511C19.7051 24.3511 19.0173 24.2185 18.4174 23.9534C17.8208 23.6849 17.3502 23.3153 17.0055 22.8447C16.6608 22.3741 16.4851 21.8322 16.4785 21.219H18.9544C18.9643 21.4411 19.0356 21.6383 19.1681 21.8106C19.3007 21.9796 19.4814 22.1122 19.71 22.2083C19.9387 22.3045 20.1989 22.3525 20.4906 22.3525C20.7823 22.3525 21.0391 22.3011 21.2612 22.1984C21.4866 22.0923 21.6622 21.9482 21.7882 21.7659C21.9141 21.5803 21.9754 21.3681 21.9721 21.1295C21.9754 20.8909 21.9075 20.6787 21.7683 20.4931C21.6291 20.3075 21.4319 20.1634 21.1767 20.0606C20.9248 19.9579 20.6265 19.9065 20.2818 19.9065H19.2924V18.1565H20.2818C20.5834 18.1565 20.8485 18.1068 21.0772 18.0073C21.3092 17.9079 21.4899 17.7687 21.6191 17.5897C21.7484 17.4074 21.8114 17.1986 21.8081 16.9633C21.8114 16.7346 21.7567 16.5341 21.644 16.3618C21.5346 16.1861 21.3805 16.0502 21.1816 15.9541C20.9861 15.858 20.7591 15.8099 20.5005 15.8099C20.2288 15.8099 19.9818 15.858 19.7598 15.9541C19.541 16.0502 19.367 16.1861 19.2377 16.3618C19.1085 16.5374 19.0405 16.7412 19.0339 16.9733H16.6824C16.689 16.3667 16.858 15.8331 17.1895 15.3724C17.5209 14.9084 17.9717 14.5455 18.5417 14.2836C19.1151 14.0218 19.7681 13.8909 20.5005 13.8909C21.2297 13.8909 21.871 14.0185 22.4245 14.2737C22.978 14.5289 23.4089 14.8769 23.7172 15.3177C24.0254 15.7552 24.1795 16.2507 24.1795 16.8042C24.1828 17.3776 23.9956 17.8499 23.6177 18.2211C23.2432 18.5923 22.7609 18.821 22.171 18.9072V18.9867C22.9598 19.0796 23.5547 19.3348 23.9558 19.7524C24.3601 20.17 24.5607 20.692 24.5574 21.3184C24.5574 21.9084 24.3833 22.4321 24.0353 22.8894C23.6906 23.3435 23.21 23.7015 22.5936 23.9633C21.9804 24.2218 21.2761 24.3511 20.4806 24.3511Z" fill="url(#paint3_linear_2827_4224)"/>
</g>
</g>
</g>
<defs>
<filter id="filter0_d_2827_4224" x="6.52734" y="4.8938" width="27.9805" height="32.7444" filterUnits="userSpaceOnUse" color-interpolation-filters="sRGB">
<feFlood flood-opacity="0" result="BackgroundImageFix"/>
<feColorMatrix in="SourceAlpha" type="matrix" values="0 0 0 0 0 0 0 0 0 0 0 0 0 0 0 0 0 0 127 0" result="hardAlpha"/>
<feOffset dy="1"/>
<feGaussianBlur stdDeviation="0.5"/>
<feComposite in2="hardAlpha" operator="out"/>
<feColorMatrix type="matrix" values="0 0 0 0 0 0 0 0 0 0 0 0 0 0 0 0 0 0 0.2 0"/>
<feBlend mode="normal" in2="BackgroundImageFix" result="effect1_dropShadow_2827_4224"/>
<feBlend mode="normal" in="SourceGraphic" in2="effect1_dropShadow_2827_4224" result="shape"/>
</filter>
<filter id="filter1_dii_2827_4224" x="7.52734" y="4.8938" width="25.9805" height="29.8813" filterUnits="userSpaceOnUse" color-interpolation-filters="sRGB">
<feFlood flood-opacity="0" result="BackgroundImageFix"/>
<feColorMatrix in="SourceAlpha" type="matrix" values="0 0 0 0 0 0 0 0 0 0 0 0 0 0 0 0 0 0 127 0" result="hardAlpha"/>
<feOffset dy="0.5"/>
<feComposite in2="hardAlpha" operator="out"/>
<feColorMatrix type="matrix" values="0 0 0 0 0.464994 0 0 0 0 0.383918 0 0 0 0 0.213233 0 0 0 1 0"/>
<feBlend mode="normal" in2="BackgroundImageFix" result="effect1_dropShadow_2827_4224"/>
<feBlend mode="normal" in="SourceGraphic" in2="effect1_dropShadow_2827_4224" result="shape"/>
<feColorMatrix in="SourceAlpha" type="matrix" values="0 0 0 0 0 0 0 0 0 0 0 0 0 0 0 0 0 0 127 0" result="hardAlpha"/>
<feOffset dy="0.3"/>
<feComposite in2="hardAlpha" operator="arithmetic" k2="-1" k3="1"/>
<feColorMatrix type="matrix" values="0 0 0 0 1 0 0 0 0 1 0 0 0 0 1 0 0 0 0.67 0"/>
<feBlend mode="normal" in2="shape" result="effect2_innerShadow_2827_4224"/>
<feColorMatrix in="SourceAlpha" type="matrix" values="0 0 0 0 0 0 0 0 0 0 0 0 0 0 0 0 0 0 127 0" result="hardAlpha"/>
<feOffset dx="0.2" dy="0.1"/>
<feComposite in2="hardAlpha" operator="arithmetic" k2="-1" k3="1"/>
<feColorMatrix type="matrix" values="0 0 0 0 1 0 0 0 0 1 0 0 0 0 1 0 0 0 0.6 0"/>
<feBlend mode="normal" in2="effect2_innerShadow_2827_4224" result="effect3_innerShadow_2827_4224"/>
</filter>
<filter id="filter2_ii_2827_4224" x="10.125" y="7.39331" width="20.7852" height="24.3823" filterUnits="userSpaceOnUse" color-interpolation-filters="sRGB">
<feFlood flood-opacity="0" result="BackgroundImageFix"/>
<feBlend mode="normal" in="SourceGraphic" in2="BackgroundImageFix" result="shape"/>
<feColorMatrix in="SourceAlpha" type="matrix" values="0 0 0 0 0 0 0 0 0 0 0 0 0 0 0 0 0 0 127 0" result="hardAlpha"/>
<feOffset dy="-0.5"/>
<feGaussianBlur stdDeviation="0.25"/>
<feComposite in2="hardAlpha" operator="arithmetic" k2="-1" k3="1"/>
<feColorMatrix type="matrix" values="0 0 0 0 0.352941 0 0 0 0 0.34902 0 0 0 0 0.34902 0 0 0 1 0"/>
<feBlend mode="normal" in2="shape" result="effect1_innerShadow_2827_4224"/>
<feColorMatrix in="SourceAlpha" type="matrix" values="0 0 0 0 0 0 0 0 0 0 0 0 0 0 0 0 0 0 127 0" result="hardAlpha"/>
<feOffset dy="0.5"/>
<feGaussianBlur stdDeviation="0.25"/>
<feComposite in2="hardAlpha" operator="arithmetic" k2="-1" k3="1"/>
<feColorMatrix type="matrix" values="0 0 0 0 0.558087 0 0 0 0 0.492473 0 0 0 0 0.394052 0 0 0 1 0"/>
<feBlend mode="normal" in2="effect1_innerShadow_2827_4224" result="effect2_innerShadow_2827_4224"/>
</filter>
<filter id="filter3_d_2827_4224" x="16.4785" y="13.8909" width="8.07812" height="11.2602" filterUnits="userSpaceOnUse" color-interpolation-filters="sRGB">
<feFlood flood-opacity="0" result="BackgroundImageFix"/>
<feColorMatrix in="SourceAlpha" type="matrix" values="0 0 0 0 0 0 0 0 0 0 0 0 0 0 0 0 0 0 127 0" result="hardAlpha"/>
<feOffset dy="0.8"/>
<feComposite in2="hardAlpha" operator="out"/>
<feColorMatrix type="matrix" values="0 0 0 0 0 0 0 0 0 0 0 0 0 0 0 0 0 0 0.27 0"/>
<feBlend mode="normal" in2="BackgroundImageFix" result="effect1_dropShadow_2827_4224"/>
<feBlend mode="normal" in="SourceGraphic" in2="effect1_dropShadow_2827_4224" result="shape"/>
</filter>
<linearGradient id="paint0_linear_2827_4224" x1="20.5177" y1="4.58447" x2="20.5177" y2="34.5845" gradientUnits="userSpaceOnUse">
<stop stop-color="#FFE5A2"/>
<stop offset="1" stop-color="#94825E"/>
</linearGradient>
<linearGradient id="paint1_linear_2827_4224" x1="20.5177" y1="7.58398" x2="20.5177" y2="31.585" gradientUnits="userSpaceOnUse">
<stop stop-color="#FFE5A2"/>
<stop offset="1" stop-color="#94825E"/>
</linearGradient>
<linearGradient id="paint2_linear_2827_4224" x1="20.5177" y1="7.58398" x2="20.5177" y2="31.585" gradientUnits="userSpaceOnUse">
<stop stop-color="#A59169"/>
<stop offset="1" stop-color="#EED698"/>
</linearGradient>
<linearGradient id="paint3_linear_2827_4224" x1="25.526" y1="11.1852" x2="25.526" y2="27.2119" gradientUnits="userSpaceOnUse">
<stop stop-color="white"/>
<stop offset="1" stop-color="#F2D89A"/>
</linearGradient>
</defs>
</svg>
