<svg width="20" height="15" viewBox="0 0 20 15" fill="none" xmlns="http://www.w3.org/2000/svg">
<path id="L0" d="M9.79016 14.584H0.770156V0.343984H2.93016V12.644H9.79016V14.584ZM19.8345 10.624C19.8345 13.164 17.9745 14.704 15.7145 14.704C13.4545 14.704 11.6145 13.164 11.6145 10.624V4.30398C11.6145 1.76398 13.4545 0.223983 15.7145 0.223983C17.9745 0.223983 19.8345 1.76398 19.8345 4.30398V10.624ZM17.7945 10.564V4.36398C17.7945 2.98398 17.0145 2.04398 15.7145 2.04398C14.4145 2.04398 13.6545 2.98398 13.6545 4.36398V10.564C13.6545 11.944 14.4145 12.884 15.7145 12.884C17.0145 12.884 17.7945 11.944 17.7945 10.564Z" fill="url(#paint0_linear_3387_5406)"/>
<defs>
<linearGradient id="paint0_linear_3387_5406" x1="21.4844" y1="6.58398" x2="-1.51563" y2="6.58398" gradientUnits="userSpaceOnUse">
<stop stop-color="#839FC8"/>
<stop offset="1" stop-color="#C3D6EB"/>
</linearGradient>
</defs>
</svg>
