<svg width="20" height="15" viewBox="0 0 20 15" fill="none" xmlns="http://www.w3.org/2000/svg">
<path id="L2" d="M9.79016 14.9238H0.770156V0.683828H2.93016V12.9838H9.79016V14.9238ZM19.9345 14.9238H11.6545V13.1038L17.1345 6.44383C17.6745 5.78383 17.8945 5.26383 17.8945 4.54383C17.8945 3.26383 17.1345 2.38383 15.8145 2.38383C14.7345 2.38383 13.7145 2.98383 13.7145 4.58383H11.6745C11.6745 2.16383 13.3945 0.563827 15.8145 0.563827C18.2545 0.563827 19.9345 2.10383 19.9345 4.56383C19.9345 5.82383 19.4745 6.56383 18.5945 7.64383L14.1345 13.1038H19.9345V14.9238Z" fill="url(#paint0_linear_3387_5376)"/>
<defs>
<linearGradient id="paint0_linear_3387_5376" x1="21.4844" y1="6.92383" x2="-1.51563" y2="6.92383" gradientUnits="userSpaceOnUse">
<stop stop-color="#14A6D4"/>
<stop offset="1" stop-color="#9AF0FE"/>
</linearGradient>
</defs>
</svg>
