<svg width="20" height="15" viewBox="0 0 20 15" fill="none" xmlns="http://www.w3.org/2000/svg">
<path id="L3" d="M9.79016 14.6382H0.770156V0.398183H2.93016V12.6982H9.79016V14.6382ZM19.9545 10.6382C19.9545 13.3782 17.9745 14.7782 15.5945 14.7782C13.3145 14.7782 11.3145 13.5582 11.2345 10.7782H13.2745C13.3545 12.2982 14.4145 12.9382 15.5945 12.9382C16.9145 12.9382 17.9145 12.0782 17.9145 10.5782C17.9145 9.13818 17.1345 8.23818 15.5345 8.23818H15.1945V6.45818H15.5345C17.0145 6.45818 17.6945 5.59818 17.6945 4.29818C17.6945 2.85818 16.7545 2.09818 15.5945 2.09818C14.3545 2.09818 13.5545 2.87818 13.4545 4.13818H11.4145C11.5345 1.71818 13.3145 0.258183 15.5945 0.258183C18.0145 0.258183 19.7345 1.87818 19.7345 4.23818C19.7345 5.75818 19.0545 6.73818 17.9545 7.27818C19.1745 7.81818 19.9545 8.87818 19.9545 10.6382Z" fill="url(#paint0_linear_3387_5377)"/>
<defs>
<linearGradient id="paint0_linear_3387_5377" x1="21.4844" y1="6.63818" x2="-1.51563" y2="6.63818" gradientUnits="userSpaceOnUse">
<stop stop-color="#C29B4A"/>
<stop offset="1" stop-color="#F2D99A"/>
</linearGradient>
</defs>
</svg>
