<svg width="20" height="16" viewBox="0 0 20 16" fill="none" xmlns="http://www.w3.org/2000/svg">
<path id="L5" d="M9.79016 15.1113H0.770156V0.871328H2.93016V13.1713H9.79016V15.1113ZM19.9745 10.3513C19.9745 11.8713 19.8145 13.0913 18.7745 14.1313C18.1345 14.7713 17.1545 15.2513 15.7745 15.2513C14.4145 15.2513 13.3545 14.7713 12.7345 14.1513C11.9745 13.3913 11.7345 12.4513 11.6545 11.4313H13.6945C13.8545 12.6913 14.4945 13.4113 15.7745 13.4113C16.3745 13.4113 16.8945 13.2113 17.2545 12.8513C17.8545 12.2513 17.9345 11.3113 17.9345 10.3513C17.9345 8.65133 17.4945 7.37133 15.8545 7.37133C14.6945 7.37133 14.0545 7.95133 13.8345 8.65133H11.9745V0.871328H19.6545V2.69133H13.8145V6.45133C14.2945 5.95133 15.1345 5.63133 16.1745 5.63133C17.2945 5.63133 18.1545 5.97133 18.7345 6.55133C19.8145 7.63133 19.9745 9.01133 19.9745 10.3513Z" fill="url(#paint0_linear_3387_5379)"/>
<defs>
<linearGradient id="paint0_linear_3387_5379" x1="21.4844" y1="7.11133" x2="-1.51563" y2="7.11133" gradientUnits="userSpaceOnUse">
<stop stop-color="#7D91AA"/>
<stop offset="1" stop-color="#BDCEE4"/>
</linearGradient>
</defs>
</svg>
