<svg width="20" height="15" viewBox="0 0 20 15" fill="none" xmlns="http://www.w3.org/2000/svg">
<path id="L6" d="M9.79016 14.394H0.770156V0.154043H2.93016V12.454H9.79016V14.394ZM19.9345 10.174C19.9345 12.794 18.1945 14.514 15.7345 14.514C13.2745 14.514 11.5145 12.894 11.5145 10.254C11.5145 9.09404 11.9545 7.99404 12.5745 6.75404L15.8145 0.154043H17.9945L14.9345 6.27404C15.3145 6.11404 15.7545 6.05404 16.1945 6.05404C18.2545 6.05404 19.9345 7.67404 19.9345 10.174ZM17.8945 10.214C17.8945 8.81404 17.0745 7.75404 15.7145 7.75404C14.4345 7.75404 13.5545 8.67404 13.5545 10.214C13.5545 11.734 14.4345 12.694 15.7145 12.694C16.9945 12.694 17.8945 11.734 17.8945 10.214Z" fill="url(#paint0_linear_3387_5380)"/>
<defs>
<linearGradient id="paint0_linear_3387_5380" x1="21.4844" y1="6.39404" x2="-1.51563" y2="6.39404" gradientUnits="userSpaceOnUse">
<stop stop-color="#1C73E7"/>
<stop offset="1" stop-color="#A4C9FA"/>
</linearGradient>
</defs>
</svg>
