<svg width="60" height="61" viewBox="0 0 60 61" fill="none" xmlns="http://www.w3.org/2000/svg">
<g id="Personal Imformations">
<rect y="0.5" width="60" height="60" rx="20" fill="#12181F"/>
<g id="User-icon" clip-path="url(#clip0_3864_7864)">
<path id="Vector" d="M21.783 21.326L30 19.5L38.217 21.326C38.4391 21.3754 38.6377 21.499 38.78 21.6764C38.9224 21.8538 39 22.0745 39 22.302V32.289C38.9999 33.2767 38.756 34.2492 38.2899 35.12C37.8238 35.9908 37.1499 36.7331 36.328 37.281L30 41.5L23.672 37.281C22.8503 36.7332 22.1765 35.9911 21.7103 35.1205C21.2442 34.2498 21.0002 33.2776 21 32.29V22.302C21 22.0745 21.0776 21.8538 21.22 21.6764C21.3623 21.499 21.5609 21.3754 21.783 21.326ZM23 23.104V32.289C23 32.9475 23.1626 33.5957 23.4733 34.1763C23.7839 34.7568 24.2332 35.2517 24.781 35.617L30 39.097L35.219 35.617C35.7667 35.2518 36.2158 34.7571 36.5265 34.1767C36.8372 33.5964 36.9998 32.9483 37 32.29V23.104L30 21.55L23 23.104ZM30 29.5C29.337 29.5 28.7011 29.2366 28.2322 28.7678C27.7634 28.2989 27.5 27.663 27.5 27C27.5 26.337 27.7634 25.7011 28.2322 25.2322C28.7011 24.7634 29.337 24.5 30 24.5C30.663 24.5 31.2989 24.7634 31.7678 25.2322C32.2366 25.7011 32.5 26.337 32.5 27C32.5 27.663 32.2366 28.2989 31.7678 28.7678C31.2989 29.2366 30.663 29.5 30 29.5ZM25.527 34.5C25.6482 33.3984 26.1717 32.3803 26.9971 31.6407C27.8225 30.9012 28.8918 30.4922 30 30.4922C31.1082 30.4922 32.1775 30.9012 33.0029 31.6407C33.8283 32.3803 34.3518 33.3984 34.473 34.5H25.527Z" fill="white"/>
</g>
</g>
<defs>
<clipPath id="clip0_3864_7864">
<rect width="24" height="24" fill="white" transform="translate(18 18.5)"/>
</clipPath>
</defs>
</svg>
