<svg width="60" height="61" viewBox="0 0 60 61" fill="none" xmlns="http://www.w3.org/2000/svg">
<g id="Currency">
<rect y="0.5" width="60" height="60" rx="20" fill="#12181F"/>
<g id="Currency-Icon" clip-path="url(#clip0_3864_7878)">
<path id="Vector" d="M30 40.5C24.477 40.5 20 36.023 20 30.5C20 24.977 24.477 20.5 30 20.5C35.523 20.5 40 24.977 40 30.5C40 36.023 35.523 40.5 30 40.5ZM30 38.5C32.1217 38.5 34.1566 37.6571 35.6569 36.1569C37.1571 34.6566 38 32.6217 38 30.5C38 28.3783 37.1571 26.3434 35.6569 24.8431C34.1566 23.3429 32.1217 22.5 30 22.5C27.8783 22.5 25.8434 23.3429 24.3431 24.8431C22.8429 26.3434 22 28.3783 22 30.5C22 32.6217 22.8429 34.6566 24.3431 36.1569C25.8434 37.6571 27.8783 38.5 30 38.5ZM26.5 32.5H32C32.1326 32.5 32.2598 32.4473 32.3536 32.3536C32.4473 32.2598 32.5 32.1326 32.5 32C32.5 31.8674 32.4473 31.7402 32.3536 31.6464C32.2598 31.5527 32.1326 31.5 32 31.5H28C27.337 31.5 26.7011 31.2366 26.2322 30.7678C25.7634 30.2989 25.5 29.663 25.5 29C25.5 28.337 25.7634 27.7011 26.2322 27.2322C26.7011 26.7634 27.337 26.5 28 26.5H29V24.5H31V26.5H33.5V28.5H28C27.8674 28.5 27.7402 28.5527 27.6464 28.6464C27.5527 28.7402 27.5 28.8674 27.5 29C27.5 29.1326 27.5527 29.2598 27.6464 29.3536C27.7402 29.4473 27.8674 29.5 28 29.5H32C32.663 29.5 33.2989 29.7634 33.7678 30.2322C34.2366 30.7011 34.5 31.337 34.5 32C34.5 32.663 34.2366 33.2989 33.7678 33.7678C33.2989 34.2366 32.663 34.5 32 34.5H31V36.5H29V34.5H26.5V32.5Z" fill="white"/>
</g>
</g>
<defs>
<clipPath id="clip0_3864_7878">
<rect width="24" height="24" fill="white" transform="translate(18 18.5)"/>
</clipPath>
</defs>
</svg>
